<svg width="24" height="24" viewBox="0 0 24 24" fill="none" xmlns="http://www.w3.org/2000/svg">
<path d="M12 24C18.6274 24 24 18.6274 24 12C24 5.37258 18.6274 0 12 0C5.37258 0 0 5.37258 0 12C0 18.6274 5.37258 24 12 24Z" fill="#F2C611"/>
<path d="M15.11 7.60563C15.786 8.68732 16.1241 10.107 16.1241 11.8986C16.1241 13.6901 15.786 15.1437 15.11 16.1916C14.3663 17.3408 13.3184 17.9155 11.9325 17.9155C10.5466 17.9155 9.49871 17.3408 8.75505 16.1916C8.07899 15.1099 7.74097 13.6901 7.74097 11.8986C7.74097 10.0732 8.07899 8.65352 8.75505 7.60563C9.49871 6.45634 10.5466 5.88169 11.9325 5.88169C13.3184 5.88169 14.3663 6.45634 15.11 7.60563ZM9.90435 8.95775C9.60012 9.66761 9.49871 10.6479 9.49871 11.8986C9.49871 13.1155 9.63392 14.1296 9.90435 14.8394C10.31 15.8873 10.9522 16.4282 11.9325 16.4282C12.879 16.4282 13.555 15.8873 13.9607 14.8394C14.2311 14.0958 14.3663 13.1155 14.3663 11.8986C14.3663 10.6479 14.2311 9.66761 13.9607 8.95775C13.555 7.90986 12.879 7.36901 11.9325 7.36901C10.986 7.40282 10.31 7.90986 9.90435 8.95775Z" fill="white"/>
</svg>
