<svg width="24" height="24" viewBox="0 0 24 24" fill="none" xmlns="http://www.w3.org/2000/svg">
<path d="M12 24C18.6274 24 24 18.6274 24 12C24 5.37258 18.6274 0 12 0C5.37258 0 0 5.37258 0 12C0 18.6274 5.37258 24 12 24Z" fill="#F2C611"/>
<path d="M14.9409 6.96338C15.6169 7.53803 15.9888 8.31549 15.9888 9.29577C15.9888 10.5465 15.3465 11.4254 14.062 11.831C14.7381 12.0338 15.2789 12.3718 15.6169 12.7775C16.0226 13.2169 16.1916 13.7915 16.1916 14.4676C16.1916 15.5493 15.8197 16.4282 15.0761 17.1042C14.2986 17.7803 13.2845 18.1521 12.0338 18.1521C10.8507 18.1521 9.90426 17.8479 9.1944 17.2394C8.38313 16.5634 7.94369 15.5831 7.84229 14.2648H9.63383C9.66764 15.0423 9.90426 15.6507 10.4113 16.0563C10.8169 16.462 11.3916 16.631 12.0676 16.631C12.8113 16.631 13.4197 16.3944 13.8592 15.9887C14.2648 15.5831 14.4676 15.1437 14.4676 14.5352C14.4676 13.8592 14.2648 13.3521 13.8254 13.0141C13.4197 12.6761 12.8451 12.5408 12.1014 12.5408H11.2564V11.2225H12.0676C12.7775 11.2225 13.3183 11.0535 13.6902 10.7493C14.062 10.4451 14.231 9.97183 14.231 9.39718C14.231 8.82253 14.062 8.3831 13.724 8.07887C13.3521 7.74084 12.8451 7.60563 12.1352 7.60563C11.4254 7.60563 10.8845 7.77465 10.5127 8.14648C10.1071 8.51831 9.87045 9.02535 9.80285 9.76901H8.0789C8.18031 8.61972 8.58595 7.74084 9.36341 7.06479C10.0733 6.42253 10.9859 6.11831 12.1352 6.11831C13.3183 6.11831 14.231 6.38873 14.9409 6.96338Z" fill="white"/>
</svg>
