<svg width="24" height="24" viewBox="0 0 24 24" fill="none" xmlns="http://www.w3.org/2000/svg">
<path d="M12 24C18.6274 24 24 18.6274 24 12C24 5.37258 18.6274 0 12 0C5.37258 0 0 5.37258 0 12C0 18.6274 5.37258 24 12 24Z" fill="#F2C611"/>
<path d="M15.1437 7.74085C15.8536 8.72113 16.2254 10.107 16.2254 11.8986C16.2254 13.7916 15.8198 15.3127 15.0761 16.462C14.2648 17.6451 13.217 18.2197 11.8986 18.2197C9.63386 18.2197 8.38315 17.1718 8.07893 15.0761H9.80287C10.0395 16.1916 10.7493 16.7662 11.8986 16.7662C12.7099 16.7662 13.3184 16.3606 13.8254 15.5831C14.2648 14.8394 14.5353 13.893 14.5353 12.7775C14.5353 12.7099 14.5353 12.6423 14.5353 12.5747H14.4677C14.1296 13.0817 13.724 13.4535 13.2508 13.724C12.7775 13.9606 12.2367 14.0958 11.6282 14.0958C10.4789 14.0958 9.56625 13.7239 8.89019 12.9803C8.21414 12.2704 7.90991 11.3578 7.90991 10.2085C7.90991 9.02536 8.28174 8.11268 9.05921 7.36902C9.83667 6.59156 10.7832 6.21972 11.9324 6.21972C13.3184 6.18592 14.4001 6.69296 15.1437 7.74085ZM10.2423 8.3831C9.80287 8.85634 9.60005 9.46479 9.60005 10.2085C9.60005 10.9521 9.80287 11.5268 10.2423 11.9662C10.6479 12.4056 11.2226 12.6423 11.9324 12.6423C12.6423 12.6423 13.217 12.4056 13.6564 11.9662C14.062 11.5268 14.2986 10.8845 14.2986 10.1409C14.2986 9.36339 14.062 8.78874 13.6564 8.3493C13.217 7.90986 12.6423 7.67324 11.9663 7.67324C11.2564 7.67324 10.6817 7.87606 10.2423 8.3831Z" fill="white"/>
</svg>
