<svg width="24" height="24" viewBox="0 0 24 24" fill="none" xmlns="http://www.w3.org/2000/svg">
<path d="M12 24C18.6274 24 24 18.6274 24 12C24 5.37258 18.6274 0 12 0C5.37258 0 0 5.37258 0 12C0 18.6274 5.37258 24 12 24Z" fill="#F2C611"/>
<path d="M8.92402 6.32112V17.9155H7.16627V8.4507C6.45641 9.12676 5.57754 9.59999 4.49585 9.90422V8.14647C5.00289 8.01126 5.54374 7.77464 6.11839 7.47042C6.69303 7.09859 7.20008 6.72676 7.57191 6.32112H8.92402Z" fill="white"/>
<path d="M18.4901 7.80845C19.1662 8.89014 19.5042 10.3099 19.5042 12.1014C19.5042 13.893 19.1662 15.3465 18.4901 16.3944C17.7464 17.5437 16.6986 18.1183 15.3126 18.1183C13.9267 18.1183 12.8788 17.5437 12.1352 16.3944C11.4591 15.3127 11.1211 13.893 11.1211 12.1014C11.1211 10.2761 11.4591 8.85633 12.1352 7.80845C12.8788 6.65915 13.9267 6.0845 15.3126 6.0845C16.6986 6.0845 17.7464 6.65915 18.4901 7.80845ZM13.3183 9.16056C13.0141 9.87042 12.9126 10.8507 12.9126 12.1014C12.9126 13.3183 13.0479 14.3324 13.3183 15.0422C13.7239 16.0901 14.3662 16.631 15.3464 16.631C16.2929 16.631 16.969 16.0901 17.3746 15.0422C17.645 14.2986 17.7802 13.3183 17.7802 12.1014C17.7802 10.8507 17.645 9.87042 17.3746 9.16056C16.969 8.11267 16.2929 7.57183 15.3464 7.57183C14.3662 7.57183 13.6901 8.07887 13.3183 9.16056Z" fill="white"/>
</svg>
