<svg width="56" height="56" viewBox="0 0 56 56" fill="none" xmlns="http://www.w3.org/2000/svg">
<g filter="url(#filter0_d)">
<rect x="4" y="4" width="48" height="48" rx="16" fill="white"/>
<rect x="5" y="5" width="46" height="46" rx="15" stroke="#D6D5D1" stroke-width="2"/>
</g>
<path d="M26.8688 29.6108C26.6593 29.4012 26.5416 29.117 26.5416 28.8207C26.5416 28.5244 26.6593 28.2402 26.8688 28.0307L31.9924 22.906C32.1959 22.6952 32.3086 22.413 32.306 22.12C32.3035 21.827 32.186 21.5467 31.9788 21.3395C31.7716 21.1323 31.4913 21.0148 31.1983 21.0122C30.9053 21.0097 30.6231 21.1223 30.4123 21.3259L25.2921 26.4506C24.6636 27.0792 24.3105 27.9318 24.3105 28.8207C24.3105 29.7097 24.6636 30.5622 25.2921 31.1909L30.4168 36.3155C30.6275 36.5191 30.9098 36.6317 31.2028 36.6292C31.4958 36.6266 31.7761 36.5091 31.9832 36.3019C32.1904 36.0947 32.308 35.8145 32.3105 35.5215C32.3131 35.2285 32.2004 34.9462 31.9969 34.7355L26.8688 29.6108Z" fill="#797875"/>
<defs>
<filter id="filter0_d" x="0" y="0" width="56" height="56" filterUnits="userSpaceOnUse" color-interpolation-filters="sRGB">
<feFlood flood-opacity="0" result="BackgroundImageFix"/>
<feColorMatrix in="SourceAlpha" type="matrix" values="0 0 0 0 0 0 0 0 0 0 0 0 0 0 0 0 0 0 127 0"/>
<feOffset/>
<feGaussianBlur stdDeviation="2"/>
<feColorMatrix type="matrix" values="0 0 0 0 0 0 0 0 0 0 0 0 0 0 0 0 0 0 0.15 0"/>
<feBlend mode="normal" in2="BackgroundImageFix" result="effect1_dropShadow"/>
<feBlend mode="normal" in="SourceGraphic" in2="effect1_dropShadow" result="shape"/>
</filter>
</defs>
</svg>
