<svg width="56" height="56" viewBox="0 0 56 56" fill="none" xmlns="http://www.w3.org/2000/svg">
<g filter="url(#filter0_d)">
<rect x="4" y="4" width="48" height="48" rx="16" fill="white"/>
<rect x="5" y="5" width="46" height="46" rx="15" stroke="#D6D5D1" stroke-width="2"/>
</g>
<g clip-path="url(#clip0)">
<rect width="24" height="24" transform="translate(16 16)" fill="white"/>
<path d="M17 20.75H19.736C19.9506 21.5397 20.4192 22.2369 21.0693 22.7339C21.7195 23.231 22.5151 23.5003 23.3335 23.5003C24.1519 23.5003 24.9475 23.231 25.5977 22.7339C26.2478 22.2369 26.7164 21.5397 26.931 20.75H39C39.2652 20.75 39.5196 20.6447 39.7071 20.4571C39.8946 20.2696 40 20.0152 40 19.75C40 19.4848 39.8946 19.2304 39.7071 19.0429C39.5196 18.8554 39.2652 18.75 39 18.75H26.931C26.7164 17.9603 26.2478 17.2631 25.5977 16.7661C24.9475 16.269 24.1519 15.9998 23.3335 15.9998C22.5151 15.9998 21.7195 16.269 21.0693 16.7661C20.4192 17.2631 19.9506 17.9603 19.736 18.75H17C16.7348 18.75 16.4804 18.8554 16.2929 19.0429C16.1054 19.2304 16 19.4848 16 19.75C16 20.0152 16.1054 20.2696 16.2929 20.4571C16.4804 20.6447 16.7348 20.75 17 20.75ZM23.333 18C23.6791 18 24.0175 18.1027 24.3052 18.2949C24.593 18.4872 24.8173 18.7605 24.9498 19.0803C25.0822 19.4001 25.1169 19.752 25.0494 20.0914C24.9819 20.4309 24.8152 20.7427 24.5704 20.9875C24.3257 21.2322 24.0139 21.3989 23.6744 21.4664C23.3349 21.5339 22.9831 21.4993 22.6633 21.3668C22.3435 21.2344 22.0702 21.01 21.8779 20.7223C21.6856 20.4345 21.583 20.0961 21.583 19.75C21.5835 19.286 21.7681 18.8412 22.0961 18.5132C22.4242 18.1851 22.869 18.0005 23.333 18Z" fill="#797875"/>
<path d="M39 27H36.264C36.0497 26.2101 35.5814 25.5127 34.9313 25.0154C34.2812 24.5182 33.4855 24.2488 32.667 24.2488C31.8485 24.2488 31.0528 24.5182 30.4027 25.0154C29.7526 25.5127 29.2843 26.2101 29.07 27H17C16.7348 27 16.4804 27.1054 16.2929 27.2929C16.1054 27.4804 16 27.7348 16 28C16 28.2652 16.1054 28.5196 16.2929 28.7071C16.4804 28.8947 16.7348 29 17 29H29.07C29.2843 29.7899 29.7526 30.4873 30.4027 30.9846C31.0528 31.4818 31.8485 31.7512 32.667 31.7512C33.4855 31.7512 34.2812 31.4818 34.9313 30.9846C35.5814 30.4873 36.0497 29.7899 36.264 29H39C39.2652 29 39.5196 28.8947 39.7071 28.7071C39.8946 28.5196 40 28.2652 40 28C40 27.7348 39.8946 27.4804 39.7071 27.2929C39.5196 27.1054 39.2652 27 39 27ZM32.667 29.75C32.3209 29.75 31.9825 29.6474 31.6948 29.4551C31.407 29.2628 31.1827 28.9895 31.0502 28.6697C30.9178 28.3499 30.8831 27.9981 30.9506 27.6586C31.0181 27.3191 31.1848 27.0073 31.4296 26.7626C31.6743 26.5178 31.9861 26.3512 32.3256 26.2836C32.6651 26.2161 33.0169 26.2508 33.3367 26.3832C33.6565 26.5157 33.9298 26.74 34.1221 27.0278C34.3144 27.3156 34.417 27.6539 34.417 28C34.4165 28.464 34.2319 28.9088 33.9039 29.2369C33.5758 29.5649 33.131 29.7495 32.667 29.75Z" fill="#797875"/>
<path d="M39 35.25H26.931C26.7164 34.4603 26.2478 33.7631 25.5977 33.2661C24.9475 32.769 24.1519 32.4998 23.3335 32.4998C22.5151 32.4998 21.7195 32.769 21.0693 33.2661C20.4192 33.7631 19.9506 34.4603 19.736 35.25H17C16.7348 35.25 16.4804 35.3554 16.2929 35.5429C16.1054 35.7304 16 35.9848 16 36.25C16 36.5152 16.1054 36.7696 16.2929 36.9571C16.4804 37.1447 16.7348 37.25 17 37.25H19.736C19.9506 38.0397 20.4192 38.7369 21.0693 39.2339C21.7195 39.731 22.5151 40.0003 23.3335 40.0003C24.1519 40.0003 24.9475 39.731 25.5977 39.2339C26.2478 38.7369 26.7164 38.0397 26.931 37.25H39C39.2652 37.25 39.5196 37.1447 39.7071 36.9571C39.8946 36.7696 40 36.5152 40 36.25C40 35.9848 39.8946 35.7304 39.7071 35.5429C39.5196 35.3554 39.2652 35.25 39 35.25ZM23.333 38C22.9869 38 22.6485 37.8974 22.3608 37.7051C22.073 37.5128 21.8487 37.2395 21.7162 36.9197C21.5838 36.5999 21.5491 36.2481 21.6166 35.9086C21.6841 35.5691 21.8508 35.2573 22.0956 35.0126C22.3403 34.7678 22.6521 34.6012 22.9916 34.5336C23.3311 34.4661 23.6829 34.5008 24.0027 34.6332C24.3225 34.7657 24.5958 34.99 24.7881 35.2778C24.9804 35.5656 25.083 35.9039 25.083 36.25C25.0822 36.7139 24.8976 37.1586 24.5696 37.4866C24.2415 37.8146 23.7969 37.9992 23.333 38Z" fill="#797875"/>
</g>
<defs>
<filter id="filter0_d" x="0" y="0" width="56" height="56" filterUnits="userSpaceOnUse" color-interpolation-filters="sRGB">
<feFlood flood-opacity="0" result="BackgroundImageFix"/>
<feColorMatrix in="SourceAlpha" type="matrix" values="0 0 0 0 0 0 0 0 0 0 0 0 0 0 0 0 0 0 127 0"/>
<feOffset/>
<feGaussianBlur stdDeviation="2"/>
<feColorMatrix type="matrix" values="0 0 0 0 0 0 0 0 0 0 0 0 0 0 0 0 0 0 0.15 0"/>
<feBlend mode="normal" in2="BackgroundImageFix" result="effect1_dropShadow"/>
<feBlend mode="normal" in="SourceGraphic" in2="effect1_dropShadow" result="shape"/>
</filter>
<clipPath id="clip0">
<rect width="24" height="24" fill="white" transform="translate(16 16)"/>
</clipPath>
</defs>
</svg>
