<svg width="10" height="10" viewBox="0 0 10 10" fill="none" xmlns="http://www.w3.org/2000/svg">
<path d="M10 4.99208C10 5.03962 9.96769 5.08716 9.91922 5.10301H9.90307C7.49596 5.57845 5.58966 7.48019 5.12116 9.90491C5.12116 9.95246 5.08885 9.98415 5.04039 10H5.02423H5.00808C4.99192 10 4.99192 10 4.99192 10C4.95961 10 4.91115 9.9683 4.89499 9.92076C4.89499 9.90491 4.89499 9.88906 4.89499 9.88906C4.41034 7.48019 2.52019 5.57845 0.113086 5.10301C0.0323102 5.08716 0 5.03962 0 4.99208C0 4.94453 0.0323102 4.88114 0.0969305 4.88114C2.48788 4.4057 4.39418 2.51981 4.87884 0.110935V0.0950872C4.89499 0.0316957 4.94346 0 4.99192 0C5.04039 0 5.08885 0.0316957 5.10501 0.0792393C5.10501 0.0950872 5.10501 0.110935 5.12116 0.110935C5.60582 2.50396 7.49596 4.38986 9.88691 4.86529C9.90307 4.86529 9.91922 4.86529 9.91922 4.86529C9.98384 4.89699 10 4.92868 10 4.99208Z" fill="#F2C611"/>
</svg>
