<svg width="377" height="73" viewBox="0 0 377 73" fill="none" xmlns="http://www.w3.org/2000/svg">
<mask id="path-1-outside-1" maskUnits="userSpaceOnUse" x="0" y="1" width="377" height="72" fill="black">
<rect fill="white" y="1" width="377" height="72"/>
<path fill-rule="evenodd" clip-rule="evenodd" d="M209.539 16C215.299 7.54892 225.001 2 236 2C246.999 2 256.701 7.54892 262.461 16H376V72H1V16H209.539Z"/>
</mask>
<path fill-rule="evenodd" clip-rule="evenodd" d="M209.539 16C215.299 7.54892 225.001 2 236 2C246.999 2 256.701 7.54892 262.461 16H376V72H1V16H209.539Z" fill="white"/>
<path d="M209.539 16V17H210.067L210.365 16.5632L209.539 16ZM262.461 16L261.635 16.5632L261.933 17H262.461V16ZM376 16H377V15H376V16ZM376 72V73H377V72H376ZM1 72H0V73H1V72ZM1 16V15H0V16H1ZM210.365 16.5632C215.947 8.37371 225.346 3 236 3V1C224.657 1 214.651 6.72412 208.712 15.4368L210.365 16.5632ZM236 3C246.654 3 256.053 8.37371 261.635 16.5632L263.288 15.4368C257.349 6.72412 247.343 1 236 1V3ZM262.461 17H376V15H262.461V17ZM375 16V72H377V16H375ZM376 71H1V73H376V71ZM2 72V16H0V72H2ZM1 17H209.539V15H1V17Z" fill="#D6D5D1" mask="url(#path-1-outside-1)"/>
<g clip-path="url(#clip0)">
<path d="M153.5 32.71V33C153.5 37.54 148.71 42.51 144.7 45.88C143.802 46.6283 142.669 47.0381 141.5 47.0381C140.331 47.0381 139.198 46.6283 138.3 45.88C134.29 42.48 129.5 37.51 129.5 33V32.71C129.501 30.9591 130.177 29.2759 131.388 28.0111C132.599 26.7463 134.251 25.9973 136 25.92C137.126 25.9355 138.229 26.249 139.195 26.8286C140.161 27.4082 140.956 28.2333 141.5 29.22C142.044 28.2333 142.839 27.4082 143.805 26.8286C144.771 26.249 145.874 25.9355 147 25.92C148.749 25.9973 150.401 26.7463 151.612 28.0111C152.823 29.2759 153.499 30.9591 153.5 32.71Z" fill="#D6D5D1"/>
</g>
<path d="M132.486 51.926V52.7H133.575V53.6H132.63V59.855H133.359V59.477H135.672V59.801H136.401V53.6H135.447V52.7H136.554V51.926H132.486ZM133.359 58.721V56.66L133.701 56.957C134.106 56.516 134.313 55.814 134.322 54.842V54.338H134.709V55.895C134.709 56.327 134.907 56.552 135.312 56.552H135.672V58.721H133.359ZM133.791 54.338V54.842C133.782 55.562 133.638 56.111 133.359 56.489V54.338H133.791ZM134.268 53.6V52.7H134.754V53.6H134.268ZM135.672 55.931H135.474C135.321 55.931 135.249 55.859 135.249 55.733V54.338H135.672V55.931ZM133.656 57.245V57.974H135.393V57.245H133.656ZM140.622 57.425L139.821 57.155C139.785 57.839 139.749 58.307 139.713 58.541C139.659 58.784 139.524 58.91 139.326 58.91H138.102C137.832 58.892 137.697 58.703 137.697 58.352V55.679H140.118V51.926H136.788V52.7H139.335V54.896H136.887V58.676C136.887 59.342 137.166 59.684 137.742 59.684H139.452C139.884 59.684 140.172 59.54 140.316 59.261C140.442 58.973 140.55 58.361 140.622 57.425ZM143.46 51.665V53.807H142.227V54.617H143.01L143.271 55.562H142.416V56.309H144.063V57.11H142.641V57.857H144.063V58.838C143.505 58.874 142.902 58.901 142.254 58.919L142.371 59.711C144.315 59.612 145.701 59.486 146.547 59.342V58.586C146.079 58.658 145.53 58.721 144.9 58.775V57.857H146.322V57.11H144.9V56.309H146.493V55.562H145.647L145.953 54.617H146.574V53.807H145.512V51.665H144.738V53.807H144.225V51.665H143.46ZM144.054 55.562L143.802 54.617H145.179L144.864 55.562H144.054ZM146.151 51.944C146.007 52.52 145.836 52.988 145.638 53.357L146.304 53.6C146.52 53.168 146.709 52.682 146.862 52.133L146.151 51.944ZM142.758 51.998L142.092 52.214C142.299 52.619 142.488 53.087 142.668 53.609L143.298 53.33C143.145 52.844 142.965 52.403 142.758 51.998ZM146.826 53.402V54.23H148.779V58.775C148.779 59.009 148.653 59.135 148.419 59.135C148.095 59.135 147.753 59.117 147.393 59.081L147.582 59.9H148.716C149.31 59.9 149.607 59.594 149.607 58.991V54.23H150.363V53.402H149.607V51.62H148.779V53.402H146.826ZM147.447 55.094L146.718 55.328C147.042 55.976 147.339 56.714 147.609 57.56L148.329 57.236C148.077 56.48 147.789 55.76 147.447 55.094Z" fill="#A9A8A5"/>
<g clip-path="url(#clip1)" filter="url(#filter0_d)">
<path d="M249.5 29.9996C249.506 30.2727 249.428 30.5411 249.278 30.7696L249.057 31.1196L248.602 31.3179C246.607 32.0296 244.938 32.6712 243.62 33.2196C242.815 33.5696 242.115 33.8846 241.602 34.1412C241.179 34.3427 240.786 34.6018 240.435 34.9112C240.128 35.2618 239.872 35.6547 239.677 36.0779C239.408 36.6146 239.082 37.3029 238.743 38.1079C238.183 39.4379 237.577 41.1179 236.842 43.0896C236.803 43.2221 236.752 43.351 236.69 43.4746C236.575 43.5881 236.446 43.6862 236.305 43.7662C236.067 43.9237 235.786 44.0051 235.5 43.9996C235.227 44.0051 234.958 43.9278 234.73 43.7779C234.603 43.7222 234.485 43.6475 234.38 43.5562C234.296 43.4128 234.23 43.2601 234.182 43.1012C233.482 41.1179 232.84 39.4379 232.28 38.1196C231.942 37.3146 231.615 36.6262 231.347 36.0896C231.151 35.6663 230.896 35.2734 230.588 34.9229C230.236 34.6148 229.844 34.3558 229.422 34.1529C228.885 33.8962 228.255 33.5696 227.392 33.2312C226.073 32.6712 224.393 32.0646 222.41 31.3296L222.013 31.1662L221.722 30.7812C221.573 30.548 221.496 30.2762 221.5 29.9996C221.495 29.7264 221.572 29.458 221.722 29.2296L221.943 28.8329L222.41 28.6346C224.382 27.9812 226.05 27.3396 227.333 26.7796C228.138 26.4296 228.827 26.1146 229.363 25.8462C229.784 25.6463 230.177 25.3913 230.53 25.0879C230.837 24.7373 231.093 24.3444 231.288 23.9212C231.557 23.3846 231.883 22.7546 232.222 21.8912C232.782 20.5612 233.388 18.8929 234.123 16.9096L234.333 16.5129L234.718 16.2212C234.956 16.0783 235.228 16.0027 235.506 16.0027C235.783 16.0027 236.056 16.0783 236.293 16.2212L236.667 16.4546L236.853 16.8979C237.542 18.8462 238.207 20.5612 238.755 21.8796C239.093 22.6846 239.42 23.3729 239.688 23.9096C239.894 24.3273 240.148 24.719 240.447 25.0762C240.8 25.3796 241.193 25.6347 241.613 25.8346C242.15 26.1029 242.838 26.4179 243.643 26.7679C244.962 27.3279 246.642 27.9346 248.625 28.6696L249.01 28.8212L249.302 29.2062C249.445 29.4453 249.514 29.7213 249.5 29.9996Z" fill="#F2C611"/>
</g>
<path d="M228.484 50.448C227.8 50.448 227.233 50.601 226.783 50.907C226.306 51.231 226.072 51.672 226.072 52.239C226.072 52.797 226.315 53.229 226.81 53.526C227.008 53.634 227.494 53.805 228.286 54.057C228.997 54.273 229.42 54.417 229.564 54.489C229.969 54.696 230.176 54.975 230.176 55.335C230.176 55.623 230.032 55.848 229.744 56.01C229.456 56.172 229.069 56.262 228.583 56.262C228.043 56.262 227.647 56.163 227.386 55.965C227.098 55.749 226.918 55.38 226.846 54.876H225.874C225.928 55.686 226.216 56.28 226.747 56.658C227.188 56.964 227.8 57.126 228.583 57.126C229.393 57.126 230.023 56.964 230.473 56.64C230.923 56.307 231.148 55.857 231.148 55.281C231.148 54.687 230.869 54.228 230.32 53.895C230.068 53.742 229.501 53.535 228.637 53.265C228.034 53.085 227.665 52.95 227.521 52.869C227.197 52.698 227.044 52.473 227.044 52.185C227.044 51.861 227.179 51.627 227.458 51.483C227.683 51.357 228.007 51.294 228.43 51.294C228.916 51.294 229.276 51.384 229.528 51.573C229.78 51.753 229.942 52.059 230.032 52.473H231.004C230.941 51.771 230.689 51.258 230.239 50.925C229.816 50.601 229.231 50.448 228.484 50.448ZM234.134 50.844L233.18 51.24V52.347H232.316V53.139H233.18V55.839C233.18 56.208 233.261 56.487 233.441 56.685C233.621 56.892 233.918 57 234.314 57H235.079V56.208H234.467C234.35 56.208 234.269 56.172 234.215 56.118C234.161 56.055 234.134 55.965 234.134 55.839V53.139H235.196V52.347H234.134V50.844ZM238.811 52.221C238.235 52.221 237.767 52.32 237.425 52.536C237.029 52.77 236.777 53.148 236.678 53.652L237.623 53.733C237.677 53.472 237.812 53.283 238.028 53.157C238.208 53.049 238.451 52.995 238.748 52.995C239.45 52.995 239.801 53.319 239.801 53.967V54.156L238.757 54.183C238.073 54.201 237.533 54.336 237.155 54.606C236.741 54.885 236.534 55.29 236.534 55.812C236.534 56.199 236.678 56.514 236.975 56.757C237.245 57 237.623 57.126 238.109 57.126C238.523 57.126 238.883 57.045 239.189 56.901C239.459 56.766 239.684 56.577 239.864 56.343V57H240.746V54.03C240.746 53.463 240.602 53.031 240.323 52.734C239.999 52.392 239.495 52.221 238.811 52.221ZM239.801 54.849V55.119C239.801 55.479 239.648 55.785 239.36 56.028C239.072 56.271 238.73 56.397 238.325 56.397C238.082 56.397 237.884 56.334 237.74 56.217C237.587 56.1 237.515 55.956 237.515 55.776C237.515 55.2 237.947 54.894 238.82 54.876L239.801 54.849ZM244.748 52.221C244.46 52.221 244.208 52.302 243.992 52.482C243.812 52.608 243.659 52.797 243.542 53.049V52.347H242.588V57H243.542V54.534C243.542 54.129 243.659 53.796 243.902 53.544C244.127 53.31 244.388 53.193 244.676 53.193C244.892 53.193 245.117 53.22 245.351 53.292V52.338C245.189 52.257 244.982 52.221 244.748 52.221Z" fill="#F2C611"/>
<g clip-path="url(#clip2)">
<path d="M329.707 24H328.969C325.836 24.0994 322.87 25.4585 320.724 27.7783C318.578 30.0981 317.427 33.1886 317.525 36.3698C317.623 39.5511 318.961 42.5626 321.246 44.7418C323.53 46.921 326.574 48.0894 329.707 47.99H336.598C337.244 47.99 337.884 47.8607 338.482 47.6096C339.079 47.3584 339.621 46.9902 340.078 46.5261C340.535 46.062 340.898 45.5111 341.145 44.9047C341.393 44.2983 341.52 43.6484 341.52 42.9921V35.2453C341.332 32.1957 340.005 29.334 337.81 27.2442C335.614 25.1544 332.716 23.994 329.707 24ZM325.71 30.9971H329.648C329.909 30.9971 330.159 31.1024 330.344 31.2898C330.529 31.4773 330.632 31.7316 330.632 31.9967C330.632 32.2618 330.529 32.516 330.344 32.7035C330.159 32.8909 329.909 32.9962 329.648 32.9962H325.71C325.449 32.9962 325.199 32.8909 325.014 32.7035C324.83 32.516 324.726 32.2618 324.726 31.9967C324.726 31.7316 324.83 31.4773 325.014 31.2898C325.199 31.1024 325.449 30.9971 325.71 30.9971ZM333.586 40.9929H325.71C325.449 40.9929 325.199 40.8876 325.014 40.7001C324.83 40.5127 324.726 40.2584 324.726 39.9933C324.726 39.7282 324.83 39.474 325.014 39.2865C325.199 39.0991 325.449 38.9937 325.71 38.9937H333.586C333.847 38.9937 334.097 39.0991 334.282 39.2865C334.466 39.474 334.57 39.7282 334.57 39.9933C334.57 40.2584 334.466 40.5127 334.282 40.7001C334.097 40.8876 333.847 40.9929 333.586 40.9929ZM333.586 36.9946H325.71C325.449 36.9946 325.199 36.8893 325.014 36.7018C324.83 36.5143 324.726 36.2601 324.726 35.995C324.726 35.7299 324.83 35.4756 325.014 35.2882C325.199 35.1007 325.449 34.9954 325.71 34.9954H333.586C333.847 34.9954 334.097 35.1007 334.282 35.2882C334.466 35.4756 334.57 35.7299 334.57 35.995C334.57 36.2601 334.466 36.5143 334.282 36.7018C334.097 36.8893 333.847 36.9946 333.586 36.9946Z" fill="#D6D5D1"/>
</g>
<path d="M321.71 51.665V53.807H320.477V54.617H321.26L321.521 55.562H320.666V56.309H322.313V57.11H320.891V57.857H322.313V58.838C321.755 58.874 321.152 58.901 320.504 58.919L320.621 59.711C322.565 59.612 323.951 59.486 324.797 59.342V58.586C324.329 58.658 323.78 58.721 323.15 58.775V57.857H324.572V57.11H323.15V56.309H324.743V55.562H323.897L324.203 54.617H324.824V53.807H323.762V51.665H322.988V53.807H322.475V51.665H321.71ZM322.304 55.562L322.052 54.617H323.429L323.114 55.562H322.304ZM324.401 51.944C324.257 52.52 324.086 52.988 323.888 53.357L324.554 53.6C324.77 53.168 324.959 52.682 325.112 52.133L324.401 51.944ZM321.008 51.998L320.342 52.214C320.549 52.619 320.738 53.087 320.918 53.609L321.548 53.33C321.395 52.844 321.215 52.403 321.008 51.998ZM325.076 53.402V54.23H327.029V58.775C327.029 59.009 326.903 59.135 326.669 59.135C326.345 59.135 326.003 59.117 325.643 59.081L325.832 59.9H326.966C327.56 59.9 327.857 59.594 327.857 58.991V54.23H328.613V53.402H327.857V51.62H327.029V53.402H325.076ZM325.697 55.094L324.968 55.328C325.292 55.976 325.589 56.714 325.859 57.56L326.579 57.236C326.327 56.48 326.039 55.76 325.697 55.094ZM331.208 59.405H332.333V59.783H333.152V56.624H330.389V59.918H331.208V59.405ZM332.333 58.622H331.208V57.407H332.333V58.622ZM330.146 52.7V53.492H333.395V52.7H332.27C332.18 52.367 332.045 51.998 331.865 51.593L331.046 51.818C331.19 52.097 331.325 52.394 331.451 52.7H330.146ZM330.479 54.041V54.788H333.08V54.041H330.479ZM330.479 55.283V56.048H333.08V55.283H330.479ZM333.494 54.176V55.004H335.42V56.255H333.836V59.9H334.673V59.504H337.022V59.9H337.85V56.255H336.248V55.004H338.336V54.176H336.248V52.925C336.941 52.817 337.553 52.646 338.075 52.43L337.652 51.71C336.554 52.124 335.213 52.331 333.62 52.331L333.863 53.096C334.412 53.096 334.934 53.069 335.42 53.024V54.176H333.494ZM334.673 58.712V57.038H337.022V58.712H334.673Z" fill="#A9A8A5"/>
<g clip-path="url(#clip3)">
<path d="M47.5 36C50.8137 36 53.5 33.3137 53.5 30C53.5 26.6863 50.8137 24 47.5 24C44.1863 24 41.5 26.6863 41.5 30C41.5 33.3137 44.1863 36 47.5 36Z" fill="#D6D5D1"/>
<path d="M56.5 47C56.5088 47.1336 56.489 47.2676 56.4419 47.3929C56.3948 47.5182 56.3214 47.632 56.2267 47.7267C56.132 47.8214 56.0182 47.8948 55.8929 47.9419C55.7675 47.989 55.6336 48.0088 55.5 48H39.4C39.2743 47.9963 39.1506 47.9672 39.0365 47.9143C38.9224 47.8615 38.8202 47.786 38.7361 47.6925C38.6519 47.5991 38.5876 47.4895 38.5471 47.3705C38.5065 47.2514 38.4905 47.1254 38.5 47C38.5 44.6131 39.4482 42.3239 41.136 40.636C42.8238 38.9482 45.113 38 47.5 38C49.8869 38 52.1761 38.9482 53.8639 40.636C55.5518 42.3239 56.5 44.6131 56.5 47Z" fill="#D6D5D1"/>
</g>
<path d="M40.295 51.602C39.863 52.979 39.206 54.185 38.306 55.211L38.576 56.102C38.864 55.796 39.134 55.481 39.386 55.157V59.936H40.232V53.87C40.574 53.267 40.844 52.628 41.06 51.962L40.295 51.602ZM46.415 51.908H41.15V59.918H41.915V59.405H45.641V59.918H46.415V51.908ZM41.915 58.649V52.646H45.641V58.649H41.915ZM42.23 53.951V54.68H43.427V55.589H42.563V58.208H45.047V55.589H44.156V54.68H45.344V53.951H44.156V53.024H43.427V53.951H42.23ZM44.381 57.56H43.22V56.237H44.381V57.56ZM52.655 51.638H51.791C51.791 51.98 51.782 52.448 51.782 53.051C51.71 55.634 50.459 57.659 48.029 59.135L48.551 59.9C50.441 58.676 51.683 57.128 52.277 55.256C52.961 57.182 54.167 58.73 55.895 59.882L56.462 59.135C54.41 57.875 53.114 56.048 52.592 53.654C52.628 53.096 52.655 52.43 52.655 51.638Z" fill="#A9A8A5"/>
<defs>
<filter id="filter0_d" x="217.5" y="12" width="36" height="36" filterUnits="userSpaceOnUse" color-interpolation-filters="sRGB">
<feFlood flood-opacity="0" result="BackgroundImageFix"/>
<feColorMatrix in="SourceAlpha" type="matrix" values="0 0 0 0 0 0 0 0 0 0 0 0 0 0 0 0 0 0 127 0"/>
<feOffset/>
<feGaussianBlur stdDeviation="2"/>
<feColorMatrix type="matrix" values="0 0 0 0 0.9625 0 0 0 0 0.815843 0 0 0 0 0.212552 0 0 0 1 0"/>
<feBlend mode="normal" in2="BackgroundImageFix" result="effect1_dropShadow"/>
<feBlend mode="normal" in="SourceGraphic" in2="effect1_dropShadow" result="shape"/>
</filter>
<clipPath id="clip0">
<rect width="24" height="24" fill="white" transform="translate(129.5 24)"/>
</clipPath>
<clipPath id="clip1">
<rect width="28" height="28" fill="white" transform="translate(221.5 16)"/>
</clipPath>
<clipPath id="clip2">
<rect width="24" height="24" fill="white" transform="translate(317.5 24)"/>
</clipPath>
<clipPath id="clip3">
<rect width="24" height="24" fill="white" transform="translate(35.5 24)"/>
</clipPath>
</defs>
</svg>
