<svg width="54" height="38" viewBox="0 0 54 38" fill="none" xmlns="http://www.w3.org/2000/svg">
<path d="M25.845 2.09566C26.1712 1.19078 27.4956 1.19078 27.8217 2.09567C28.6864 4.49468 29.9011 7.63971 30.5392 8.27781C31.1773 8.91591 34.3223 10.1306 36.7213 10.9953C37.6262 11.3214 37.6262 12.6458 36.7213 12.972C34.3223 13.8367 31.1773 15.0514 30.5392 15.6895C29.9011 16.3276 28.6864 19.4726 27.8217 21.8716C27.4956 22.7765 26.1712 22.7765 25.845 21.8716C24.9803 19.4726 23.7656 16.3275 23.1275 15.6895C22.4895 15.0514 19.3444 13.8367 16.9454 12.972C16.0405 12.6458 16.0405 11.3214 16.9454 10.9953C19.3444 10.1306 22.4895 8.91584 23.1275 8.27781C23.7656 7.63978 24.9803 4.49471 25.845 2.09566Z" fill="#BDBDBD"/>
<path d="M4.46881 28.5499C3.70215 28.5499 3.09881 28.8066 2.65881 29.3199C2.21881 29.8333 1.99881 30.5366 1.99881 31.4299C1.99881 32.3166 2.20215 33.0199 2.60881 33.5399C3.02215 34.0533 3.63881 34.3099 4.45881 34.3099C4.77215 34.3099 5.06881 34.2833 5.34881 34.2299C5.62881 34.1766 5.90215 34.1099 6.16881 34.0299V34.8099C5.90215 34.9099 5.62548 34.9833 5.33881 35.0299C5.05881 35.0766 4.72215 35.0999 4.32881 35.0999C3.60215 35.0999 2.99548 34.9499 2.50881 34.6499C2.02215 34.3499 1.65548 33.9233 1.40881 33.3699C1.16881 32.8166 1.04881 32.1666 1.04881 31.4199C1.04881 30.6999 1.17881 30.0666 1.43881 29.5199C1.70548 28.9666 2.09548 28.5366 2.60881 28.2299C3.12215 27.9166 3.74548 27.7599 4.47881 27.7599C5.23215 27.7599 5.88881 27.8999 6.44881 28.1799L6.08881 28.9399C5.86881 28.8399 5.62215 28.7499 5.34881 28.6699C5.08215 28.5899 4.78881 28.5499 4.46881 28.5499ZM9.98717 29.6299C9.98717 29.8966 9.97051 30.1466 9.93717 30.3799H9.99717C10.1705 30.1066 10.4038 29.8999 10.6972 29.7599C10.9972 29.6199 11.3205 29.5499 11.6672 29.5499C12.3205 29.5499 12.8105 29.7066 13.1372 30.0199C13.4638 30.3266 13.6272 30.8233 13.6272 31.5099V34.9999H12.7572V31.5699C12.7572 30.7099 12.3572 30.2799 11.5572 30.2799C10.9572 30.2799 10.5438 30.4499 10.3172 30.7899C10.0972 31.1233 9.98717 31.6033 9.98717 32.2299V34.9999H9.10717V27.3999H9.98717V29.6299ZM18.8188 29.5499C19.4721 29.5499 19.9555 29.6933 20.2688 29.9799C20.5821 30.2666 20.7388 30.7233 20.7388 31.3499V34.9999H20.0988L19.9288 34.2399H19.8888C19.6555 34.5333 19.4088 34.7499 19.1488 34.8899C18.8955 35.0299 18.5421 35.0999 18.0888 35.0999C17.6021 35.0999 17.1988 34.9733 16.8788 34.7199C16.5588 34.4599 16.3988 34.0566 16.3988 33.5099C16.3988 32.9766 16.6088 32.5666 17.0288 32.2799C17.4488 31.9866 18.0955 31.8266 18.9688 31.7999L19.8788 31.7699V31.4499C19.8788 31.0033 19.7821 30.6933 19.5888 30.5199C19.3955 30.3466 19.1221 30.2599 18.7688 30.2599C18.4888 30.2599 18.2221 30.3033 17.9688 30.3899C17.7155 30.4699 17.4788 30.5633 17.2588 30.6699L16.9888 30.0099C17.2221 29.8833 17.4988 29.7766 17.8188 29.6899C18.1388 29.5966 18.4721 29.5499 18.8188 29.5499ZM19.0788 32.4099C18.4121 32.4366 17.9488 32.5433 17.6888 32.7299C17.4355 32.9166 17.3088 33.1799 17.3088 33.5199C17.3088 33.8199 17.3988 34.0399 17.5788 34.1799C17.7655 34.3199 18.0021 34.3899 18.2888 34.3899C18.7421 34.3899 19.1188 34.2666 19.4188 34.0199C19.7188 33.7666 19.8688 33.3799 19.8688 32.8599V32.3799L19.0788 32.4099ZM26.3943 29.5399C26.4943 29.5399 26.6009 29.5466 26.7143 29.5599C26.8343 29.5666 26.9376 29.5799 27.0243 29.5999L26.9143 30.4099C26.8276 30.3899 26.7309 30.3733 26.6243 30.3599C26.5243 30.3466 26.4276 30.3399 26.3343 30.3399C26.0609 30.3399 25.8043 30.4166 25.5643 30.5699C25.3243 30.7166 25.1309 30.9266 24.9843 31.1999C24.8443 31.4666 24.7743 31.7799 24.7743 32.1399V34.9999H23.8943V29.6399H24.6143L24.7143 30.6199H24.7543C24.9276 30.3266 25.1509 30.0733 25.4243 29.8599C25.6976 29.6466 26.0209 29.5399 26.3943 29.5399ZM35.4051 29.5399C36.0118 29.5399 36.4651 29.6966 36.7651 30.0099C37.0651 30.3166 37.2151 30.8166 37.2151 31.5099V34.9999H36.3451V31.5499C36.3451 30.7033 35.9818 30.2799 35.2551 30.2799C34.7351 30.2799 34.3618 30.4299 34.1351 30.7299C33.9151 31.0299 33.8051 31.4666 33.8051 32.0399V34.9999H32.9351V31.5499C32.9351 30.7033 32.5685 30.2799 31.8351 30.2799C31.2951 30.2799 30.9218 30.4466 30.7151 30.7799C30.5085 31.1133 30.4051 31.5933 30.4051 32.2199V34.9999H29.5251V29.6399H30.2351L30.3651 30.3699H30.4151C30.5818 30.0899 30.8051 29.8833 31.0851 29.7499C31.3718 29.6099 31.6751 29.5399 31.9951 29.5399C32.8351 29.5399 33.3818 29.8399 33.6351 30.4399H33.6851C33.8651 30.1333 34.1085 29.9066 34.4151 29.7599C34.7285 29.6133 35.0585 29.5399 35.4051 29.5399ZM41.2508 29.2499C41.2508 29.4766 41.2442 29.6899 41.2308 29.8899C41.2242 30.0833 41.2142 30.2366 41.2008 30.3499H41.2508C41.4042 30.1233 41.6142 29.9333 41.8808 29.7799C42.1475 29.6266 42.4908 29.5499 42.9108 29.5499C43.5775 29.5499 44.1108 29.7833 44.5108 30.2499C44.9175 30.7099 45.1208 31.3999 45.1208 32.3199C45.1208 33.2399 44.9175 33.9333 44.5108 34.3999C44.1042 34.8666 43.5708 35.0999 42.9108 35.0999C42.4908 35.0999 42.1475 35.0233 41.8808 34.8699C41.6142 34.7166 41.4042 34.5333 41.2508 34.3199H41.1808L41.0008 34.9999H40.3708V27.3999H41.2508V29.2499ZM42.7608 30.2799C42.1942 30.2799 41.8008 30.4433 41.5808 30.7699C41.3608 31.0966 41.2508 31.6033 41.2508 32.2899V32.3299C41.2508 32.9899 41.3575 33.4966 41.5708 33.8499C41.7908 34.1966 42.1942 34.3699 42.7808 34.3699C43.2608 34.3699 43.6175 34.1933 43.8508 33.8399C44.0908 33.4866 44.2108 32.9766 44.2108 32.3099C44.2108 30.9566 43.7275 30.2799 42.7608 30.2799ZM52.6832 32.3099C52.6832 33.1966 52.4565 33.8833 52.0032 34.3699C51.5565 34.8566 50.9499 35.0999 50.1832 35.0999C49.7099 35.0999 49.2865 34.9933 48.9132 34.7799C48.5465 34.5599 48.2565 34.2433 48.0432 33.8299C47.8299 33.4099 47.7232 32.9033 47.7232 32.3099C47.7232 31.4233 47.9465 30.7399 48.3932 30.2599C48.8399 29.7799 49.4465 29.5399 50.2132 29.5399C50.6999 29.5399 51.1265 29.6499 51.4932 29.8699C51.8665 30.0833 52.1565 30.3966 52.3632 30.8099C52.5765 31.2166 52.6832 31.7166 52.6832 32.3099ZM48.6332 32.3099C48.6332 32.9433 48.7565 33.4466 49.0032 33.8199C49.2565 34.1866 49.6565 34.3699 50.2032 34.3699C50.7432 34.3699 51.1399 34.1866 51.3932 33.8199C51.6465 33.4466 51.7732 32.9433 51.7732 32.3099C51.7732 31.6766 51.6465 31.1799 51.3932 30.8199C51.1399 30.4599 50.7399 30.2799 50.1932 30.2799C49.6465 30.2799 49.2499 30.4599 49.0032 30.8199C48.7565 31.1799 48.6332 31.6766 48.6332 32.3099Z" fill="#828282"/>
</svg>
