<svg width="23" height="39" viewBox="0 0 23 39" fill="none" xmlns="http://www.w3.org/2000/svg">
<path fill-rule="evenodd" clip-rule="evenodd" d="M1.65548 5.85714C1.19019 6.12314 1.02879 6.71569 1.29498 7.18064L10.0723 22.5116C10.3385 22.9765 10.9315 23.1378 11.3968 22.8718L12.9075 22.0081H10.5192C9.98315 22.0081 9.54859 21.5739 9.54859 21.0382V2.60998C9.54859 2.07431 9.98315 1.64007 10.5192 1.64007H13.6605L13.0012 0.488437C12.735 0.0234846 12.142 -0.137799 11.6767 0.128202L1.65548 5.85714Z" fill="#4F4F4F"/>
<path d="M10.5192 3.57985C10.5192 3.04418 10.9538 2.60994 11.4898 2.60994H21.1961C21.7321 2.60994 22.1667 3.04418 22.1667 3.57985V20.0683C22.1667 20.6039 21.7321 21.0382 21.1961 21.0382H11.4898C10.9538 21.0382 10.5192 20.6039 10.5192 20.0683V3.57985Z" fill="#4F4F4F"/>
<path d="M6.30669 35.71V33.25H9.44669V32.54H6.30669V30.35H9.85669V29.62H6.62669L7.09669 29.28C6.70669 28.81 5.90669 28.13 5.26669 27.67L4.66669 28.09C5.26669 28.53 5.97669 29.16 6.36669 29.62H1.97669V30.35H5.51669V32.54H2.43669V33.25H5.51669V35.71H1.51669V36.44H10.3567V35.71H6.30669ZM19.9967 31.24H14.9767V30.33H19.9967V31.24ZM19.9967 32.72H14.9767V31.8H19.9967V32.72ZM19.9967 34.21H14.9767V33.29H19.9967V34.21ZM14.2167 29.74V34.81H20.7867V29.74H17.5367C17.6367 29.46 17.7367 29.14 17.8267 28.83H21.5467V28.15H13.2567V28.83H16.9767C16.9267 29.13 16.8467 29.46 16.7667 29.74H14.2167ZM16.0267 34.92C15.3367 35.38 13.9767 35.9 12.9067 36.18C13.0767 36.34 13.2967 36.6 13.4167 36.76C14.4867 36.46 15.8267 35.93 16.6967 35.41L16.0267 34.92ZM18.1467 35.46C19.3167 35.86 20.4967 36.38 21.2067 36.77L21.8967 36.26C21.1167 35.87 19.8467 35.36 18.6767 34.97L18.1467 35.46Z" fill="#4F4F4F"/>
</svg>
