<svg width="25" height="38" viewBox="0 0 25 38" fill="none" xmlns="http://www.w3.org/2000/svg">
<g clip-path="url(#clip0)">
<path d="M12.5 12C15.8137 12 18.5 9.31371 18.5 6C18.5 2.68629 15.8137 0 12.5 0C9.18629 0 6.5 2.68629 6.5 6C6.5 9.31371 9.18629 12 12.5 12Z" fill="#D6D5D1"/>
<path d="M21.5 23C21.5088 23.1336 21.489 23.2676 21.4419 23.3929C21.3948 23.5182 21.3214 23.632 21.2267 23.7267C21.132 23.8214 21.0182 23.8948 20.8929 23.9419C20.7675 23.989 20.6336 24.0088 20.5 24H4.39998C4.27428 23.9963 4.15063 23.9672 4.03651 23.9143C3.92239 23.8615 3.82018 23.786 3.73605 23.6925C3.65192 23.5991 3.58763 23.4895 3.54705 23.3705C3.50647 23.2514 3.49046 23.1254 3.49998 23C3.49998 20.6131 4.44819 18.3239 6.13602 16.636C7.82385 14.9482 10.113 14 12.5 14C14.8869 14 17.1761 14.9482 18.8639 16.636C20.5518 18.3239 21.5 20.6131 21.5 23Z" fill="#D6D5D1"/>
</g>
<path d="M5.16 27.512C4.71 28.871 3.99 30.221 3.189 31.094C3.306 31.256 3.486 31.625 3.54 31.769C3.846 31.427 4.134 31.022 4.413 30.581V35.693H5.052V29.429C5.331 28.871 5.574 28.277 5.772 27.683L5.16 27.512ZM9.48 33.308H7.959V31.913H9.48V33.308ZM10.362 30.419V29.906H8.976V28.889H8.427V29.906H7.077V30.419H8.427V31.409H7.446V33.803H10.011V31.409H8.976V30.419H10.362ZM6.708 34.55V28.601H10.668V34.55H6.708ZM6.087 28.016V35.675H6.708V35.144H10.668V35.603H11.307V28.016H6.087ZM16.791 27.746C16.728 28.934 16.728 33.227 13.083 35.09C13.29 35.225 13.506 35.441 13.623 35.603C15.9 34.37 16.827 32.201 17.223 30.401C17.655 32.201 18.645 34.505 20.967 35.603C21.066 35.423 21.273 35.198 21.462 35.054C18.078 33.506 17.592 29.348 17.511 28.16C17.52 28.007 17.52 27.863 17.529 27.746H16.791Z" fill="#A9A8A5"/>
<defs>
<clipPath id="clip0">
<rect width="24" height="24" fill="white" transform="translate(0.5)"/>
</clipPath>
</defs>
</svg>
