<svg width="45" height="36" viewBox="0 0 45 36" fill="none" xmlns="http://www.w3.org/2000/svg">
<path d="M26.5 4.11896C26.5 6.3281 24.7091 8.11896 22.5 8.11896C20.2909 8.11896 18.5 6.3281 18.5 4.11896C18.5 1.90982 20.2909 0.118958 22.5 0.118958C24.7091 0.118958 26.5 1.90982 26.5 4.11896Z" fill="#BDBDBD"/>
<path d="M32.5 15.0397C32.5 18 32.5 18 22.5 18C12.5 18 12.5 18 12.5 15.0397C12.5 11.7697 16.9772 9.11896 22.5 9.11896C28.0228 9.11896 32.5 11.7697 32.5 15.0397Z" fill="#BDBDBD"/>
<path d="M7.36 31.03V31.7H3.22V31.03H7.36ZM3.22 32.92V32.23H7.36V32.92H3.22ZM2.5 33.76H3.22V33.45H7.36V33.74H8.11V30.5H2.5V33.76ZM6.68 29.48C6.88 29.18 7.13 28.73 7.36 28.3L6.73 28.1C6.6 28.44 6.35 28.97 6.16 29.3L6.68 29.48ZM3.15 28.31C3.4 28.68 3.63 29.16 3.71 29.48L4.28 29.27C4.19 28.95 3.94 28.49 3.68 28.14L3.15 28.31ZM2.55 28.03H4.91V29.52H2.55V28.03ZM7.99 29.52H5.52V28.03H7.99V29.52ZM1.91 30.03H8.67V27.51H1.91V30.03ZM3.67 26.44C4.28 26.04 4.82 25.63 5.2 25.23C5.63 25.65 6.2 26.06 6.82 26.44H3.67ZM4.82 24.63C3.99 25.59 2.31 26.61 0.62 27.19C0.76 27.33 0.93 27.6 1.02 27.77C1.89 27.44 2.77 27 3.53 26.53V26.98H7V26.55C7.8 27.02 8.68 27.43 9.46 27.7C9.57 27.51 9.74 27.25 9.9 27.08C8.36 26.63 6.63 25.72 5.51 24.63H4.82ZM19.14 26.66H14.41V25.62H19.14V26.66ZM19.91 25.02H13.67V27.26H19.91V25.02ZM13.99 30.84H19.54V31.56H13.99V30.84ZM13.99 29.61H19.54V30.31H13.99V29.61ZM13.99 28.38H19.54V29.08H13.99V28.38ZM20.3 32.11V27.83H13.25V32.11H15.12C14.5 32.52 13.21 32.98 12.17 33.22C12.35 33.37 12.59 33.62 12.72 33.77C13.74 33.51 15.03 33.03 15.83 32.54L15.16 32.11H20.3ZM17.56 32.61C18.61 32.92 19.95 33.43 20.7 33.78L21.34 33.24C20.56 32.92 19.23 32.43 18.2 32.13L17.56 32.61ZM28.61 29.79V27.14H31.48V29.79H28.61ZM24.98 29.79V27.14H27.84V29.79H24.98ZM28.61 26.41V24.63H27.84V26.41H24.25V31.14H24.98V30.52H27.84V33.76H28.61V30.52H31.48V31.09H32.24V26.41H28.61ZM41.95 28.21C42.79 29.33 43.52 30.88 43.75 31.92L44.48 31.57C44.24 30.52 43.49 29.01 42.6 27.88L41.95 28.21ZM36.15 28.21C36.02 29.49 35.69 30.94 35.02 31.81L35.69 32.22C36.4 31.26 36.71 29.69 36.87 28.35L36.15 28.21ZM37.89 25.25C39.09 25.67 40.53 26.41 41.31 26.98L41.78 26.33C40.99 25.81 39.55 25.08 38.36 24.68L37.89 25.25ZM37.82 27.4V32.39C37.82 33.36 38.11 33.63 39.17 33.63H41.11C42.19 33.63 42.43 33.08 42.53 31.2C42.32 31.15 42.01 31.01 41.84 30.86C41.76 32.59 41.67 32.95 41.07 32.95H39.23C38.68 32.95 38.57 32.86 38.57 32.4V27.4H37.82Z" fill="#828282"/>
</svg>
