<svg width="27" height="42" viewBox="0 0 27 42" fill="none" xmlns="http://www.w3.org/2000/svg">
<path d="M6.16 31.512C5.71 32.871 4.99 34.221 4.189 35.094C4.306 35.256 4.486 35.625 4.54 35.769C4.846 35.427 5.134 35.022 5.413 34.581V39.693H6.052V33.429C6.331 32.871 6.574 32.277 6.772 31.683L6.16 31.512ZM10.48 37.308H8.959V35.913H10.48V37.308ZM11.362 34.419V33.906H9.976V32.889H9.427V33.906H8.077V34.419H9.427V35.409H8.446V37.803H11.011V35.409H9.976V34.419H11.362ZM7.708 38.55V32.601H11.668V38.55H7.708ZM7.087 32.016V39.675H7.708V39.144H11.668V39.603H12.307V32.016H7.087ZM17.791 31.746C17.728 32.934 17.728 37.227 14.083 39.09C14.29 39.225 14.506 39.441 14.623 39.603C16.9 38.37 17.827 36.201 18.223 34.401C18.655 36.201 19.645 38.505 21.967 39.603C22.066 39.423 22.273 39.198 22.462 39.054C19.078 37.506 18.592 33.348 18.511 32.16C18.52 32.007 18.52 31.863 18.529 31.746H17.791Z" fill="#F2C611"/>
<g clip-path="url(#clip0)" filter="url(#filter0_d)">
<path d="M13.5 16C16.8137 16 19.5 13.3137 19.5 10C19.5 6.68629 16.8137 4 13.5 4C10.1863 4 7.5 6.68629 7.5 10C7.5 13.3137 10.1863 16 13.5 16Z" fill="#F2C611"/>
<path d="M22.5 27C22.5088 27.1336 22.489 27.2676 22.4419 27.3929C22.3948 27.5182 22.3214 27.632 22.2267 27.7267C22.132 27.8214 22.0182 27.8948 21.8929 27.9419C21.7675 27.989 21.6336 28.0088 21.5 28H5.39998C5.27428 27.9963 5.15063 27.9672 5.03651 27.9143C4.92239 27.8615 4.82018 27.786 4.73605 27.6925C4.65192 27.5991 4.58763 27.4895 4.54705 27.3705C4.50647 27.2514 4.49046 27.1254 4.49998 27C4.49998 24.6131 5.44819 22.3239 7.13602 20.636C8.82385 18.9482 11.113 18 13.5 18C15.8869 18 18.1761 18.9482 19.8639 20.636C21.5518 22.3239 22.5 24.6131 22.5 27Z" fill="#F2C611"/>
</g>
<defs>
<filter id="filter0_d" x="-2.5" y="0" width="32" height="32" filterUnits="userSpaceOnUse" color-interpolation-filters="sRGB">
<feFlood flood-opacity="0" result="BackgroundImageFix"/>
<feColorMatrix in="SourceAlpha" type="matrix" values="0 0 0 0 0 0 0 0 0 0 0 0 0 0 0 0 0 0 127 0" result="hardAlpha"/>
<feOffset/>
<feGaussianBlur stdDeviation="2"/>
<feColorMatrix type="matrix" values="0 0 0 0 0.9625 0 0 0 0 0.815843 0 0 0 0 0.212552 0 0 0 1 0"/>
<feBlend mode="normal" in2="BackgroundImageFix" result="effect1_dropShadow"/>
<feBlend mode="normal" in="SourceGraphic" in2="effect1_dropShadow" result="shape"/>
</filter>
<clipPath id="clip0">
<rect width="24" height="24" fill="white" transform="translate(1.5 4)"/>
</clipPath>
</defs>
</svg>
