<svg width="377" height="73" viewBox="0 0 377 73" fill="none" xmlns="http://www.w3.org/2000/svg">
<mask id="path-1-outside-1" maskUnits="userSpaceOnUse" x="0" y="1" width="377" height="72" fill="black">
<rect fill="white" y="1" width="377" height="72"/>
<path fill-rule="evenodd" clip-rule="evenodd" d="M20.5387 16C26.2986 7.54892 36.0013 2 47 2C57.9987 2 67.7014 7.54892 73.4613 16H376V72H1V16H20.5387Z"/>
</mask>
<path fill-rule="evenodd" clip-rule="evenodd" d="M20.5387 16C26.2986 7.54892 36.0013 2 47 2C57.9987 2 67.7014 7.54892 73.4613 16H376V72H1V16H20.5387Z" fill="white"/>
<path d="M20.5387 16V17H21.0673L21.365 16.5632L20.5387 16ZM73.4613 16L72.635 16.5632L72.9327 17H73.4613V16ZM376 16H377V15H376V16ZM376 72V73H377V72H376ZM1 72H0V73H1V72ZM1 16V15H0V16H1ZM21.365 16.5632C26.9467 8.37371 36.3459 3 47 3V1C35.6567 1 25.6506 6.72412 19.7124 15.4368L21.365 16.5632ZM47 3C57.6541 3 67.0533 8.37371 72.635 16.5632L74.2876 15.4368C68.3494 6.72412 58.3433 1 47 1V3ZM73.4613 17H376V15H73.4613V17ZM375 16V72H377V16H375ZM376 71H1V73H376V71ZM2 72V16H0V72H2ZM1 17H20.5387V15H1V17Z" fill="#D6D5D1" mask="url(#path-1-outside-1)"/>
<path d="M132.486 51.926V52.7H133.575V53.6H132.63V59.855H133.359V59.477H135.672V59.801H136.401V53.6H135.447V52.7H136.554V51.926H132.486ZM133.359 58.721V56.66L133.701 56.957C134.106 56.516 134.313 55.814 134.322 54.842V54.338H134.709V55.895C134.709 56.327 134.907 56.552 135.312 56.552H135.672V58.721H133.359ZM133.791 54.338V54.842C133.782 55.562 133.638 56.111 133.359 56.489V54.338H133.791ZM134.268 53.6V52.7H134.754V53.6H134.268ZM135.672 55.931H135.474C135.321 55.931 135.249 55.859 135.249 55.733V54.338H135.672V55.931ZM133.656 57.245V57.974H135.393V57.245H133.656ZM140.622 57.425L139.821 57.155C139.785 57.839 139.749 58.307 139.713 58.541C139.659 58.784 139.524 58.91 139.326 58.91H138.102C137.832 58.892 137.697 58.703 137.697 58.352V55.679H140.118V51.926H136.788V52.7H139.335V54.896H136.887V58.676C136.887 59.342 137.166 59.684 137.742 59.684H139.452C139.884 59.684 140.172 59.54 140.316 59.261C140.442 58.973 140.55 58.361 140.622 57.425ZM143.46 51.665V53.807H142.227V54.617H143.01L143.271 55.562H142.416V56.309H144.063V57.11H142.641V57.857H144.063V58.838C143.505 58.874 142.902 58.901 142.254 58.919L142.371 59.711C144.315 59.612 145.701 59.486 146.547 59.342V58.586C146.079 58.658 145.53 58.721 144.9 58.775V57.857H146.322V57.11H144.9V56.309H146.493V55.562H145.647L145.953 54.617H146.574V53.807H145.512V51.665H144.738V53.807H144.225V51.665H143.46ZM144.054 55.562L143.802 54.617H145.179L144.864 55.562H144.054ZM146.151 51.944C146.007 52.52 145.836 52.988 145.638 53.357L146.304 53.6C146.52 53.168 146.709 52.682 146.862 52.133L146.151 51.944ZM142.758 51.998L142.092 52.214C142.299 52.619 142.488 53.087 142.668 53.609L143.298 53.33C143.145 52.844 142.965 52.403 142.758 51.998ZM146.826 53.402V54.23H148.779V58.775C148.779 59.009 148.653 59.135 148.419 59.135C148.095 59.135 147.753 59.117 147.393 59.081L147.582 59.9H148.716C149.31 59.9 149.607 59.594 149.607 58.991V54.23H150.363V53.402H149.607V51.62H148.779V53.402H146.826ZM147.447 55.094L146.718 55.328C147.042 55.976 147.339 56.714 147.609 57.56L148.329 57.236C148.077 56.48 147.789 55.76 147.447 55.094Z" fill="#A9A8A5"/>
<g clip-path="url(#clip0)">
<path d="M247.5 36C247.505 36.2341 247.439 36.4642 247.31 36.66L247.12 36.96L246.73 37.13C245.02 37.74 243.59 38.29 242.46 38.76C241.77 39.06 241.17 39.33 240.73 39.55C240.368 39.7227 240.031 39.9448 239.73 40.21C239.467 40.5105 239.248 40.8472 239.08 41.21C238.85 41.67 238.57 42.26 238.28 42.95C237.8 44.09 237.28 45.53 236.65 47.22C236.617 47.3336 236.573 47.4441 236.52 47.55C236.421 47.6474 236.31 47.7314 236.19 47.8C235.986 47.935 235.745 48.0047 235.5 48C235.266 48.0047 235.036 47.9385 234.84 47.81C234.731 47.7623 234.63 47.6982 234.54 47.62C234.468 47.4971 234.411 47.3662 234.37 47.23C233.77 45.53 233.22 44.09 232.74 42.96C232.45 42.27 232.17 41.68 231.94 41.22C231.772 40.8573 231.553 40.5205 231.29 40.22C230.988 39.9559 230.652 39.7339 230.29 39.56C229.83 39.34 229.29 39.06 228.55 38.77C227.42 38.29 225.98 37.77 224.28 37.14L223.94 37L223.69 36.67C223.562 36.4701 223.496 36.2371 223.5 36C223.495 35.7659 223.561 35.5358 223.69 35.34L223.88 35L224.28 34.83C225.97 34.27 227.4 33.72 228.5 33.24C229.19 32.94 229.78 32.67 230.24 32.44C230.601 32.2687 230.937 32.0501 231.24 31.79C231.503 31.4895 231.722 31.1528 231.89 30.79C232.12 30.33 232.4 29.79 232.69 29.05C233.17 27.91 233.69 26.48 234.32 24.78L234.5 24.44L234.83 24.19C235.034 24.0675 235.267 24.0027 235.505 24.0027C235.743 24.0027 235.976 24.0675 236.18 24.19L236.5 24.39L236.66 24.77C237.25 26.44 237.82 27.91 238.29 29.04C238.58 29.73 238.86 30.32 239.09 30.78C239.266 31.1381 239.484 31.4738 239.74 31.78C240.043 32.0401 240.379 32.2587 240.74 32.43C241.2 32.66 241.79 32.93 242.48 33.23C243.61 33.71 245.05 34.23 246.75 34.86L247.08 34.99L247.33 35.32C247.453 35.5249 247.512 35.7615 247.5 36Z" fill="#D6D5D1"/>
</g>
<path d="M228.484 52.448C227.8 52.448 227.233 52.601 226.783 52.907C226.306 53.231 226.072 53.672 226.072 54.239C226.072 54.797 226.315 55.229 226.81 55.526C227.008 55.634 227.494 55.805 228.286 56.057C228.997 56.273 229.42 56.417 229.564 56.489C229.969 56.696 230.176 56.975 230.176 57.335C230.176 57.623 230.032 57.848 229.744 58.01C229.456 58.172 229.069 58.262 228.583 58.262C228.043 58.262 227.647 58.163 227.386 57.965C227.098 57.749 226.918 57.38 226.846 56.876H225.874C225.928 57.686 226.216 58.28 226.747 58.658C227.188 58.964 227.8 59.126 228.583 59.126C229.393 59.126 230.023 58.964 230.473 58.64C230.923 58.307 231.148 57.857 231.148 57.281C231.148 56.687 230.869 56.228 230.32 55.895C230.068 55.742 229.501 55.535 228.637 55.265C228.034 55.085 227.665 54.95 227.521 54.869C227.197 54.698 227.044 54.473 227.044 54.185C227.044 53.861 227.179 53.627 227.458 53.483C227.683 53.357 228.007 53.294 228.43 53.294C228.916 53.294 229.276 53.384 229.528 53.573C229.78 53.753 229.942 54.059 230.032 54.473H231.004C230.941 53.771 230.689 53.258 230.239 52.925C229.816 52.601 229.231 52.448 228.484 52.448ZM234.134 52.844L233.18 53.24V54.347H232.316V55.139H233.18V57.839C233.18 58.208 233.261 58.487 233.441 58.685C233.621 58.892 233.918 59 234.314 59H235.079V58.208H234.467C234.35 58.208 234.269 58.172 234.215 58.118C234.161 58.055 234.134 57.965 234.134 57.839V55.139H235.196V54.347H234.134V52.844ZM238.811 54.221C238.235 54.221 237.767 54.32 237.425 54.536C237.029 54.77 236.777 55.148 236.678 55.652L237.623 55.733C237.677 55.472 237.812 55.283 238.028 55.157C238.208 55.049 238.451 54.995 238.748 54.995C239.45 54.995 239.801 55.319 239.801 55.967V56.156L238.757 56.183C238.073 56.201 237.533 56.336 237.155 56.606C236.741 56.885 236.534 57.29 236.534 57.812C236.534 58.199 236.678 58.514 236.975 58.757C237.245 59 237.623 59.126 238.109 59.126C238.523 59.126 238.883 59.045 239.189 58.901C239.459 58.766 239.684 58.577 239.864 58.343V59H240.746V56.03C240.746 55.463 240.602 55.031 240.323 54.734C239.999 54.392 239.495 54.221 238.811 54.221ZM239.801 56.849V57.119C239.801 57.479 239.648 57.785 239.36 58.028C239.072 58.271 238.73 58.397 238.325 58.397C238.082 58.397 237.884 58.334 237.74 58.217C237.587 58.1 237.515 57.956 237.515 57.776C237.515 57.2 237.947 56.894 238.82 56.876L239.801 56.849ZM244.748 54.221C244.46 54.221 244.208 54.302 243.992 54.482C243.812 54.608 243.659 54.797 243.542 55.049V54.347H242.588V59H243.542V56.534C243.542 56.129 243.659 55.796 243.902 55.544C244.127 55.31 244.388 55.193 244.676 55.193C244.892 55.193 245.117 55.22 245.351 55.292V54.338C245.189 54.257 244.982 54.221 244.748 54.221Z" fill="#A9A8A5"/>
<g clip-path="url(#clip1)">
<path d="M329.707 24H328.969C325.836 24.0994 322.87 25.4585 320.724 27.7783C318.578 30.0981 317.427 33.1886 317.525 36.3698C317.623 39.5511 318.961 42.5626 321.246 44.7418C323.53 46.921 326.574 48.0894 329.707 47.99H336.598C337.244 47.99 337.884 47.8607 338.482 47.6096C339.079 47.3584 339.621 46.9902 340.078 46.5261C340.535 46.062 340.898 45.5111 341.145 44.9047C341.393 44.2983 341.52 43.6484 341.52 42.9921V35.2453C341.332 32.1957 340.005 29.334 337.809 27.2442C335.614 25.1544 332.716 23.994 329.707 24ZM325.71 30.9971H329.648C329.909 30.9971 330.159 31.1024 330.344 31.2898C330.529 31.4773 330.632 31.7316 330.632 31.9967C330.632 32.2618 330.529 32.516 330.344 32.7035C330.159 32.8909 329.909 32.9962 329.648 32.9962H325.71C325.449 32.9962 325.199 32.8909 325.014 32.7035C324.83 32.516 324.726 32.2618 324.726 31.9967C324.726 31.7316 324.83 31.4773 325.014 31.2898C325.199 31.1024 325.449 30.9971 325.71 30.9971ZM333.586 40.9929H325.71C325.449 40.9929 325.199 40.8876 325.014 40.7001C324.83 40.5127 324.726 40.2584 324.726 39.9933C324.726 39.7282 324.83 39.474 325.014 39.2865C325.199 39.0991 325.449 38.9937 325.71 38.9937H333.586C333.847 38.9937 334.097 39.0991 334.282 39.2865C334.466 39.474 334.57 39.7282 334.57 39.9933C334.57 40.2584 334.466 40.5127 334.282 40.7001C334.097 40.8876 333.847 40.9929 333.586 40.9929ZM333.586 36.9946H325.71C325.449 36.9946 325.199 36.8893 325.014 36.7018C324.83 36.5143 324.726 36.2601 324.726 35.995C324.726 35.7299 324.83 35.4756 325.014 35.2882C325.199 35.1007 325.449 34.9954 325.71 34.9954H333.586C333.847 34.9954 334.097 35.1007 334.282 35.2882C334.466 35.4756 334.57 35.7299 334.57 35.995C334.57 36.2601 334.466 36.5143 334.282 36.7018C334.097 36.8893 333.847 36.9946 333.586 36.9946Z" fill="#D6D5D1"/>
</g>
<path d="M321.71 51.665V53.807H320.477V54.617H321.26L321.521 55.562H320.666V56.309H322.313V57.11H320.891V57.857H322.313V58.838C321.755 58.874 321.152 58.901 320.504 58.919L320.621 59.711C322.565 59.612 323.951 59.486 324.797 59.342V58.586C324.329 58.658 323.78 58.721 323.15 58.775V57.857H324.572V57.11H323.15V56.309H324.743V55.562H323.897L324.203 54.617H324.824V53.807H323.762V51.665H322.988V53.807H322.475V51.665H321.71ZM322.304 55.562L322.052 54.617H323.429L323.114 55.562H322.304ZM324.401 51.944C324.257 52.52 324.086 52.988 323.888 53.357L324.554 53.6C324.77 53.168 324.959 52.682 325.112 52.133L324.401 51.944ZM321.008 51.998L320.342 52.214C320.549 52.619 320.738 53.087 320.918 53.609L321.548 53.33C321.395 52.844 321.215 52.403 321.008 51.998ZM325.076 53.402V54.23H327.029V58.775C327.029 59.009 326.903 59.135 326.669 59.135C326.345 59.135 326.003 59.117 325.643 59.081L325.832 59.9H326.966C327.56 59.9 327.857 59.594 327.857 58.991V54.23H328.613V53.402H327.857V51.62H327.029V53.402H325.076ZM325.697 55.094L324.968 55.328C325.292 55.976 325.589 56.714 325.859 57.56L326.579 57.236C326.327 56.48 326.039 55.76 325.697 55.094ZM331.208 59.405H332.333V59.783H333.152V56.624H330.389V59.918H331.208V59.405ZM332.333 58.622H331.208V57.407H332.333V58.622ZM330.146 52.7V53.492H333.395V52.7H332.27C332.18 52.367 332.045 51.998 331.865 51.593L331.046 51.818C331.19 52.097 331.325 52.394 331.451 52.7H330.146ZM330.479 54.041V54.788H333.08V54.041H330.479ZM330.479 55.283V56.048H333.08V55.283H330.479ZM333.494 54.176V55.004H335.42V56.255H333.836V59.9H334.673V59.504H337.022V59.9H337.85V56.255H336.248V55.004H338.336V54.176H336.248V52.925C336.941 52.817 337.553 52.646 338.075 52.43L337.652 51.71C336.554 52.124 335.213 52.331 333.62 52.331L333.863 53.096C334.412 53.096 334.934 53.069 335.42 53.024V54.176H333.494ZM334.673 58.712V57.038H337.022V58.712H334.673Z" fill="#A9A8A5"/>
<path d="M40.295 49.602C39.863 50.979 39.206 52.185 38.306 53.211L38.576 54.102C38.864 53.796 39.134 53.481 39.386 53.157V57.936H40.232V51.87C40.574 51.267 40.844 50.628 41.06 49.962L40.295 49.602ZM46.415 49.908H41.15V57.918H41.915V57.405H45.641V57.918H46.415V49.908ZM41.915 56.649V50.646H45.641V56.649H41.915ZM42.23 51.951V52.68H43.427V53.589H42.563V56.208H45.047V53.589H44.156V52.68H45.344V51.951H44.156V51.024H43.427V51.951H42.23ZM44.381 55.56H43.22V54.237H44.381V55.56ZM52.655 49.638H51.791C51.791 49.98 51.782 50.448 51.782 51.051C51.71 53.634 50.459 55.659 48.029 57.135L48.551 57.9C50.441 56.676 51.683 55.128 52.277 53.256C52.961 55.182 54.167 56.73 55.895 57.882L56.462 57.135C54.41 55.875 53.114 54.048 52.592 51.654C52.628 51.096 52.655 50.43 52.655 49.638Z" fill="#F2C611"/>
<path d="M153 32.71V33C153 37.54 148.21 42.51 144.2 45.88C143.302 46.6283 142.169 47.0381 141 47.0381C139.831 47.0381 138.698 46.6283 137.8 45.88C133.79 42.48 129 37.51 129 33V32.71C129.001 30.9591 129.677 29.2759 130.888 28.0111C132.099 26.7463 133.751 25.9973 135.5 25.92C136.626 25.9355 137.729 26.249 138.695 26.8286C139.661 27.4082 140.456 28.2333 141 29.22C141.544 28.2333 142.339 27.4082 143.305 26.8286C144.271 26.249 145.374 25.9355 146.5 25.92C148.249 25.9973 149.901 26.7463 151.112 28.0111C152.323 29.2759 152.999 30.9591 153 32.71Z" fill="#D6D5D1"/>
<g clip-path="url(#clip2)" filter="url(#filter0_d)">
<path d="M47 30C50.866 30 54 26.866 54 23C54 19.134 50.866 16 47 16C43.134 16 40 19.134 40 23C40 26.866 43.134 30 47 30Z" fill="#F2C611"/>
<path d="M57.5 42.8333C57.5103 42.9892 57.4872 43.1455 57.4322 43.2917C57.3772 43.4379 57.2916 43.5707 57.1812 43.6812C57.0707 43.7917 56.9379 43.8772 56.7917 43.9322C56.6455 43.9872 56.4892 44.0103 56.3333 44H37.55C37.4033 43.9957 37.2591 43.9617 37.1259 43.9C36.9928 43.8384 36.8736 43.7504 36.7754 43.6413C36.6773 43.5323 36.6023 43.4044 36.5549 43.2655C36.5076 43.1267 36.4889 42.9796 36.5 42.8333C36.5 40.0486 37.6062 37.3779 39.5754 35.4087C41.5445 33.4396 44.2152 32.3333 47 32.3333C49.7848 32.3333 52.4555 33.4396 54.4246 35.4087C56.3938 37.3779 57.5 40.0486 57.5 42.8333Z" fill="#F2C611"/>
</g>
<defs>
<filter id="filter0_d" x="29" y="12" width="36" height="36" filterUnits="userSpaceOnUse" color-interpolation-filters="sRGB">
<feFlood flood-opacity="0" result="BackgroundImageFix"/>
<feColorMatrix in="SourceAlpha" type="matrix" values="0 0 0 0 0 0 0 0 0 0 0 0 0 0 0 0 0 0 127 0"/>
<feOffset/>
<feGaussianBlur stdDeviation="2"/>
<feColorMatrix type="matrix" values="0 0 0 0 0.9625 0 0 0 0 0.815843 0 0 0 0 0.212552 0 0 0 1 0"/>
<feBlend mode="normal" in2="BackgroundImageFix" result="effect1_dropShadow"/>
<feBlend mode="normal" in="SourceGraphic" in2="effect1_dropShadow" result="shape"/>
</filter>
<clipPath id="clip0">
<rect width="24" height="24" fill="white" transform="translate(223.5 24)"/>
</clipPath>
<clipPath id="clip1">
<rect width="24" height="24" fill="white" transform="translate(317.5 24)"/>
</clipPath>
<clipPath id="clip2">
<rect width="28" height="28" fill="white" transform="translate(33 16)"/>
</clipPath>
</defs>
</svg>
