<svg width="22" height="36" viewBox="0 0 22 36" fill="none" xmlns="http://www.w3.org/2000/svg">
<path d="M22 8.95654C22 13.711 17.0751 17.5652 11 17.5652C9.56522 17.5652 7.65217 17.087 7.65217 17.087C7.65217 17.087 2.94718 19 1.43478 19C-1.43478 19 4.30435 16.1304 3.34783 15.1739C0.956522 13.2609 0 11.6609 0 8.95654C0 4.20208 4.92487 0.347839 11 0.347839C17.0751 0.347839 22 4.20208 22 8.95654Z" fill="#BDBDBD"/>
<path d="M4.01 24.98H1.17V25.58H4.01V24.98ZM4.37 26.29H0.67V26.9H4.37V26.29ZM4.03 27.64H1.13V28.23H4.03V27.64ZM1.13 29.56H4.03V28.96H1.13V29.56ZM3.4 30.91V32.59H1.77V30.91H3.4ZM4.04 33.19V30.3H1.12V33.65H1.77V33.19H4.04ZM4.5 25.14V25.84H5.75V27.93C5.75 28.13 5.75 28.33 5.74 28.53H4.39V29.23H5.71C5.59 30.63 5.21 32.08 4.02 33.27C4.18 33.38 4.44 33.64 4.55 33.78C5.91 32.45 6.31 30.81 6.42 29.23H7.72V28.53H6.45C6.46 28.33 6.46 28.13 6.46 27.94V25.84H8.05C8.05 30.1 8.02 33.37 9.14 33.71C9.64 33.91 9.97 33.57 10.09 31.92C9.96 31.83 9.76 31.57 9.62 31.39C9.59 32.23 9.51 32.97 9.43 32.95C8.74 32.79 8.77 29.37 8.81 25.14H4.5ZM19.13 26.85H14.49V26.04H19.13V26.85ZM19.13 28.25H14.49V27.42H19.13V28.25ZM19.13 29.64H14.49V28.81H19.13V29.64ZM19.88 25.45H16.86C16.99 25.22 17.13 24.95 17.27 24.68L16.41 24.53C16.34 24.78 16.2 25.15 16.08 25.45H13.77V30.23H19.88V25.45ZM15.78 30.73C16.36 31.14 17 31.74 17.29 32.19L17.86 31.76C17.56 31.31 16.91 30.74 16.33 30.36L15.78 30.73ZM12.76 33.43C13.42 32.89 13.81 32.03 14.05 31.25L13.41 31.01C13.19 31.73 12.77 32.54 12.16 33.01L12.76 33.43ZM16.11 33.04C15.57 33.04 15.49 32.99 15.49 32.73V31.09H14.76V32.73C14.76 33.5 15.03 33.7 16.06 33.7H18C18.83 33.7 19.05 33.44 19.15 32.34C18.95 32.29 18.64 32.19 18.47 32.08C18.44 32.92 18.37 33.04 17.95 33.04H16.11ZM18.99 31.28C19.71 31.91 20.46 32.81 20.77 33.43L21.4 33.02C21.08 32.38 20.3 31.52 19.57 30.91L18.99 31.28Z" fill="#828282"/>
</svg>
