<svg width="25" height="38" viewBox="0 0 25 38" fill="none" xmlns="http://www.w3.org/2000/svg">
<g clip-path="url(#clip0)">
<path d="M24.5 8.71004V9.00004C24.5 13.54 19.71 18.51 15.7 21.88C14.8016 22.6284 13.6693 23.0382 12.5 23.0382C11.3307 23.0382 10.1984 22.6284 9.3 21.88C5.29 18.48 0.5 13.51 0.5 9.00004V8.71004C0.50087 6.9591 1.17712 5.27596 2.38792 4.01114C3.59872 2.74631 5.25076 1.99729 7 1.92004C8.12649 1.93552 9.2288 2.24901 10.1948 2.82864C11.1609 3.40827 11.9562 4.23336 12.5 5.22004C13.0438 4.23336 13.8391 3.40827 14.8052 2.82864C15.7712 2.24901 16.8735 1.93552 18 1.92004C19.7492 1.99729 21.4013 2.74631 22.6121 4.01114C23.8229 5.27596 24.4991 6.9591 24.5 8.71004Z" fill="#D6D5D1"/>
</g>
<path d="M5.844 29.465H5.313V28.421H5.844V29.465ZM6.789 31.841L6.753 31.814C6.744 31.841 6.717 31.841 6.627 31.841H6.303C6.186 31.841 6.177 31.832 6.177 31.715V30.032H6.789V31.841ZM4.305 34.496V33.569H6.789V34.496H4.305ZM4.926 30.032V30.743C4.926 31.22 4.836 31.805 4.314 32.264C4.395 32.309 4.548 32.444 4.611 32.525C5.169 32.012 5.295 31.301 5.295 30.752V30.032H5.799V31.715C5.799 32.147 5.907 32.237 6.258 32.237H6.69C6.726 32.237 6.762 32.237 6.789 32.228V33.065H4.305V30.032H4.926ZM3.54 28.421H4.836V29.465H3.765V35.657H4.305V35.036H6.789V35.531H7.338V29.465H6.33V28.421H7.545V27.818H3.54V28.421ZM9.165 34.964C8.751 34.964 8.67 34.901 8.67 34.568V31.328H10.695V31.931H11.352V27.872H7.977V28.52H10.695V30.689H8.013V34.568C8.013 35.387 8.265 35.594 9.093 35.594H10.587C11.406 35.594 11.595 35.189 11.685 33.731C11.496 33.686 11.217 33.56 11.064 33.443C11.019 34.739 10.947 34.964 10.551 34.964H9.165ZM17.205 27.683C17.043 28.106 16.728 28.736 16.503 29.123L16.962 29.33C17.214 28.97 17.52 28.403 17.799 27.917L17.205 27.683ZM14.388 29.069C14.298 28.709 14.019 28.151 13.74 27.728L13.254 27.944C13.524 28.367 13.794 28.943 13.884 29.312L14.388 29.069ZM16.404 31.319H14.451L14.928 31.148C14.865 30.824 14.667 30.32 14.433 29.951L13.911 30.131C14.118 30.509 14.316 30.995 14.37 31.319H13.497V31.886H15.144V32.804H13.722V33.362H15.144V34.424C14.406 34.523 13.731 34.604 13.191 34.667L13.29 35.297C14.433 35.144 16.116 34.91 17.682 34.685L17.664 34.091L15.765 34.343V33.362H17.241V32.804H15.765V31.886H17.43V31.319H16.476C16.647 31.004 16.863 30.536 17.052 30.113L16.449 29.933C16.332 30.302 16.116 30.842 15.936 31.184L16.404 31.319ZM21.363 29.87H20.409V27.53H19.761V29.87H17.754V29.375H16.35V27.512H15.792V29.375H15.108V27.512H14.559V29.375H13.164V29.933H17.655V30.5H19.761V34.865C19.761 35.018 19.707 35.072 19.554 35.072C19.41 35.081 18.915 35.081 18.375 35.063C18.474 35.234 18.582 35.522 18.618 35.693C19.347 35.693 19.779 35.675 20.049 35.576C20.301 35.459 20.409 35.27 20.409 34.865V30.5H21.363V29.87ZM19.329 33.245C19.23 32.696 18.879 31.859 18.501 31.211L17.943 31.409C18.312 32.066 18.645 32.921 18.735 33.461L19.329 33.245Z" fill="#A9A8A5"/>
<defs>
<clipPath id="clip0">
<rect width="24" height="24" fill="white" transform="translate(0.5)"/>
</clipPath>
</defs>
</svg>
