<svg id="Kid_avatar" height="512" viewBox="0 0 64 64" width="512" xmlns="http://www.w3.org/2000/svg" data-name="Kid avatar"><path d="m19 30h-2.5a3.5 3.5 0 0 1 -3.5-3.5 3.5 3.5 0 0 1 3.5-3.5h2.5z" fill="#ffcbbe"/><path d="m45 30h2.5a3.5 3.5 0 0 0 3.5-3.5 3.5 3.5 0 0 0 -3.5-3.5h-2.5z" fill="#ffcbbe"/><path d="m50 61h-36l.43-8.6a12 12 0 0 1 11.985-11.4h11.17a12 12 0 0 1 11.985 11.4z" fill="#ec455a"/><path d="m23 50v11h-9l.43-8.6a11.942 11.942 0 0 1 3.88-8.25 6 6 0 0 1 4.69 5.85z" fill="#ffcbbe"/><path d="m50 61h-9v-11a6 6 0 0 1 4.69-5.85 11.942 11.942 0 0 1 3.88 8.25z" fill="#ffcbbe"/><path d="m42.49 46.05a11.836 11.836 0 0 0 -4.9-1.05h-11.18a11.836 11.836 0 0 0 -4.9 1.05 5.915 5.915 0 0 0 -3.2-1.9 11.964 11.964 0 0 1 8.1-3.15h11.18a11.964 11.964 0 0 1 8.1 3.15 5.915 5.915 0 0 0 -3.2 1.9z" fill="#b4cdf8"/><circle cx="32" cy="41" fill="#ffcbbe" r="6"/><path d="m32 42a14 14 0 0 1 -14-14v-13l6-5h16l6 5v13a14 14 0 0 1 -14 14z" fill="#ffddce"/><path d="m47 11 1 12h-2l-3-9-.789 1.578a8 8 0 0 1 -7.155 4.422h-5.29a8 8 0 0 1 -7.589-5.47l-.177-.53-4 9h-2l1-11-1-6 3 2 1-5 7 3 3-3 3 3 4-3 1 5 5-5 1 5 4-3z" fill="#3e3d42"/><path d="m40.51 40.34a15.051 15.051 0 0 0 6.19-9.34h.8a4.507 4.507 0 0 0 4.5-4.5 4.4 4.4 0 0 0 -1.32-3.17 4.26 4.26 0 0 0 -1.13-.81l-1.54-11.5.98-5.86a1 1 0 0 0 -1.59-.96l-2.73 2.05-.69-3.45a1.006 1.006 0 0 0 -.69-.76 1 1 0 0 0 -1 .25l-3.68 3.68-.63-3.17a1 1 0 0 0 -.62-.73.978.978 0 0 0 -.96.13l-3.31 2.48-2.38-2.39a1.008 1.008 0 0 0 -1.42 0l-2.52 2.52-6.38-2.73a.967.967 0 0 0 -.86.04.989.989 0 0 0 -.51.68l-.71 3.54-1.76-1.17a1 1 0 0 0 -1.54.99l.98 5.86-1.39 10.42a4.258 4.258 0 0 0 -1.27.88 4.406 4.406 0 0 0 -1.33 3.18 4.507 4.507 0 0 0 4.5 4.5h.8a15.051 15.051 0 0 0 6.19 9.34 13.082 13.082 0 0 0 -10.06 12.01l-.43 8.6a1.025 1.025 0 0 0 .28.74.975.975 0 0 0 .72.31h36a.975.975 0 0 0 .72-.31 1.025 1.025 0 0 0 .28-.74l-.43-8.6a13.082 13.082 0 0 0 -10.06-12.01zm3.17 3.53a7.233 7.233 0 0 0 -1.43 1.01 12.676 12.676 0 0 0 -3.95-.84 7.148 7.148 0 0 0 .61-1.95 10.912 10.912 0 0 1 4.77 1.78zm5.59-19.13a2.465 2.465 0 0 1 .73 1.76 2.5 2.5 0 0 1 -2.5 2.5h-.55c.02-.33.05-.66.05-1v-4h.5a2.474 2.474 0 0 1 1.77.74zm-32.77 4.26a2.5 2.5 0 0 1 -2.5-2.5 2.509 2.509 0 0 1 2.5-2.5h.5v4c0 .34.03.67.05 1zm.17-7 1.32-9.87a1.4 1.4 0 0 0 0-.29l-.62-3.73 1.08.72a1 1 0 0 0 1.53-.63l.76-3.8 5.87 2.52a1 1 0 0 0 1.1-.21l2.29-2.3 2.29 2.3a1 1 0 0 0 1.31.09l2.73-2.05.69 3.45a1.006 1.006 0 0 0 .69.76 1 1 0 0 0 1-.25l3.68-3.68.63 3.17a1 1 0 0 0 .62.73.978.978 0 0 0 .96-.13l2-1.5-.59 3.54a1.4 1.4 0 0 0 0 .29l1.45 10.87h-.74l-2.77-8.32a1.016 1.016 0 0 0 -.88-.68.986.986 0 0 0 -.96.55l-.8 1.58a6.924 6.924 0 0 1 -6.25 3.87h-5.29a6.978 6.978 0 0 1 -6.64-4.79l-.18-.53a1.012 1.012 0 0 0 -.9-.68.951.951 0 0 0 -.96.59l-3.74 8.41zm2.33 6v-4.79l2.98-6.7a8.99 8.99 0 0 0 7.79 4.49h5.29a8.945 8.945 0 0 0 7.75-4.42l2.19 6.58v4.84a13 13 0 0 1 -26 0zm17.84 14.18a4.976 4.976 0 0 1 -9.68 0 14.694 14.694 0 0 0 9.68 0zm-11.75-.09a7.148 7.148 0 0 0 .61 1.95 12.676 12.676 0 0 0 -3.95.84 7.233 7.233 0 0 0 -1.43-1.01 10.912 10.912 0 0 1 4.77-1.78zm-3.09 17.91h-6.95l.38-7.55a10.949 10.949 0 0 1 3.18-7.16 5.011 5.011 0 0 1 3.39 4.71zm18-10v10h-16v-10a6.95 6.95 0 0 0 -.94-3.48 11.017 11.017 0 0 1 3.35-.52h.7a6.978 6.978 0 0 0 9.78 0h.7a11.017 11.017 0 0 1 3.35.52 6.95 6.95 0 0 0 -.94 3.48zm2 10v-10a5.011 5.011 0 0 1 3.39-4.71 10.949 10.949 0 0 1 3.18 7.16l.38 7.55z"/><path d="m26 29a1 1 0 0 0 1-1v-2a1 1 0 0 0 -2 0v2a1 1 0 0 0 1 1z"/><path d="m38 29a1 1 0 0 0 1-1v-2a1 1 0 0 0 -2 0v2a1 1 0 0 0 1 1z"/><path d="m39 32h-2c0 1.626-2.29 3-5 3s-5-1.374-5-3h-2c0 2.8 3.075 5 7 5s7-2.2 7-5z"/></svg>