<svg id="Kid_avatar" height="512" viewBox="0 0 64 64" width="512" xmlns="http://www.w3.org/2000/svg" data-name="Kid avatar"><path d="m19 30h-2.5a3.5 3.5 0 0 1 -3.5-3.5 3.5 3.5 0 0 1 3.5-3.5h2.5z" fill="#ffcbbe"/><path d="m45 30h2.5a3.5 3.5 0 0 0 3.5-3.5 3.5 3.5 0 0 0 -3.5-3.5h-2.5z" fill="#ffcbbe"/><path d="m50 61h-36l.43-8.6a12 12 0 0 1 11.985-11.4h11.17a12 12 0 0 1 11.985 11.4z" fill="#ec455a"/><circle cx="32" cy="41" fill="#ffcbbe" r="6"/><path d="m32 42a14 14 0 0 1 -14-14v-13l6-5h16l6 5v13a14 14 0 0 1 -14 14z" fill="#ffddce"/><path d="m23 50v11h-9l.43-8.6a11.942 11.942 0 0 1 3.88-8.25 6 6 0 0 1 4.69 5.85z" fill="#ffcbbe"/><path d="m50 61h-9v-11a6 6 0 0 1 4.69-5.85 11.942 11.942 0 0 1 3.88 8.25z" fill="#ffcbbe"/><path d="m40.445 5.605a6.982 6.982 0 0 0 -5.445-2.605h-21v1a5.968 5.968 0 0 0 2.728 5h-2.728a4.984 4.984 0 0 0 3.61 4.78 14.877 14.877 0 0 0 -.61 4.22v4h1l4-7h19l5 7h1v-4a14.982 14.982 0 0 0 -6.555-12.395z" fill="#2d2d30"/><rect fill="#ec455a" height="7" rx="1" width="32" x="16" y="15"/><path d="m40.51 40.34a15.051 15.051 0 0 0 6.19-9.34h.8a4.507 4.507 0 0 0 4.5-4.5 4.488 4.488 0 0 0 -3.38-4.34 1.964 1.964 0 0 0 .38-1.16v-5a2 2 0 0 0 -1.51-1.93 15.792 15.792 0 0 0 -6.37-9.2 7.911 7.911 0 0 0 -6.12-2.87h-21a1 1 0 0 0 -1 1v1a6.893 6.893 0 0 0 1.27 4h-.27a1 1 0 0 0 -1 1 5.923 5.923 0 0 0 3.11 5.22 1.987 1.987 0 0 0 -1.11 1.78v5a1.964 1.964 0 0 0 .38 1.16 4.294 4.294 0 0 0 -2.05 1.16 4.406 4.406 0 0 0 -1.33 3.18 4.507 4.507 0 0 0 4.5 4.5h.8a15.051 15.051 0 0 0 6.19 9.34 13.082 13.082 0 0 0 -10.06 12.01l-.43 8.6a1.025 1.025 0 0 0 .28.74.975.975 0 0 0 .72.31h36a.975.975 0 0 0 .72-.31 1.025 1.025 0 0 0 .28-.74l-.43-8.6a13.082 13.082 0 0 0 -10.06-12.01zm6.99-16.34a2.509 2.509 0 0 1 2.5 2.5 2.5 2.5 0 0 1 -2.5 2.5h-.55c.02-.33.05-.66.05-1v-4zm-32.37-14h1.6a1 1 0 0 0 .55-1.84 4.949 4.949 0 0 1 -2.28-4.16h20a5.955 5.955 0 0 1 4.66 2.24 1.416 1.416 0 0 0 .22.2 13.794 13.794 0 0 1 5.53 7.56h-26.84a1 1 0 0 0 -.08-.7 1.029 1.029 0 0 0 -.6-.48 3.984 3.984 0 0 1 -2.76-2.82zm1.37 19a2.5 2.5 0 0 1 -2.5-2.5 2.509 2.509 0 0 1 2.5-2.5h.5v4c0 .34.03.67.05 1zm.5-8v-5h30v5zm2 7v-5h26v5a13 13 0 0 1 -26 0zm17.84 14.18a4.976 4.976 0 0 1 -9.68 0 14.694 14.694 0 0 0 9.68 0zm-14.84 17.82h-6.95l.38-7.55a10.949 10.949 0 0 1 3.18-7.16 5 5 0 0 1 3.39 4.71zm18 0h-16v-10a7.025 7.025 0 0 0 -3.68-6.13 10.912 10.912 0 0 1 4.77-1.78 6.995 6.995 0 0 0 13.82 0 10.912 10.912 0 0 1 4.77 1.78 7.025 7.025 0 0 0 -3.68 6.13zm2 0v-10a5.011 5.011 0 0 1 3.39-4.71 10.949 10.949 0 0 1 3.18 7.16l.38 7.55z"/><path d="m26 29a1 1 0 0 0 1-1v-2a1 1 0 0 0 -2 0v2a1 1 0 0 0 1 1z"/><path d="m38 29a1 1 0 0 0 1-1v-2a1 1 0 0 0 -2 0v2a1 1 0 0 0 1 1z"/><path d="m39 32h-2c0 1.626-2.29 3-5 3s-5-1.374-5-3h-2c0 2.8 3.075 5 7 5s7-2.2 7-5z"/></svg>