<svg id="Kid_avatar" height="512" viewBox="0 0 64 64" width="512" xmlns="http://www.w3.org/2000/svg" data-name="Kid avatar"><path d="m19 30h-2.5a3.5 3.5 0 0 1 -3.5-3.5 3.5 3.5 0 0 1 3.5-3.5h2.5z" fill="#ffcbbe"/><path d="m45 30h2.5a3.5 3.5 0 0 0 3.5-3.5 3.5 3.5 0 0 0 -3.5-3.5h-2.5z" fill="#ffcbbe"/><path d="m50 61h-36l.43-8.6a12 12 0 0 1 11.985-11.4h11.17a12 12 0 0 1 11.985 11.4z" fill="#48a3d2"/><g fill="#ffcbbe"><path d="m14 61h7l1-9h-7.54z"/><path d="m49.54 52h-7.54l1 9h7z"/><path d="m38 40c0 1.883-1.938 4.856-3.611 7.071a2.994 2.994 0 0 1 -4.778 0c-1.673-2.215-3.611-5.188-3.611-7.071a6 6 0 0 1 12 0z"/></g><path d="m32 42a14 14 0 0 1 -14-14v-13l6-5h16l6 5v13a14 14 0 0 1 -14 14z" fill="#ffddce"/><path d="m48 23h-2l-.714-3.569a8 8 0 0 0 -7.844-6.431l-11.362 5.917a2 2 0 0 1 -2.821-1.141l-1.259-3.776-2 3-2 6h-2v-8a12 12 0 0 1 12-12h8a12 12 0 0 1 12 12z" fill="#2d2d30"/><path d="m40.5 40.34a15 15 0 0 0 6.2-9.34h.8a4.507 4.507 0 0 0 4.5-4.5 4.4 4.4 0 0 0 -1.32-3.17 4.442 4.442 0 0 0 -1.68-1.06v-7.27a13.012 13.012 0 0 0 -13-13h-8a13.012 13.012 0 0 0 -13 13v7.27a4.5 4.5 0 0 0 -3 4.23 4.507 4.507 0 0 0 4.5 4.5h.8a15.024 15.024 0 0 0 6.19 9.34 13.063 13.063 0 0 0 -10.06 12.01l-.43 8.6a1.025 1.025 0 0 0 .28.74.975.975 0 0 0 .72.31h36a.975.975 0 0 0 .72-.31 1.025 1.025 0 0 0 .28-.74l-.43-8.6a13.07 13.07 0 0 0 -10.07-12.01zm8.77-15.6a2.465 2.465 0 0 1 .73 1.76 2.5 2.5 0 0 1 -2.5 2.5h-.55c.02-.33.05-.66.05-1v-4h.5a2.474 2.474 0 0 1 1.77.74zm-32.77 4.26a2.5 2.5 0 0 1 -2.5-2.5 2.509 2.509 0 0 1 2.5-2.5h.5v4c0 .34.03.67.05 1zm.78-7h-.28v-7a11.007 11.007 0 0 1 11-11h8a11.007 11.007 0 0 1 11 11v7h-.18l-.55-2.76a9.024 9.024 0 0 0 -8.83-7.24 1.039 1.039 0 0 0 -.46.11l-11.36 5.92a.989.989 0 0 1 -.84.04.959.959 0 0 1 -.57-.61l-1.26-3.78a1 1 0 0 0 -.82-.67.989.989 0 0 0 -.96.44l-2 3a1.008 1.008 0 0 0 -.12.23zm1.72 6v-4.84l1.91-5.72.79-1.18.61 1.83a3 3 0 0 0 4.23 1.71l11.14-5.8a7.03 7.03 0 0 1 6.63 5.63l.69 3.47v4.9a13 13 0 0 1 -26 0zm17.65 14.25c-.79 2.86-2.77 5.75-4.65 5.75s-3.87-2.89-4.65-5.75a14.79 14.79 0 0 0 9.3 0zm-16.54 17.75h-5.06l.35-7h5.48zm21.77 0h-19.76l.87-7.89a.968.968 0 0 0 -.24-.78 1.022 1.022 0 0 0 -.75-.33h-6.39a11.042 11.042 0 0 1 9.64-8.93c.79 3.61 3.44 7.93 6.75 7.93 3.36 0 5.96-4.27 6.75-7.93a11.053 11.053 0 0 1 9.64 8.93h-6.39a1.022 1.022 0 0 0 -.75.33.968.968 0 0 0 -.24.78zm2.01 0-.77-7h5.48l.35 7z"/><path d="m26 27a1 1 0 0 0 1-1v-2a1 1 0 0 0 -2 0v2a1 1 0 0 0 1 1z"/><path d="m38 27a1 1 0 0 0 1-1v-2a1 1 0 0 0 -2 0v2a1 1 0 0 0 1 1z"/><path d="m39 32c0 2.8-3.07 5-7 5s-7-2.2-7-5h2c0 1.63 2.29 3 5 3s5-1.37 5-3z"/></svg>