<svg id="Kid_avatar" height="512" viewBox="0 0 64 64" width="512" xmlns="http://www.w3.org/2000/svg" data-name="Kid avatar"><path d="m19 30h-2.5a3.5 3.5 0 0 1 -3.5-3.5 3.5 3.5 0 0 1 3.5-3.5h2.5z" fill="#ffcbbe"/><path d="m45 30h2.5a3.5 3.5 0 0 0 3.5-3.5 3.5 3.5 0 0 0 -3.5-3.5h-2.5z" fill="#ffcbbe"/><path d="m50 61h-36l.43-8.6a12 12 0 0 1 11.985-11.4h11.17a12 12 0 0 1 11.985 11.4z" fill="#365e7d"/><path d="m40.88 41.46a9 9 0 0 1 -17.76 0 11.939 11.939 0 0 1 3.29-.46h11.18a11.939 11.939 0 0 1 3.29.46z" fill="#ececec"/><circle cx="32" cy="40" fill="#ffcbbe" r="6"/><path d="m32 42a14 14 0 0 1 -14-14v-13l6-3h16l6 3v13a14 14 0 0 1 -14 14z" fill="#ffddce"/><path d="m47 18v1h-30v-1a15 15 0 0 1 30 0z" fill="#5bcbfa"/><path d="m48 16.563v2.953a2 2 0 0 1 -2.384 1.963 73.068 73.068 0 0 0 -13.616-1.479 73.068 73.068 0 0 0 -13.616 1.479 2 2 0 0 1 -2.384-1.963v-2.995a2 2 0 0 1 1.528-1.944 61.594 61.594 0 0 1 14.472-1.577 67.111 67.111 0 0 1 14.455 1.615 1.993 1.993 0 0 1 1.545 1.948z" fill="#3780ea"/><g fill="#6cb1e8"><path d="m28 13.11v7.041c1.308-.094 2.654-.151 4-.151v-7c-1.417 0-2.749.042-4 .11z"/><path d="m20 14.047v7.128c1.162-.208 2.514-.424 4-.616v-7.111c-1.544.178-2.88.39-4 .599z"/><path d="m36 13.13v7.021c1.4.1 2.738.245 4 .408v-7.059c-1.234-.15-2.576-.28-4-.37z"/><path d="m46.455 14.615c-.643-.146-1.472-.322-2.455-.5v7.063c.587.106 1.141.209 1.616.3a2 2 0 0 0 2.384-1.962v-2.953a1.993 1.993 0 0 0 -1.545-1.948z"/></g><path d="m40.5 40.34a15 15 0 0 0 6.2-9.34h.8a4.507 4.507 0 0 0 4.5-4.5 4.511 4.511 0 0 0 -4.37-4.49 2.463 2.463 0 0 0 .27-.17 2.985 2.985 0 0 0 1.1-2.32v-2.96a2.95 2.95 0 0 0 -1.53-2.6 15.987 15.987 0 0 0 -30.93-.05 2.987 2.987 0 0 0 -1.54 2.61v3a2.985 2.985 0 0 0 1.1 2.32 1.452 1.452 0 0 0 .26.17 4.511 4.511 0 0 0 -4.36 4.49 4.507 4.507 0 0 0 4.5 4.5h.8a15.024 15.024 0 0 0 6.19 9.34 13.053 13.053 0 0 0 -10.06 12.01l-.43 8.6a1.025 1.025 0 0 0 .28.74.975.975 0 0 0 .72.31h36a.975.975 0 0 0 .72-.31 1.025 1.025 0 0 0 .28-.74l-.43-8.6a13.059 13.059 0 0 0 -10.07-12.01zm7-16.34a2.509 2.509 0 0 1 2.5 2.5 2.5 2.5 0 0 1 -2.5 2.5h-.55c.02-.33.05-.66.05-1v-4zm-.5-7.44v2.96a1.007 1.007 0 0 1 -1.19.98c-.25-.05-.52-.1-.81-.16v-5.02l1.23.27a.987.987 0 0 1 .77.97zm-15-12.56a14.05 14.05 0 0 1 13.19 9.32 68.625 68.625 0 0 0 -13.19-1.32 65.148 65.148 0 0 0 -13.17 1.26 13.924 13.924 0 0 1 13.17-9.26zm11 10.95v5.04c-.62-.1-1.29-.21-2-.31v-5.04c.71.1 1.38.2 2 .31zm-4-.56v5.04c-.65-.07-1.32-.14-2-.2v-5.03c.69.06 1.36.12 2 .19zm-4-.31v5.01c-.66-.04-1.33-.07-2-.08v-5c.68.01 1.35.03 2 .07zm-4-.07v5c-.67.01-1.34.04-2 .08v-5.03c.65-.02 1.31-.04 2-.05zm-4 .16v5.06c-.68.06-1.35.13-2 .2v-5.08c.64-.07 1.3-.13 2-.18zm-4 .41v5.1c-.71.1-1.38.21-2 .31v-5.11c.61-.1 1.28-.2 2-.3zm-6.5 14.42a2.5 2.5 0 0 1 -2.5-2.5 2.509 2.509 0 0 1 2.5-2.5h.5v4c0 .34.03.67.05 1zm.87-8.71a.971.971 0 0 1 -.37-.77v-3a1 1 0 0 1 .77-.97c.35-.09.76-.18 1.23-.28v5.07c-.29.06-.56.11-.81.16a.967.967 0 0 1 -.82-.21zm1.63 7.71v-5.62a71.852 71.852 0 0 1 13-1.38 71.852 71.852 0 0 1 13 1.38v5.62a13 13 0 0 1 -26 0zm13 19a7 7 0 0 0 6.69-4.93 8.458 8.458 0 0 1 .99.15 7.99 7.99 0 0 1 -15.36-.01c.33-.06.66-.11.99-.14a7 7 0 0 0 6.69 4.93zm-4.42-4.67a14.914 14.914 0 0 0 8.84 0 4.994 4.994 0 0 1 -8.84 0zm-12.53 17.67.38-7.55a11.067 11.067 0 0 1 6.97-9.68 9.99 9.99 0 0 0 19.2.01 11.025 11.025 0 0 1 6.97 9.67l.38 7.55z"/><path d="m26 27a1 1 0 0 0 1-1v-2a1 1 0 0 0 -2 0v2a1 1 0 0 0 1 1z"/><path d="m38 27a1 1 0 0 0 1-1v-2a1 1 0 0 0 -2 0v2a1 1 0 0 0 1 1z"/><path d="m39 32h-2c0 1.626-2.29 3-5 3s-5-1.374-5-3h-2c0 2.8 3.075 5 7 5s7-2.2 7-5z"/></svg>