<?xml version="1.0" encoding="UTF-8"?>
<svg xmlns="http://www.w3.org/2000/svg" id="Kid_avatar" data-name="Kid avatar" viewBox="0 0 64 64" width="512" height="512"><path d="M44.275,43.047C48.259,36.554,51,28.25,51,22.5,51,11.73,41.389,3,32,3S13,11.73,13,22.5c0,5.75,2.741,14.054,6.725,20.547a11.979,11.979,0,0,0-5.3,9.354L14,61H50l-.43-8.6A11.979,11.979,0,0,0,44.275,43.047Z" style="fill:#ec455a"/><path d="M42,40c0,3.314-6.686,10-10,10S22,43.314,22,40s6.686-6,10-6S42,36.686,42,40Z" style="fill:#3e3d42"/><circle cx="32" cy="40" r="6" style="fill:#ffcbbe"/><path d="M32,42h0A14,14,0,0,1,18,28V21l1-1.163A16.713,16.713,0,0,1,31.688,14h.71A16.716,16.716,0,0,1,46,21h0v7A14,14,0,0,1,32,42Z" style="fill:#ffddce"/><path d="M30.86,14.02,33,19l2.05-4.78A15.538,15.538,0,0,0,32.4,14h-.71c-.28,0-.56.01-.83.02-.11.01-.21.01-.31.02a16.475,16.475,0,0,0-4.97,1.12L28,20l2.55-5.96" style="fill:#3e3d42"/><path d="M45.6,42.78C49.45,36.21,52,28.17,52,22.5,52,12.82,43.45,2,32,2S12,12.82,12,22.5c0,5.67,2.55,13.71,6.4,20.28a12.849,12.849,0,0,0-4.97,9.57L13,60.95a1.025,1.025,0,0,0,.28.74A.975.975,0,0,0,14,62H50a.975.975,0,0,0,.72-.31,1.025,1.025,0,0,0,.28-.74l-.43-8.6A12.849,12.849,0,0,0,45.6,42.78ZM15.05,60l.38-7.55a10.888,10.888,0,0,1,4.85-8.57,1,1,0,0,0,.3-1.36C16.64,36.11,14,28.06,14,22.5,14,11.91,23.5,4,32,4s18,7.91,18,18.5c0,5.56-2.64,13.61-6.58,20.02a1,1,0,0,0,.3,1.36,10.888,10.888,0,0,1,4.85,8.57L48.95,60Z"/><path d="M26,27a1,1,0,0,0,1-1V24a1,1,0,0,0-2,0v2A1,1,0,0,0,26,27Z"/><path d="M38,27a1,1,0,0,0,1-1V24a1,1,0,0,0-2,0v2A1,1,0,0,0,38,27Z"/><path d="M47,21a1,1,0,0,0-.19-.58A17.716,17.716,0,0,0,32.4,13h-.71a17.666,17.666,0,0,0-13.45,6.19l-1,1.16A.969.969,0,0,0,17,21v7a14.9,14.9,0,0,0,4.33,10.52A3.738,3.738,0,0,0,21,40c0,3.32,5.12,8.93,9.06,10.54a1.857,1.857,0,0,0-.05.34l-.25.12A4.979,4.979,0,0,0,27,55.47V56h2v-.53a2.988,2.988,0,0,1,1.66-2.68l.24-.12a2,2,0,0,0,2.2,0l.24.12A2.988,2.988,0,0,1,35,55.47V58h2V55.47A4.979,4.979,0,0,0,34.24,51l-.25-.12a1.857,1.857,0,0,0-.05-.34C37.88,48.93,43,43.32,43,40a3.738,3.738,0,0,0-.33-1.48A14.9,14.9,0,0,0,47,28ZM32.4,15c.4,0,.8.04,1.2.07L33,16.46,32.37,15Zm-3.46.26-1.01,2.36-.95-1.89A16.438,16.438,0,0,1,28.94,15.26ZM41,40c0,2.78-6.22,9-9,9s-9-6.22-9-9v-.03a14.729,14.729,0,0,0,2.13,1.35,6.995,6.995,0,0,0,13.74,0A14.729,14.729,0,0,0,41,39.97ZM27.58,42.33a14.914,14.914,0,0,0,8.84,0,4.994,4.994,0,0,1-8.84,0ZM45,28a13,13,0,0,1-26,0V21.37l.75-.88a15.948,15.948,0,0,1,5.35-4.05l2.01,4.01A.988.988,0,0,0,28,21h.03a.994.994,0,0,0,.89-.61l1.79-4.18,1.37,3.18a1,1,0,0,0,1.84,0l1.73-4.03A15.743,15.743,0,0,1,45,21.33Z"/><path d="M32,37c3.925,0,7-2.2,7-5H37c0,1.626-2.29,3-5,3s-5-1.374-5-3H25C25,34.8,28.075,37,32,37Z"/></svg>
