<svg id="Kid_avatar" height="512" viewBox="0 0 64 64" width="512" xmlns="http://www.w3.org/2000/svg" data-name="Kid avatar"><path d="m19 30h-2.5a3.5 3.5 0 0 1 -3.5-3.5 3.5 3.5 0 0 1 3.5-3.5h2.5z" fill="#ffcbbe"/><path d="m45 30h2.5a3.5 3.5 0 0 0 3.5-3.5 3.5 3.5 0 0 0 -3.5-3.5h-2.5z" fill="#ffcbbe"/><path d="m50 61h-36l.43-8.6a11.995 11.995 0 0 1 11.98-11.4h11.18a11.995 11.995 0 0 1 11.98 11.4z" fill="#ec455a"/><path d="m14 61h7l1-9h-7.54z" fill="#ffcbbe"/><path d="m49.54 52h-7.54l1 9h7z" fill="#ffcbbe"/><path d="m40.88 41.46a9 9 0 0 1 -17.76 0 11.939 11.939 0 0 1 3.29-.46h11.18a11.939 11.939 0 0 1 3.29.46z" fill="#ececec"/><circle cx="32" cy="40" fill="#ffcbbe" r="6"/><path d="m32 42a14 14 0 0 1 -14-14v-10h28v10a14 14 0 0 1 -14 14z" fill="#ffddce"/><path d="m46 13-1.357-6.784a4 4 0 0 0 -3.922-3.216h-18.442a4 4 0 0 0 -3.922 3.216l-1.357 6.784-5 5h39z" fill="#7e543b"/><g fill="#3e3d42"><path d="m22 18-3 5h-1v-5z"/><path d="m33 18-3 5-1-5z"/><path d="m37 18-3 4-1-4z"/><path d="m42 18 3 5h1v-5z"/></g><path d="m40.5 40.34a15 15 0 0 0 6.2-9.34h.8a4.507 4.507 0 0 0 4.5-4.5 4.524 4.524 0 0 0 -4.5-4.5h-.5v-3h4a.987.987 0 0 0 .92-.62 1 1 0 0 0 -.21-1.09l-4.79-4.78-1.3-6.49a5 5 0 0 0 -4.9-4.02h-18.44a5 5 0 0 0 -4.9 4.02l-1.3 6.49-4.79 4.78a1 1 0 0 0 -.21 1.09.987.987 0 0 0 .92.62h5v3h-.5a4.524 4.524 0 0 0 -4.5 4.5 4.507 4.507 0 0 0 4.5 4.5h.8a15.024 15.024 0 0 0 6.19 9.34 13.053 13.053 0 0 0 -10.06 12.01l-.43 8.6a1.025 1.025 0 0 0 .28.74.975.975 0 0 0 .72.31h36a.975.975 0 0 0 .72-.31 1.025 1.025 0 0 0 .28-.74l-.43-8.6a13.059 13.059 0 0 0 -10.07-12.01zm4.5-19.28-1.23-2.06h1.23zm2.5 2.94a2.509 2.509 0 0 1 2.5 2.5 2.5 2.5 0 0 1 -2.5 2.5h-.55c.02-.33.05-.66.05-1v-4zm-31 5a2.5 2.5 0 0 1 -2.5-2.5 2.509 2.509 0 0 1 2.5-2.5h.5v4c0 .34.03.67.05 1zm-2.09-12 3.3-3.29a1.014 1.014 0 0 0 .27-.51l1.36-6.79a3 3 0 0 1 2.94-2.41h18.44a3 3 0 0 1 2.94 2.41l1.36 6.79a1.014 1.014 0 0 0 .27.51l3.3 3.29zm20.59 2-.54.72-.18-.72zm-3.77 0-.76 1.27-.25-1.27zm-11 0-1.23 2.06v-2.06zm-1.23 9v-4a.99.99 0 0 0 .86-.49l2.71-4.51h5.61l.84 4.2a1 1 0 0 0 .81.79.97.97 0 0 0 .17.01 1 1 0 0 0 .86-.49l1.76-2.93.41 1.66a.989.989 0 0 0 .77.74 1.355 1.355 0 0 0 .2.02 1.014 1.014 0 0 0 .8-.4l2.7-3.6h3.93l2.71 4.51a.99.99 0 0 0 .86.49v4a13 13 0 0 1 -26 0zm13 19a7 7 0 0 0 6.69-4.93 8.458 8.458 0 0 1 .99.15 7.99 7.99 0 0 1 -15.36-.01c.33-.06.66-.11.99-.14a7 7 0 0 0 6.69 4.93zm-4.42-4.67a14.914 14.914 0 0 0 8.84 0 4.994 4.994 0 0 1 -8.84 0zm-7.48 17.67h-5.05l.35-7h5.48zm21.78 0h-19.76l.87-7.89a1 1 0 0 0 -.24-.78 1.022 1.022 0 0 0 -.75-.33h-6.39a11.077 11.077 0 0 1 6.79-8.23 9.99 9.99 0 0 0 19.2.01 11.045 11.045 0 0 1 6.79 8.22h-6.39a1.022 1.022 0 0 0 -.75.33 1 1 0 0 0 -.24.78zm2.02 0-.78-7h5.48l.35 7z"/><path d="m26 27a1 1 0 0 0 1-1v-2a1 1 0 0 0 -2 0v2a1 1 0 0 0 1 1z"/><path d="m38 27a1 1 0 0 0 1-1v-2a1 1 0 0 0 -2 0v2a1 1 0 0 0 1 1z"/><path d="m39 32h-2c0 1.626-2.29 3-5 3s-5-1.374-5-3h-2c0 2.8 3.075 5 7 5s7-2.2 7-5z"/></svg>