<svg id="Kid_avatar" height="512" viewBox="0 0 64 64" width="512" xmlns="http://www.w3.org/2000/svg" data-name="Kid avatar"><path d="m50 61h-36l.43-8.6a12 12 0 0 1 11.985-11.4h11.17a12 12 0 0 1 11.985 11.4z" fill="#235182"/><g fill="#4a80aa"><path d="m28 41h4v20h-4z"/><path d="m20 42.863v18.137h4v-19.753a11.937 11.937 0 0 0 -4 1.616z"/><path d="m49.57 52.4a11.987 11.987 0 0 0 -5.57-9.537v18.137h6z"/><path d="m37.585 41h-1.585v20h4v-19.753a12.019 12.019 0 0 0 -2.415-.247z"/></g><path d="m19 30h-2.5a3.5 3.5 0 0 1 -3.5-3.5 3.5 3.5 0 0 1 3.5-3.5h2.5z" fill="#ffcbbe"/><path d="m45 30h2.5a3.5 3.5 0 0 0 3.5-3.5 3.5 3.5 0 0 0 -3.5-3.5h-2.5z" fill="#ffcbbe"/><path d="m14 61h7l-1-9h-5.54z" fill="#ffcbbe"/><path d="m40.88 41.46a9 9 0 0 1 -17.76 0 11.939 11.939 0 0 1 3.29-.46h11.18a11.939 11.939 0 0 1 3.29.46z" fill="#ececec"/><circle cx="32" cy="40" fill="#ffcbbe" r="6"/><path d="m32 42a14 14 0 0 1 -14-14v-13l6-3h16l6 3v13a14 14 0 0 1 -14 14z" fill="#ffddce"/><path d="m47 23h-2l-.721-2.162a10 10 0 0 0 -9.487-6.838h-5.584a10 10 0 0 0 -9.487 6.838l-.721 2.162h-2v-5a15 15 0 0 1 15-15 15 15 0 0 1 15 15z" fill="#2d2d30"/><path d="m49.54 52h-5.54l-1 9h7z" fill="#ffcbbe"/><path d="m26 27a1 1 0 0 0 1-1v-2a1 1 0 0 0 -2 0v2a1 1 0 0 0 1 1z"/><path d="m38 27a1 1 0 0 0 1-1v-2a1 1 0 0 0 -2 0v2a1 1 0 0 0 1 1z"/><path d="m41.15 40.5c-.22-.06-.44-.1-.66-.15a15.033 15.033 0 0 0 6.21-9.35h.8a4.507 4.507 0 0 0 4.5-4.5 4.4 4.4 0 0 0 -1.32-3.17 4.345 4.345 0 0 0 -2.68-1.28v-4.05a16 16 0 0 0 -32 0v4.05a4.334 4.334 0 0 0 -2.67 1.27 4.406 4.406 0 0 0 -1.33 3.18 4.507 4.507 0 0 0 4.5 4.5h.8a15.033 15.033 0 0 0 6.21 9.35c-.22.05-.44.09-.66.15a12.976 12.976 0 0 0 -9.42 11.85l-.43 8.6a1.025 1.025 0 0 0 .28.74.975.975 0 0 0 .72.31h36a.975.975 0 0 0 .72-.31 1.025 1.025 0 0 0 .28-.74l-.43-8.6a12.976 12.976 0 0 0 -9.42-11.85zm5.85-12.5v-4h.5a2.509 2.509 0 0 1 2.5 2.5 2.5 2.5 0 0 1 -2.5 2.5h-.55c.02-.33.05-.66.05-1zm-30.5 1a2.5 2.5 0 0 1 -2.5-2.5 2.509 2.509 0 0 1 2.5-2.5h.5v4c0 .34.03.67.05 1zm2.5 15.87v6.13h-3.4a11 11 0 0 1 3.4-6.13zm-3.95 15.13.35-7h3.7l.78 7zm7.95 0h-1.1l-.9-8.06v-8.52a10.577 10.577 0 0 1 1.4-.66 9.577 9.577 0 0 0 .6 1.6zm-4.72-38h-.28v-4a14 14 0 0 1 28 0v4h-.28l-.49-1.48a10.991 10.991 0 0 0 -10.44-7.52h-5.58a10.991 10.991 0 0 0 -10.44 7.52zm.72 6v-4a1.014 1.014 0 0 0 .95-.68l.72-2.17a8.991 8.991 0 0 1 8.54-6.15h5.58a8.991 8.991 0 0 1 8.54 6.15l.72 2.17a1.014 1.014 0 0 0 .95.68v4a13 13 0 0 1 -26 0zm17.42 14.33a4.994 4.994 0 0 1 -8.84 0 14.914 14.914 0 0 0 8.84 0zm-9.42 17.67h-2v-12.85a9.869 9.869 0 0 0 2 1.52zm4 0h-2v-10.46a10.137 10.137 0 0 0 2 .41zm4 0h-2v-10.05a10.137 10.137 0 0 0 2-.41zm4 0h-2v-11.33a9.869 9.869 0 0 0 2-1.52zm-7-12a7.953 7.953 0 0 1 -7.68-5.78c.33-.06.66-.11 1-.14a6.995 6.995 0 0 0 13.36 0c.34.03.67.08 1 .14a7.953 7.953 0 0 1 -7.68 5.78zm13-3.13a11 11 0 0 1 3.4 6.13h-3.4zm-2 7.07-.9 8.06h-1.1v-15.64a9.577 9.577 0 0 0 .6-1.6 10.577 10.577 0 0 1 1.4.66zm1.12 8.06.78-7h3.7l.35 7z"/><path d="m39 32h-2c0 1.626-2.29 3-5 3s-5-1.374-5-3h-2c0 2.8 3.075 5 7 5s7-2.2 7-5z"/></svg>