<svg id="Kid_avatar" height="512" viewBox="0 0 64 64" width="512" xmlns="http://www.w3.org/2000/svg" data-name="Kid avatar"><path d="m19 30h-2.5a3.5 3.5 0 0 1 -3.5-3.5 3.5 3.5 0 0 1 3.5-3.5h2.5z" fill="#ffcbbe"/><path d="m45 30h2.5a3.5 3.5 0 0 0 3.5-3.5 3.5 3.5 0 0 0 -3.5-3.5h-2.5z" fill="#ffcbbe"/><path d="m50 61h-36l.43-8.6a12 12 0 0 1 11.985-11.4h11.17a12 12 0 0 1 11.985 11.4z" fill="#fae058"/><g fill="#ffcbbe"><path d="m14 61h7l1-9h-7.54z"/><path d="m49.54 52h-7.54l1 9h7z"/><path d="m38 40c0 3.314-6 10-6 10s-6-6.686-6-10a6 6 0 0 1 12 0z"/></g><path d="m32 42a14 14 0 0 1 -14-14v-13l6-5h16l6 5v13a14 14 0 0 1 -14 14z" fill="#ffddce"/><path d="m16 18.51v4.49h2l1.961-4.576a4 4 0 0 1 3.677-2.424h16.724a4 4 0 0 1 3.677 2.424l1.961 4.576h2v-4.49a1.454 1.454 0 0 1 -.32-.63 2.474 2.474 0 0 1 .32-1.4c.38-.85.91-1.74.65-2.38-.43-1.03-2.74-1.06-3.36-1.98s.24-3.08-.55-3.86-2.93.07-3.86-.55-.95-2.93-1.98-3.36-2.67 1.19-3.78.97c-1.07-.21-1.98-2.34-3.12-2.34s-2.05 2.13-3.12 2.34c-1.11.22-2.76-1.39-3.78-.97s-1.06 2.74-1.98 3.36-3.08-.24-3.86.55.07 2.93-.55 3.86-2.93.95-3.36 1.98c-.26.64.27 1.53.65 2.38a2.474 2.474 0 0 1 .32 1.4 1.454 1.454 0 0 1 -.32.63z" fill="#3e3d42"/><path d="m40.51 40.34a15.051 15.051 0 0 0 6.19-9.34h.8a4.507 4.507 0 0 0 4.5-4.5 4.4 4.4 0 0 0 -1.32-3.17 4.442 4.442 0 0 0 -1.68-1.06v-3.76a1.026 1.026 0 0 0 -.22-.63.5.5 0 0 1 -.12-.19 1.832 1.832 0 0 1 .25-.8l.19-.4a3.463 3.463 0 0 0 .47-2.77 3.469 3.469 0 0 0 -2.32-1.64 3.751 3.751 0 0 1 -1.13-.52 3.693 3.693 0 0 1 -.05-1.25 3.416 3.416 0 0 0 -.62-2.75 3.406 3.406 0 0 0 -2.76-.63 3.8 3.8 0 0 1 -1.26-.05 3.771 3.771 0 0 1 -.51-1.13 3.469 3.469 0 0 0 -1.64-2.32 3.44 3.44 0 0 0 -2.76.47 3.923 3.923 0 0 1 -1.21.44 4.02 4.02 0 0 1 -.88-.83 3.5 3.5 0 0 0 -2.43-1.53 3.5 3.5 0 0 0 -2.43 1.53 4.02 4.02 0 0 1 -.88.83 3.676 3.676 0 0 1 -1.21-.44 3.44 3.44 0 0 0 -2.76-.47 3.469 3.469 0 0 0 -1.64 2.32 3.751 3.751 0 0 1 -.52 1.13 3.693 3.693 0 0 1 -1.25.05 3.416 3.416 0 0 0 -2.75.62 3.415 3.415 0 0 0 -.63 2.76 3.8 3.8 0 0 1 -.05 1.26 3.771 3.771 0 0 1 -1.13.51 3.511 3.511 0 0 0 -2.33 1.64 3.507 3.507 0 0 0 .48 2.77l.19.41a1.766 1.766 0 0 1 .25.8.671.671 0 0 1 -.12.18 1.026 1.026 0 0 0 -.22.63v3.76a4.5 4.5 0 0 0 -3 4.23 4.507 4.507 0 0 0 4.5 4.5h.8a15.051 15.051 0 0 0 6.19 9.34 13.074 13.074 0 0 0 -10.06 12.01l-.43 8.6a1.025 1.025 0 0 0 .28.74.975.975 0 0 0 .72.31h36a.975.975 0 0 0 .72-.31 1.025 1.025 0 0 0 .28-.74l-.43-8.6a13.074 13.074 0 0 0 -10.06-12.01zm8.76-15.6a2.465 2.465 0 0 1 .73 1.76 2.5 2.5 0 0 1 -2.5 2.5h-.55c.02-.33.05-.66.05-1v-4h.5a2.474 2.474 0 0 1 1.77.74zm-32.77 4.26a2.5 2.5 0 0 1 -2.5-2.5 2.509 2.509 0 0 1 2.5-2.5h.5v4c0 .34.03.67.05 1zm.5-7v-3.17a2.077 2.077 0 0 0 .3-.76 3.318 3.318 0 0 0 -.39-2c-.06-.14-.13-.29-.2-.44a4.6 4.6 0 0 1 -.44-1.13 3.688 3.688 0 0 1 1.14-.53 3.906 3.906 0 0 0 2.13-1.3 4.015 4.015 0 0 0 .39-2.47 3.871 3.871 0 0 1 .03-1.22 3.45 3.45 0 0 1 1.25-.05 4.026 4.026 0 0 0 2.47-.39 3.986 3.986 0 0 0 1.29-2.13 4.806 4.806 0 0 1 .49-1.13 3.824 3.824 0 0 1 1.16.43 4.03 4.03 0 0 0 2.45.59 3.89 3.89 0 0 0 1.99-1.45 4.174 4.174 0 0 1 .93-.87c.2.04.69.58.95.87a3.89 3.89 0 0 0 1.99 1.45 4.03 4.03 0 0 0 2.45-.59 4.059 4.059 0 0 1 1.12-.44 3.688 3.688 0 0 1 .53 1.14 3.906 3.906 0 0 0 1.3 2.13 4.015 4.015 0 0 0 2.47.39 3.871 3.871 0 0 1 1.22.03 3.45 3.45 0 0 1 .05 1.25 4.026 4.026 0 0 0 .39 2.47 3.986 3.986 0 0 0 2.13 1.29 4.806 4.806 0 0 1 1.13.49 3.866 3.866 0 0 1 -.43 1.17c-.07.15-.14.3-.2.43a3.347 3.347 0 0 0 -.39 2 2.054 2.054 0 0 0 .3.77v3.17h-.34l-1.7-3.97a5 5 0 0 0 -4.6-3.03h-16.72a5 5 0 0 0 -4.6 3.03l-1.7 3.97zm2 6v-4.8l1.88-4.38a2.991 2.991 0 0 1 2.76-1.82h16.72a2.991 2.991 0 0 1 2.76 1.82l1.88 4.38v4.8a13 13 0 0 1 -26 0zm17.22 14.38a35.247 35.247 0 0 1 -4.22 6.08 35.46 35.46 0 0 1 -4.21-6.07 15.035 15.035 0 0 0 4.21.61 14.7 14.7 0 0 0 4.22-.62zm-16.11 17.62h-5.06l.35-7h5.48zm21.89-9a1.022 1.022 0 0 0 -.75.33.968.968 0 0 0 -.24.78l.87 7.89h-19.76l.87-7.89a.968.968 0 0 0 -.24-.78 1.022 1.022 0 0 0 -.75-.33h-6.39a11.056 11.056 0 0 1 9.83-8.95c1.37 3.63 5.62 8.4 5.82 8.62a.995.995 0 0 0 1.48 0c.2-.22 4.42-4.95 5.81-8.62a11.057 11.057 0 0 1 9.84 8.95zm1.9 9-.78-7h5.48l.35 7z"/><path d="m26 27a1 1 0 0 0 1-1v-2a1 1 0 0 0 -2 0v2a1 1 0 0 0 1 1z"/><path d="m38 27a1 1 0 0 0 1-1v-2a1 1 0 0 0 -2 0v2a1 1 0 0 0 1 1z"/><path d="m39 32h-2c0 1.626-2.29 3-5 3s-5-1.374-5-3h-2c0 2.8 3.075 5 7 5s7-2.2 7-5z"/></svg>