<svg id="Kid_avatar" height="512" viewBox="0 0 64 64" width="512" xmlns="http://www.w3.org/2000/svg" data-name="Kid avatar"><path d="m19 30h-2.5a3.5 3.5 0 0 1 -3.5-3.5 3.5 3.5 0 0 1 3.5-3.5h2.5z" fill="#ffcbbe"/><path d="m45 30h2.5a3.5 3.5 0 0 0 3.5-3.5 3.5 3.5 0 0 0 -3.5-3.5h-2.5z" fill="#ffcbbe"/><path d="m50 62h-36l.43-9.6a12 12 0 0 1 11.985-11.4h11.17a12 12 0 0 1 11.985 11.4z" fill="#e0e0e2"/><circle cx="32" cy="41" fill="#ffcbbe" r="6"/><path d="m28 48-6-6 2-4 6 3z" fill="#e9e9ea"/><path d="m36 48 6-6-2-4-6 3z" fill="#e9e9ea"/><path d="m32 42a14 14 0 0 1 -14-14v-13l6-5h16l6 5v13a14 14 0 0 1 -14 14z" fill="#ffddce"/><path d="m48 15v4h-4.764a2 2 0 0 1 -1.789-1.106l-2.618-5.236a3 3 0 0 0 -2.683-1.658h-.115a3 3 0 0 0 -2.785 1.886l-.469 1.172a4 4 0 0 1 -2.815 2.412l-10.962 2.53h-3v-4a12 12 0 0 1 12-12h8a12 12 0 0 1 12 12z" fill="#3e3d42"/><path d="m42.64 41.04-.85-1.7a15.014 15.014 0 0 0 4.9-8.34h.81a4.507 4.507 0 0 0 4.5-4.5 4.524 4.524 0 0 0 -4.5-4.5h-.5v-2h1a1 1 0 0 0 1-1v-4a13.012 13.012 0 0 0 -13-13h-8a13.012 13.012 0 0 0 -13 13v4a1 1 0 0 0 1 1h1v2h-.5a4.524 4.524 0 0 0 -4.5 4.5 4.507 4.507 0 0 0 4.5 4.5h.81a15.252 15.252 0 0 0 4.08 7.61c.27.26.54.5.82.74l-.85 1.69a12.989 12.989 0 0 0 -7.93 11.31l-.43 8.6a1.025 1.025 0 0 0 .28.74.975.975 0 0 0 .72.31h36a.975.975 0 0 0 .72-.31 1.025 1.025 0 0 0 .28-.74l-.43-8.6a12.989 12.989 0 0 0 -7.93-11.31zm4.86-17.04a2.509 2.509 0 0 1 2.5 2.5 2.5 2.5 0 0 1 -2.5 2.5h-.53c.02-.34.03-.67.03-1v-4zm-31 5a2.5 2.5 0 0 1 -2.5-2.5 2.509 2.509 0 0 1 2.5-2.5h.5v4c0 .33.01.66.03 1zm.5-11v-3a11.007 11.007 0 0 1 11-11h8a11.007 11.007 0 0 1 11 11v3h-3.76a.992.992 0 0 1 -.9-.55l-2.62-5.24a3.976 3.976 0 0 0 -3.57-2.21h-.12a3.987 3.987 0 0 0 -3.71 2.51l-.47 1.18a3.05 3.05 0 0 1 -2.11 1.81l-10.85 2.5zm2.13 11.86a13.025 13.025 0 0 1 -.13-1.86v-8a.908.908 0 0 0 .23-.03l10.96-2.53a4.993 4.993 0 0 0 3.52-3.01l.46-1.17a2 2 0 0 1 1.86-1.26h.12a1.967 1.967 0 0 1 1.78 1.11l2.62 5.23a2.992 2.992 0 0 0 2.69 1.66h1.76v8a13 13 0 0 1 -25.87 1.86zm21.65 11.94-4.29 4.29-1-3.52a15.077 15.077 0 0 0 4.67-2.02zm-6.55 3.66a5.063 5.063 0 0 1 -4.46 0l.72-2.54a15.114 15.114 0 0 0 1.51.08 14.758 14.758 0 0 0 1.5-.08zm-5.72-2.88-1 3.51-4.29-4.29.61-1.23a14.942 14.942 0 0 0 4.68 2.01zm-13.46 17.42.38-7.55a11 11 0 0 1 6.24-9.37l5.62 5.63a1.007 1.007 0 0 0 .71.29 1.068 1.068 0 0 0 .25-.03 1.008 1.008 0 0 0 .71-.69l.25-.88a6.787 6.787 0 0 0 5.58 0l.25.88a1.008 1.008 0 0 0 .71.69 1.068 1.068 0 0 0 .25.03 1.007 1.007 0 0 0 .71-.29l5.62-5.63a11 11 0 0 1 6.24 9.37l.38 7.55z"/><circle cx="32" cy="53" r="1"/><circle cx="32" cy="57" r="1"/><path d="m26 27a1 1 0 0 0 1-1v-2a1 1 0 0 0 -2 0v2a1 1 0 0 0 1 1z"/><path d="m38 27a1 1 0 0 0 1-1v-2a1 1 0 0 0 -2 0v2a1 1 0 0 0 1 1z"/><path d="m32 37c3.925 0 7-2.2 7-5h-2c0 1.626-2.29 3-5 3s-5-1.374-5-3h-2c0 2.8 3.075 5 7 5z"/></svg>