<svg id="Kid_avatar" height="512" viewBox="0 0 64 64" width="512" xmlns="http://www.w3.org/2000/svg" data-name="Kid avatar"><path d="m50 19v11h-35v-11a16 16 0 0 1 16-16h3a16 16 0 0 1 16 16z" fill="#414042"/><path d="m50 61h-36l.43-6.6a12 12 0 0 1 11.985-11.4h11.17a12 12 0 0 1 11.985 11.4z" fill="#3780ea"/><g fill="#ffcbbe"><path d="m14 61h7l1-7h-7.54z"/><path d="m49.54 54h-7.54l1 7h7z"/><circle cx="32" cy="42" r="6"/></g><path d="m27.62 46.1a5.8 5.8 0 0 1 -1.04-1.54l-.49-1.55a11.69 11.69 0 0 0 -3.93.77 10 10 0 0 0 6.61 7.68l1.82-3.64a6.029 6.029 0 0 1 -2.97-1.72z" fill="#5bcbfa"/><path d="m41.84 43.78a10 10 0 0 1 -6.61 7.68l-1.82-3.64a5.976 5.976 0 0 0 4.5-4.81 11.69 11.69 0 0 1 3.93.77z" fill="#5bcbfa"/><path d="m16.476 43.52-5.734-6.016 7.258-6.504 2 2z" fill="#414042"/><path d="m47.266 43.52 5.734-6.016-7.258-6.504-2 2z" fill="#414042"/><path d="m19 31h-2.5a3.5 3.5 0 0 1 -3.5-3.5 3.5 3.5 0 0 1 3.5-3.5h2.5z" fill="#ffcbbe"/><circle cx="32" cy="42" fill="#ffcbbe" r="6"/><path d="m45 31h2.5a3.5 3.5 0 0 0 3.5-3.5 3.5 3.5 0 0 0 -3.5-3.5h-2.5z" fill="#ffcbbe"/><path d="m46 22v8a14 14 0 0 1 -28 0v-6h3a19.867 19.867 0 0 0 11-3.3 19.931 19.931 0 0 0 5.45-5.34 12.944 12.944 0 0 1 8.29 6.19z" fill="#ffddce"/><path d="m44.64 38.07 1.93 5.77a1.014 1.014 0 0 0 .73.66 1.635 1.635 0 0 0 .22.02.992.992 0 0 0 .72-.31l5.74-6.02a1 1 0 0 0 .28-.73 1.03 1.03 0 0 0 -.33-.71l-5.44-4.87a4.5 4.5 0 0 0 3.51-4.38 4.428 4.428 0 0 0 -1-2.79v-5.71a17.024 17.024 0 0 0 -17-17h-4a17.024 17.024 0 0 0 -17 17v5.73a4.394 4.394 0 0 0 -1 2.77 4.5 4.5 0 0 0 3.51 4.38l-5.44 4.87a1.03 1.03 0 0 0 -.33.71 1 1 0 0 0 .28.73l5.74 6.02a.992.992 0 0 0 .72.31 1.635 1.635 0 0 0 .22-.02 1.014 1.014 0 0 0 .73-.66l1.94-5.79a15.172 15.172 0 0 0 4.12 4.29 13.049 13.049 0 0 0 -10.06 11.99l-.43 6.61a1.008 1.008 0 0 0 1 1.06h36a1.008 1.008 0 0 0 1-1.06l-.43-6.59a13.038 13.038 0 0 0 -10.07-12 15.079 15.079 0 0 0 4.14-4.28zm7.18-.51-3.88 4.07-2.03-6.06a14.541 14.541 0 0 0 .78-2.61zm-1.82-10.06a2.5 2.5 0 0 1 -2.5 2.5h-.5v-5h.5a2.509 2.509 0 0 1 2.5 2.5zm-1-8.5v4.27a4.472 4.472 0 0 0 -1.5-.27h-.5v-1a1.063 1.063 0 0 0 -.13-.5l-.26-.45a14.016 14.016 0 0 0 -7.6-6.28 20.893 20.893 0 0 0 2.85-8.52 14.979 14.979 0 0 1 7.14 12.75zm-34 0a15.018 15.018 0 0 1 15-15h4a14.888 14.888 0 0 1 5.94 1.23 18.983 18.983 0 0 1 -8.49 14.64 18.874 18.874 0 0 1 -10.45 3.13h-6zm-1 8.5a2.509 2.509 0 0 1 2.5-2.5h.5v5h-.5a2.5 2.5 0 0 1 -2.5-2.5zm2.06 14.13-3.88-4.07 5.12-4.59a14.568 14.568 0 0 0 .79 2.61zm9.25 2.44a6.941 6.941 0 0 0 3.87 4.33l-.89 1.78a8.947 8.947 0 0 1 -4.93-5.73 11.4 11.4 0 0 1 1.95-.38zm2.27.26a14.644 14.644 0 0 0 4.42.67 14.855 14.855 0 0 0 4.43-.67 5 5 0 0 1 -8.85 0zm-7.45 15.67h-5.06l.32-5h5.46zm28.8 0h-5.06l-.72-5h5.46zm-.54-7h-6.39a1.037 1.037 0 0 0 -.76.34 1.006 1.006 0 0 0 -.23.8l.84 5.86h-19.7l.84-5.86a1.006 1.006 0 0 0 -.23-.8 1.037 1.037 0 0 0 -.76-.34h-6.39a11.049 11.049 0 0 1 5.87-7.81 10.95 10.95 0 0 0 6.84 7.16c0 .01 0 .01.01.01a.612.612 0 0 1 .12.05v-.01a.906.906 0 0 0 .32.06.981.981 0 0 0 .89-.55l1.49-2.97a6.051 6.051 0 0 0 1.7 0l1.49 2.97a1 1 0 0 0 .89.55 1.127 1.127 0 0 0 .32-.05 11.012 11.012 0 0 0 6.97-7.22 11.075 11.075 0 0 1 5.87 7.81zm-7.74-8.55a8.94 8.94 0 0 1 -4.93 5.74l-.9-1.79a6.941 6.941 0 0 0 3.87-4.33 11.515 11.515 0 0 1 1.96.38zm-8.65-1.45a13.012 13.012 0 0 1 -13-13v-5h2a20.941 20.941 0 0 0 16.85-8.48 11.927 11.927 0 0 1 7.02 5.53l.13.22v7.73c0 .32-.01.64-.04.96a12.639 12.639 0 0 1 -1.03 4.19 12.986 12.986 0 0 1 -11.93 7.85z"/><path d="m26 29a1 1 0 0 0 1-1v-2a1 1 0 0 0 -2 0v2a1 1 0 0 0 1 1z"/><path d="m38 25a1 1 0 0 0 -1 1v2a1 1 0 0 0 2 0v-2a1 1 0 0 0 -1-1z"/><path d="m32 37c-2.71 0-5-1.374-5-3h-2c0 2.8 3.075 5 7 5s7-2.2 7-5h-2c0 1.626-2.29 3-5 3z"/></svg>