<svg id="Kid_avatar" height="512" viewBox="0 0 64 64" width="512" xmlns="http://www.w3.org/2000/svg" data-name="Kid avatar"><path d="m38 48v-19h-24v-8a18 18 0 0 1 36 0v19l3 13z" fill="#3e3d42"/><path d="m50 61h-36l.43-6.6a12 12 0 0 1 11.985-11.4h11.17a12 12 0 0 1 11.985 11.4z" fill="#e28086"/><circle cx="47" cy="10" fill="#3e3d42" r="6"/><path d="m19 32h-2.5a3.5 3.5 0 0 1 -3.5-3.5 3.5 3.5 0 0 1 3.5-3.5h2.5z" fill="#ffcbbe"/><path d="m45 32h2.5a3.5 3.5 0 0 0 3.5-3.5 3.5 3.5 0 0 0 -3.5-3.5h-2.5z" fill="#ffcbbe"/><path d="m32 44a14 14 0 0 1 -14-14v-8h9a8 8 0 0 0 8-8l5 8 2-5 1.5 3.743a2 2 0 0 0 1.854 1.257h.646v8a14 14 0 0 1 -14 14z" fill="#ffddce"/><path d="m32 44a13.846 13.846 0 0 0 5.93-1.32c-.02.11-.05.21-.08.32-.91 3.49-5.85 9-5.85 9s-4.94-5.51-5.85-9c-.03-.11-.06-.21-.08-.32a13.846 13.846 0 0 0 5.93 1.32z" fill="#ffcbbe"/><path d="m41.78 43.76a2.1 2.1 0 0 1 -.06.24c-1.1 4.22-5.81 9.63-6.74 10.67l-2.98 3.32-2.98-3.32c-.93-1.04-5.64-6.45-6.74-10.66a2.268 2.268 0 0 1 -.06-.25 11.683 11.683 0 0 1 3.93-.76c.91 3.49 5.85 9 5.85 9s4.94-5.51 5.85-9a11.683 11.683 0 0 1 3.93.76z" fill="#dd636e"/><path d="m51 39.89v-8.6a4.392 4.392 0 0 0 0-5.58v-4.71a18.813 18.813 0 0 0 -.65-4.87 6.991 6.991 0 1 0 -8.19-11.18 18.993 18.993 0 0 0 -29.16 16.05v4.71a4.412 4.412 0 0 0 -1 2.79 4.507 4.507 0 0 0 4.5 4.5h.8a15.051 15.051 0 0 0 6.19 9.34 13.07 13.07 0 0 0 -10.06 11.99l-.43 6.61a1.008 1.008 0 0 0 1 1.06h36a1.008 1.008 0 0 0 1-1.06l-.43-6.59a10.467 10.467 0 0 0 -.12-1.14l2.23.74a1.185 1.185 0 0 0 .32.05 1 1 0 0 0 .97-1.23zm-4-34.89a4.99 4.99 0 0 1 2.72 9.18 19 19 0 0 0 -4.28-6.62 21.247 21.247 0 0 0 -1.61-1.42 4.945 4.945 0 0 1 3.17-1.14zm3 23.5a2.5 2.5 0 0 1 -2.5 2.5h-.55c.02-.33.05-.66.05-1v-4h.5a2.509 2.509 0 0 1 2.5 2.5zm-33.5 2.5a2.5 2.5 0 0 1 -2.5-2.5 2.509 2.509 0 0 1 2.5-2.5h.5v4c0 .34.03.67.05 1zm.5-9v2h-.5a4.472 4.472 0 0 0 -1.5.27v-3.27a17 17 0 0 1 34 0v3.27a4.472 4.472 0 0 0 -1.5-.27h-.5v-2a1 1 0 0 0 -1-1h-.65a.986.986 0 0 1 -.92-.63l-1.5-3.74a1 1 0 0 0 -1.86 0l-1.27 3.17-3.95-6.33a1.011 1.011 0 0 0 -1.13-.43 1 1 0 0 0 -.72.96 7.008 7.008 0 0 1 -7 7h-9a1 1 0 0 0 -1 1zm2 8v-7h8a9.01 9.01 0 0 0 8.56-6.22l3.59 5.75a1.009 1.009 0 0 0 .94.47 1.024 1.024 0 0 0 .84-.63l1.07-2.68.57 1.42a2.972 2.972 0 0 0 2.43 1.87v7.02a13 13 0 0 1 -26 0zm17.22 14.38a35.247 35.247 0 0 1 -4.22 6.08 35.46 35.46 0 0 1 -4.21-6.07 15.035 15.035 0 0 0 4.21.61 14.7 14.7 0 0 0 4.22-.62zm-10.78-.33c1.37 3.63 5.62 8.4 5.82 8.62a.995.995 0 0 0 1.48 0c.2-.22 4.42-4.95 5.81-8.62a11.031 11.031 0 0 1 2 .37c-1.33 3.89-5.46 8.63-6.32 9.58l-2.23 2.49-2.23-2.49c-.86-.95-4.98-5.68-6.32-9.58a10.923 10.923 0 0 1 1.99-.37zm-10.37 15.95.36-5.55a11.061 11.061 0 0 1 6.15-9.31c1.5 4.26 5.8 9.2 6.7 10.2l2.98 3.32a.995.995 0 0 0 1.48 0l2.98-3.32c.9-1 5.2-5.94 6.7-10.2a11.043 11.043 0 0 1 6.15 9.32l.36 5.54zm34.84-9.08a13.092 13.092 0 0 0 -9.4-8.58 15.051 15.051 0 0 0 6.19-9.34h.8a4.39 4.39 0 0 0 1.5-.28v7.28a.908.908 0 0 0 .03.23l2.59 11.26z"/><path d="m26 29a1 1 0 0 0 1-1v-2a1 1 0 0 0 -2 0v2a1 1 0 0 0 1 1z"/><path d="m38 29a1 1 0 0 0 1-1v-2a1 1 0 0 0 -2 0v2a1 1 0 0 0 1 1z"/><path d="m39 34h-2c0 1.626-2.29 3-5 3s-5-1.374-5-3h-2c0 2.8 3.075 5 7 5s7-2.2 7-5z"/></svg>