<svg id="Kid_avatar" height="512" viewBox="0 0 64 64" width="512" xmlns="http://www.w3.org/2000/svg" data-name="Kid avatar"><path d="m50 61h-36l.43-4.6a12 12 0 0 1 11.985-11.4h11.17a12 12 0 0 1 11.985 11.4z" fill="#b7c1cd"/><path d="m14 61h7l1-5h-7.54z" fill="#ffcbbe"/><path d="m49.54 56h-7.54l1 5h7z" fill="#ffcbbe"/><path d="m22 45.84v2.16a3 3 0 0 0 3 3h13a4 4 0 0 0 4-4v-1.16a12.012 12.012 0 0 0 -4.41-.84h-11.18a12.012 12.012 0 0 0 -4.41.84z" fill="#e9e9ea"/><circle cx="32" cy="45" fill="#ffcbbe" r="6"/><g fill="#3e3d42"><ellipse cx="32" cy="8" rx="7" ry="5"/><path d="m14 24h36a0 0 0 0 1 0 0v9a10 10 0 0 1 -10 10h-16a10 10 0 0 1 -10-10v-9a0 0 0 0 1 0 0z"/><path d="m30 8h4a16 16 0 0 1 16 16v8a0 0 0 0 1 0 0h-36a0 0 0 0 1 0 0v-8a16 16 0 0 1 16-16z"/></g><path d="m19 35h-2.5a3.5 3.5 0 0 1 -3.5-3.5 3.5 3.5 0 0 1 3.5-3.5h2.5z" fill="#ffcbbe"/><path d="m45 35h2.5a3.5 3.5 0 0 0 3.5-3.5 3.5 3.5 0 0 0 -3.5-3.5h-2.5z" fill="#ffcbbe"/><path d="m18 32a14 14 0 1 0 28 0v-9.01c-.16.01-.33.01-.5.01-7.09 0-13.25-2.26-16.35-5.59-1.73 3.28-5.84 5.59-10.65 5.59-.17 0-.34 0-.5-.01z" fill="#ffddce"/><path d="m40.51 44.34c.19-.13.36-.26.54-.4a10.945 10.945 0 0 0 9.85-9.52 4.409 4.409 0 0 0 .1-5.71v-4.71a17.021 17.021 0 0 0 -11.01-15.89c0-.04.01-.07.01-.11 0-3.31-3.59-6-8-6s-8 2.69-8 6c0 .04.01.07.01.11a17.021 17.021 0 0 0 -11.01 15.89v4.71a4.409 4.409 0 0 0 .1 5.71 10.937 10.937 0 0 0 9.86 9.52c.18.14.35.27.53.4a13.075 13.075 0 0 0 -10.06 11.97l-.43 4.6a1.01 1.01 0 0 0 1 1.09h36a1.01 1.01 0 0 0 1-1.09l-.43-4.56a13.092 13.092 0 0 0 -10.06-12.01zm.49 2.21v.45a3.009 3.009 0 0 1 -3 3h-1.11a7.012 7.012 0 0 0 2.02-3.91 10.379 10.379 0 0 1 2.09.46zm2.89-5.44a14.634 14.634 0 0 0 2.56-5.11h1.05a4.4 4.4 0 0 0 1.03-.13 8.965 8.965 0 0 1 -4.64 5.24zm6.11-9.61a2.5 2.5 0 0 1 -2.5 2.5h-.65a14.712 14.712 0 0 0 .15-2v-3h.5a2.509 2.509 0 0 1 2.5 2.5zm-18-27.5c2.99 0 5.54 1.55 5.94 3.48a17.068 17.068 0 0 0 -3.94-.48h-4a17.068 17.068 0 0 0 -3.94.48c.4-1.93 2.95-3.48 5.94-3.48zm-17 20a15.018 15.018 0 0 1 15-15h4a15.018 15.018 0 0 1 15 15v3.27a4.472 4.472 0 0 0 -1.5-.27h-.5v-4.01a1 1 0 0 0 -.31-.73 1.027 1.027 0 0 0 -.75-.27c-.14.01-.29.01-.44.01-6.61 0-12.59-2.02-15.62-5.27a1 1 0 0 0 -1.61.21c-1.62 3.08-5.46 5.06-9.77 5.06-.15 0-.3 0-.44-.01a1.013 1.013 0 0 0 -.75.27 1 1 0 0 0 -.31.73v4.01h-.5a4.472 4.472 0 0 0 -1.5.27zm-1 7.5a2.509 2.509 0 0 1 2.5-2.5h.5v3a14.712 14.712 0 0 0 .15 2h-.65a2.5 2.5 0 0 1 -2.5-2.5zm1.46 4.37a4.421 4.421 0 0 0 1.04.13h1.06a14.94 14.94 0 0 0 2.56 5.12 8.915 8.915 0 0 1 -4.66-5.25zm3.54-3.87v-8.01a13.225 13.225 0 0 0 10.35-5c3.48 3.03 9.3 4.91 15.65 5.01v8a13 13 0 0 1 -26 0zm17.84 14.19a4.978 4.978 0 0 1 -9.68-.01 14.9 14.9 0 0 0 4.84.82 15.123 15.123 0 0 0 4.84-.81zm-13.84.36a10.379 10.379 0 0 1 2.09-.46 7.012 7.012 0 0 0 2.02 3.91h-2.11a2.006 2.006 0 0 1 -2-2zm-2.82 13.45h-5.08l.28-3h5.4zm21.6 0h-19.56l.76-3.8a.99.99 0 0 0 -.21-.83.971.971 0 0 0 -.77-.37h-6.39a11.089 11.089 0 0 1 5.39-7.55v.55a4 4 0 0 0 4 4h13a5 5 0 0 0 4.96-4.58 11.119 11.119 0 0 1 5.42 7.58h-6.38a.971.971 0 0 0 -.77.37.99.99 0 0 0 -.21.83zm2.04 0-.6-3h5.4l.28 3z"/><path d="m26 32a1 1 0 0 0 1-1v-2a1 1 0 0 0 -2 0v2a1 1 0 0 0 1 1z"/><path d="m38 32a1 1 0 0 0 1-1v-2a1 1 0 0 0 -2 0v2a1 1 0 0 0 1 1z"/><path d="m39 37h-2c0 1.626-2.29 3-5 3s-5-1.374-5-3h-2c0 2.8 3.075 5 7 5s7-2.2 7-5z"/></svg>