<svg id="Kid_avatar" height="512" viewBox="0 0 64 64" width="512" xmlns="http://www.w3.org/2000/svg" data-name="Kid avatar"><path d="m14 26h36v35h-36z" fill="#754c29"/><path d="m50 61h-36l.43-6.6a11.99 11.99 0 0 1 11.57-11.39c.13-.01.27-.01.41-.01h11.18c.14 0 .28 0 .41.01a11.99 11.99 0 0 1 11.57 11.39z" fill="#3780ea"/><path d="m38 42.011v18.989h-12v-18.989c.13-.011.27-.011.41-.011h11.18c.14 0 .28 0 .41.011z" fill="#e1ecfd"/><path d="m32 3a18 18 0 0 1 18 18v8a0 0 0 0 1 0 0h-36a0 0 0 0 1 0 0v-8a18 18 0 0 1 18-18z" fill="#754c29"/><path d="m19 32h-2.5a3.5 3.5 0 0 1 -3.5-3.5 3.5 3.5 0 0 1 3.5-3.5h2.5z" fill="#ffcbbe"/><path d="m45 32h2.5a3.5 3.5 0 0 0 3.5-3.5 3.5 3.5 0 0 0 -3.5-3.5h-2.5z" fill="#ffcbbe"/><path d="m36.09 14.88a12.019 12.019 0 0 1 -8.09 3.12h-10v12a14 14 0 0 0 28 0v-11a13.916 13.916 0 0 1 -9.91-4.12z" fill="#ffddce"/><path d="m26 29a1 1 0 0 0 1-1v-2a1 1 0 0 0 -2 0v2a1 1 0 0 0 1 1z"/><path d="m38 29a1 1 0 0 0 1-1v-2a1 1 0 0 0 -2 0v2a1 1 0 0 0 1 1z"/><path d="m39 35h-2c0 1.626-2.29 3-5 3s-5-1.374-5-3h-2c0 2.8 3.075 5 7 5s7-2.2 7-5z"/><path d="m51 25.71v-4.71a19 19 0 0 0 -38 0v4.71a4.392 4.392 0 0 0 0 5.58v29.71a1 1 0 0 0 1 1h36a1 1 0 0 0 1-1v-29.71a4.392 4.392 0 0 0 0-5.58zm-36-4.71a17 17 0 0 1 34 0v3.27a4.472 4.472 0 0 0 -1.5-.27h-.5v-5a1 1 0 0 0 -1-1 12.886 12.886 0 0 1 -9.2-3.82 1 1 0 0 0 -1.38-.04 11.058 11.058 0 0 1 -7.42 2.86h-10a1 1 0 0 0 -1 1v6h-.5a4.472 4.472 0 0 0 -1.5.27zm30-1.03v10.03a13 13 0 0 1 -26 0v-11h9a13.014 13.014 0 0 0 8.05-2.78 14.851 14.851 0 0 0 8.95 3.75zm-31 8.53a2.509 2.509 0 0 1 2.5-2.5h.5v4c0 .34.03.67.05 1h-.55a2.5 2.5 0 0 1 -2.5-2.5zm1 4.22a4.39 4.39 0 0 0 1.5.28h.8a15.051 15.051 0 0 0 6.19 9.34 13.128 13.128 0 0 0 -8.49 6.49zm10 27.28h-3v-6h-2v6h-4.93l.36-5.55a11.072 11.072 0 0 1 9.57-10.36zm12 0h-10v-15.88a14.645 14.645 0 0 0 10 0zm7 0v-6h-2v6h-3v-15.91a11.074 11.074 0 0 1 9.57 10.37l.36 5.54zm5-11.17a13.128 13.128 0 0 0 -8.49-6.49 15.051 15.051 0 0 0 6.19-9.34h.8a4.39 4.39 0 0 0 1.5-.28zm-1.5-17.83h-.55c.02-.33.05-.66.05-1v-4h.5a2.509 2.509 0 0 1 2.5 2.5 2.5 2.5 0 0 1 -2.5 2.5z"/></svg>