<svg id="Kid_avatar" height="512" viewBox="0 0 64 64" width="512" xmlns="http://www.w3.org/2000/svg" data-name="Kid avatar"><path d="m50 61h-36l.43-6.6a12 12 0 0 1 11.985-11.4h11.17a12 12 0 0 1 11.985 11.4z" fill="#3780ea"/><g fill="#ffcbbe"><path d="m14 61h7l1-7h-7.54z"/><path d="m49.54 54h-7.54l1 7h7z"/><circle cx="32" cy="42" r="6"/></g><path d="m27.62 46.1a5.8 5.8 0 0 1 -1.04-1.54l-.49-1.55a11.69 11.69 0 0 0 -3.93.77 10 10 0 0 0 6.61 7.68l1.82-3.64a6.029 6.029 0 0 1 -2.97-1.72z" fill="#5bcbfa"/><path d="m41.84 43.78a10 10 0 0 1 -6.61 7.68l-1.82-3.64a5.976 5.976 0 0 0 4.5-4.81 11.69 11.69 0 0 1 3.93.77z" fill="#5bcbfa"/><path d="m24 9v7l-8 6v22l-3-2-5 2v-25a10 10 0 0 1 10-10z" fill="#3e3d42"/><path d="m32 3a18 18 0 0 1 18 18v8a0 0 0 0 1 0 0h-36a0 0 0 0 1 0 0v-8a18 18 0 0 1 18-18z" fill="#3e3d42"/><path d="m19 31h-2.5a3.5 3.5 0 0 1 -3.5-3.5 3.5 3.5 0 0 1 3.5-3.5h2.5z" fill="#ffcbbe"/><path d="m45 31h2.5a3.5 3.5 0 0 0 3.5-3.5 3.5 3.5 0 0 0 -3.5-3.5h-2.5z" fill="#ffcbbe"/><path d="m46 19v11a14 14 0 0 1 -14 14 14 14 0 0 1 -14-14v-11l3 1.014.811-1.375a4 4 0 0 1 3.529-1.967l13.573.284a4 4 0 0 1 3.245 1.781l.842 1.263z" fill="#ffddce"/><path d="m46.91 10.93a17.7 17.7 0 0 1 2.76 6.66 16.682 16.682 0 0 0 -1.65-1.06c-4.01-2.31-9.7-3.75-16.02-3.75-7.24 0-13.66 1.89-17.67 4.81a17.7 17.7 0 0 1 2.76-6.66 33.962 33.962 0 0 1 14.91-3.15 33.962 33.962 0 0 1 14.91 3.15z" fill="#ea348b"/><path d="m18.5 13c0 .911-1.176 1.515-1.6 2.25-.439.759-.389 2.075-1.147 2.514-.736.425-1.84-.264-2.751-.264s-2.015.689-2.751.264c-.759-.439-.708-1.755-1.147-2.514-.426-.736-1.6-1.339-1.6-2.25s1.176-1.515 1.6-2.25c.439-.759.389-2.075 1.147-2.514.736-.425 1.84.264 2.751.264s2.015-.689 2.751-.264c.759.439.708 1.755 1.147 2.514.424.736 1.6 1.339 1.6 2.25z" fill="#f7afd1"/><path d="m40.5 42.34a14.963 14.963 0 0 0 6.35-10.34h.65a4.507 4.507 0 0 0 4.5-4.5 4.428 4.428 0 0 0 -1-2.79v-3.71a19 19 0 0 0 -33.65-12.09 2.507 2.507 0 0 0 -1.1-1.54 3.038 3.038 0 0 0 -2.4-.04 4.1 4.1 0 0 1 -.85.17 4.1 4.1 0 0 1 -.85-.17 3.038 3.038 0 0 0 -2.4.04 3.1 3.1 0 0 0 -1.26 2.1 3.254 3.254 0 0 1 -.25.78 3.574 3.574 0 0 1 -.52.57 3.124 3.124 0 0 0 -1.22 2.18 3.092 3.092 0 0 0 1.21 2.17 10.8 10.8 0 0 0 -.71 3.83v25a1 1 0 0 0 .44.83 1.023 1.023 0 0 0 .56.17.937.937 0 0 0 .37-.07l4.51-1.81 2.57 1.71a.963.963 0 0 0 1.02.05.984.984 0 0 0 .53-.88v-12h.15a15.007 15.007 0 0 0 6.34 10.34 13.049 13.049 0 0 0 -10.06 11.99l-.43 6.61a1.008 1.008 0 0 0 1 1.06h36a1.008 1.008 0 0 0 1-1.06l-.43-6.59a13.059 13.059 0 0 0 -10.07-12.01zm.15 2.11a8.94 8.94 0 0 1 -4.93 5.74l-.9-1.79a6.941 6.941 0 0 0 3.87-4.33 11.515 11.515 0 0 1 1.96.38zm-8.65 2.55a4.971 4.971 0 0 1 -4.42-2.67 14.914 14.914 0 0 0 8.84 0 4.971 4.971 0 0 1 -4.42 2.67zm18-19.5a2.5 2.5 0 0 1 -2.5 2.5h-.5v-5h.5a2.509 2.509 0 0 1 2.5 2.5zm-18-23.5a16.886 16.886 0 0 1 11.48 4.49 37.951 37.951 0 0 0 -11.48-1.71 37.9 37.9 0 0 0 -11.52 1.72 17.007 17.007 0 0 1 11.52-4.5zm0 4.78a33.159 33.159 0 0 1 14.24 2.95 16.38 16.38 0 0 1 1.8 3.69 34.072 34.072 0 0 0 -16.04-3.64 37.064 37.064 0 0 0 -12.71 2.13 2.1 2.1 0 0 0 .21-.91 2.556 2.556 0 0 0 -.77-1.72 34.234 34.234 0 0 1 13.27-2.5zm-23.5 4.22c0-.15.4-.54.61-.74a4.94 4.94 0 0 0 .86-1.01 5.409 5.409 0 0 0 .46-1.27 3.018 3.018 0 0 1 .31-.88c.02 0 .05-.01.08-.01a4.707 4.707 0 0 1 .81.17 5.452 5.452 0 0 0 1.37.24 5.452 5.452 0 0 0 1.37-.24 3.228 3.228 0 0 1 .88-.16 2.726 2.726 0 0 1 .32.88 5.409 5.409 0 0 0 .46 1.27 4.94 4.94 0 0 0 .86 1.01c.21.2.61.59.61.74s-.4.54-.61.74a4.94 4.94 0 0 0 -.86 1.01 5.409 5.409 0 0 0 -.46 1.27 3.018 3.018 0 0 1 -.31.88 3.225 3.225 0 0 1 -.89-.16 5.452 5.452 0 0 0 -1.37-.24 5.452 5.452 0 0 0 -1.37.24 3.228 3.228 0 0 1 -.88.16 2.726 2.726 0 0 1 -.32-.88 5.409 5.409 0 0 0 -.46-1.27 4.94 4.94 0 0 0 -.86-1.01c-.21-.2-.61-.59-.61-.74zm6.5 29.13-1-.67v-4.46h-2v4.32l-3 1.2v-23.52a9.24 9.24 0 0 1 .06-1.05 2.137 2.137 0 0 0 .69.68 3.038 3.038 0 0 0 2.4.04 4.1 4.1 0 0 1 .85-.17 1.349 1.349 0 0 1 .18.03 18.292 18.292 0 0 0 -.18 2.47v3.71a4.412 4.412 0 0 0 -1 2.79 4.493 4.493 0 0 0 3 4.22zm2-12.13h-.5a2.5 2.5 0 0 1 -2.5-2.5 2.509 2.509 0 0 1 2.5-2.5h.5zm.42-11.81a1.009 1.009 0 0 0 -.42.81v4h-.5a4.472 4.472 0 0 0 -1.5.27v-2.27a16.218 16.218 0 0 1 .15-2.1h.03a2.1 2.1 0 0 0 1.07-.27 2.687 2.687 0 0 0 1.15-1.72 32.679 32.679 0 0 1 14.6-3.13c5.87 0 11.53 1.32 15.53 3.62.4.23.81.49 1.22.77a17.722 17.722 0 0 1 .25 2.83v2.27a4.472 4.472 0 0 0 -1.5-.27h-.5v-4a.983.983 0 0 0 -.42-.81 1 1 0 0 0 -.9-.14l-2.27.76-.42-.63a4.989 4.989 0 0 0 -4.06-2.22l-13.57-.29a5.07 5.07 0 0 0 -4.41 2.46l-.4.68-2.23-.76a1 1 0 0 0 -.9.14zm1.58 11.81v-9.61l1.68.57a1 1 0 0 0 1.18-.44l.81-1.37a3.013 3.013 0 0 1 2.65-1.48l13.57.29a3.031 3.031 0 0 1 2.44 1.33l.84 1.26a1 1 0 0 0 1.15.4l1.68-.56v9.61a13 13 0 0 1 -26 0zm6.31 14.07a6.941 6.941 0 0 0 3.87 4.33l-.9 1.79a8.94 8.94 0 0 1 -4.93-5.74 11.515 11.515 0 0 1 1.96-.38zm-5.18 15.93h-5.06l.32-5h5.46zm21.72 0h-19.7l.84-5.86a1.006 1.006 0 0 0 -.23-.8 1.037 1.037 0 0 0 -.76-.34h-6.39a11.035 11.035 0 0 1 5.88-7.81 10.976 10.976 0 0 0 6.96 7.22 1.127 1.127 0 0 0 .32.05 1 1 0 0 0 .89-.55l1.49-2.97a6.051 6.051 0 0 0 1.7 0l1.49 2.97a1 1 0 0 0 .89.55 1.127 1.127 0 0 0 .32-.05 11.012 11.012 0 0 0 6.97-7.22 11.075 11.075 0 0 1 5.87 7.81h-6.39a1.037 1.037 0 0 0 -.76.34 1.006 1.006 0 0 0 -.23.8zm2.02 0-.72-5h5.46l.32 5z"/><path d="m26 29a1 1 0 0 0 1-1v-2a1 1 0 0 0 -2 0v2a1 1 0 0 0 1 1z"/><path d="m38 29a1 1 0 0 0 1-1v-2a1 1 0 0 0 -2 0v2a1 1 0 0 0 1 1z"/><path d="m39 34h-2c0 1.626-2.29 3-5 3s-5-1.374-5-3h-2c0 2.8 3.075 5 7 5s7-2.2 7-5z"/></svg>