<svg id="Kid_avatar" height="512" viewBox="0 0 64 64" width="512" xmlns="http://www.w3.org/2000/svg" data-name="Kid avatar"><circle cx="20" cy="24" fill="#f8d251" r="5"/><path d="m26.09 37.136c1.741-1.05.91-2.954.91-5.136a6 6 0 1 0 -10.253 4.231 4.915 4.915 0 0 0 -1.016 6.337 4.877 4.877 0 0 0 -2.662 5.2 6 6 0 1 0 8.164 8.164 4.942 4.942 0 0 0 5.767-4.932v-11a4.966 4.966 0 0 0 -.91-2.864z" fill="#f8d251"/><path d="m50.712 47.653a4.945 4.945 0 0 0 -2.443-6.085 4.9 4.9 0 0 0 -.546-5.876 5.987 5.987 0 0 0 -.47-7.923 4.991 4.991 0 1 0 -7.343-.9 5.991 5.991 0 0 0 -2.91 5.131c0 2-1.014 3.774.5 4.864a4.952 4.952 0 0 0 -.5 2.136v11a5 5 0 0 0 5 5c.115 0 .224-.023.338-.03a6 6 0 1 0 8.374-7.317z" fill="#f8d251"/><path d="m19 31h-2.5a3.5 3.5 0 0 1 -3.5-3.5 3.5 3.5 0 0 1 3.5-3.5h2.5z" fill="#ffcbbe"/><path d="m50 61h-36l.43-6.6a12 12 0 0 1 11.985-11.4h11.17a12 12 0 0 1 11.985 11.4z" fill="#365e7d"/><path d="m26 43h12v18h-12z" fill="#e1ecfd"/><circle cx="32" cy="42" fill="#ffcbbe" r="6"/><path d="m45 31h2.5a3.5 3.5 0 0 0 3.5-3.5 3.5 3.5 0 0 0 -3.5-3.5h-2.5z" fill="#ffcbbe"/><path d="m46 21.5c0-4.142-6.268-7.5-14-7.5s-14 3.358-14 7.5v8.5a14 14 0 0 0 28 0z" fill="#ffddce"/><path d="m42 16a3.948 3.948 0 0 0 -1.156.19 4.028 4.028 0 1 0 -1.688 6.62 4 4 0 1 0 2.844-6.81z" fill="#ffda44"/><path d="m42 16a3.948 3.948 0 0 0 -1.156.19 4.028 4.028 0 1 0 -1.688 6.62 4 4 0 1 0 2.844-6.81z" fill="#ffda44"/><path d="m47 18v1h-30v-1a15 15 0 0 1 30 0z" fill="#5bcbfa"/><path d="m48 16.563v2.953a2 2 0 0 1 -2.384 1.963 73.068 73.068 0 0 0 -13.616-1.479 73.068 73.068 0 0 0 -13.616 1.479 2 2 0 0 1 -2.384-1.963v-2.995a2 2 0 0 1 1.528-1.944 61.594 61.594 0 0 1 14.472-1.577 67.111 67.111 0 0 1 14.455 1.615 1.993 1.993 0 0 1 1.545 1.948z" fill="#3780ea"/><g fill="#5bcbfa"><path d="m19 14.244v7.117c1.112-.214 2.467-.449 4-.666v-7.124c-1.591.21-2.929.45-4 .673z"/><path d="m27 13.172v7.065c.981-.085 1.981-.158 3-.2v-7.007c-1.051.028-2.054.076-3 .142z"/><path d="m41 13.632v7.068c1.533.217 2.888.452 4 .666v-7.061c-1.091-.219-2.443-.459-4-.673z"/><path d="m34 13.035v7c1.019.039 2.019.112 3 .2v-7.035c-.961-.075-1.963-.132-3-.165z"/></g><path d="m55 53a6.964 6.964 0 0 0 -3.12-5.82 5.907 5.907 0 0 0 .12-1.18 5.968 5.968 0 0 0 -2.43-4.8 5.982 5.982 0 0 0 .43-2.2 5.888 5.888 0 0 0 -1.04-3.34 6.916 6.916 0 0 0 1.04-3.66 6.008 6.008 0 0 0 -.04-.74 4.476 4.476 0 0 0 2.04-3.76 4.429 4.429 0 0 0 -1.31-3.17 4.226 4.226 0 0 0 -.71-.57 6.11 6.11 0 0 0 -1.15-3.29 3.012 3.012 0 0 0 .17-.95v-2.96a2.95 2.95 0 0 0 -1.53-2.6 15.987 15.987 0 0 0 -30.93-.05 2.987 2.987 0 0 0 -1.54 2.61v3a3.012 3.012 0 0 0 .17.95 6.049 6.049 0 0 0 -1.15 3.28 4.1 4.1 0 0 0 -.69.57 4.406 4.406 0 0 0 -1.33 3.18 4.482 4.482 0 0 0 2.04 3.76 6.117 6.117 0 0 0 -.04.74 6.959 6.959 0 0 0 1.39 4.19 5.891 5.891 0 0 0 -.96 6.01 5.968 5.968 0 0 0 -2.43 4.8 2.348 2.348 0 0 0 .01.26 6.981 6.981 0 0 0 1.09 12.1l-.1 1.58a1.008 1.008 0 0 0 1 1.06h36a1.008 1.008 0 0 0 1-1.06l-.1-1.58a6.994 6.994 0 0 0 4.1-6.36zm-6.42-27.74a1.961 1.961 0 0 1 .69.48 2.491 2.491 0 0 1 -.8 4.06 2.514 2.514 0 0 1 -.97.2h-.5v-5h.5a2.352 2.352 0 0 1 1.08.26zm-1.08-3.16a4 4 0 0 1 .37.94c-.13-.01-.24-.04-.37-.04h-.5v-.67a3.218 3.218 0 0 0 .5-.23zm-1.5-6.56c.08.02.16.03.23.05a.987.987 0 0 1 .77.97v2.96a.971.971 0 0 1 -.37.77 1.006 1.006 0 0 1 -.63.22zm-14-11.54a14.05 14.05 0 0 1 13.19 9.32 68.717 68.717 0 0 0 -13.19-1.32 65.148 65.148 0 0 0 -13.17 1.26 13.924 13.924 0 0 1 13.17-9.26zm12.03 18.2a2.991 2.991 0 0 1 -2.03.8 3.048 3.048 0 0 1 -2.13-.89.989.989 0 0 0 -.99-.26 3.174 3.174 0 0 1 -.88.15 2.967 2.967 0 0 1 -2.08-.85 75.343 75.343 0 0 1 8.11 1.05zm-9.03-3.11v-5.01c.34.01.67.03 1 .05v5.02zm3 .23v-5.03c.69.07 1.36.14 2 .22v5.04c-.64-.08-1.31-.16-2-.23zm4 .51v-5.04c.72.11 1.39.23 2 .34v5.03c-.61-.11-1.28-.22-2-.33zm-9-5.82v5c-.33-.01-.67-.01-1-.01s-.67 0-1 .01v-5c.33-.01.66-.01 1-.01s.67 0 1 .01zm-4 .05v5.03l-1 .06v-5.04c.33-.02.66-.03 1-.05zm-3 .19v5.07c-.69.07-1.36.15-2 .23v-5.1c.63-.07 1.3-.14 2-.2zm-4 .47v5.11c-.72.11-1.39.22-2 .33v-5.1c.6-.11 1.27-.23 2-.34zm-5 1.8a1 1 0 0 1 .77-.97c.07-.02.15-.04.23-.06v5.02a1.006 1.006 0 0 1 -.63-.22.971.971 0 0 1 -.37-.77zm-.51 5.59a4.742 4.742 0 0 0 .51.24v.65h-.5c-.12 0-.24.03-.37.04a3.739 3.739 0 0 1 .36-.93zm-2.49 5.39a2.509 2.509 0 0 1 2.5-2.5h.5v5h-.5a2.5 2.5 0 0 1 -2.5-2.5zm-.57 26.83-.18 2.83a4.982 4.982 0 0 1 .31-8.52 1 1 0 0 0 .5-1.03 4.067 4.067 0 0 1 -.06-.61 3.975 3.975 0 0 1 2.19-3.54 1 1 0 0 0 .5-.62.97.97 0 0 0 -.1-.78 3.908 3.908 0 0 1 .82-5.07 1.065 1.065 0 0 0 .34-.72 1.041 1.041 0 0 0 -.29-.75 4.947 4.947 0 0 1 -1.46-3.52v-.05a4.233 4.233 0 0 0 .5.05h.65a14.968 14.968 0 0 0 4.24 8.61 15.556 15.556 0 0 0 2.1 1.73 13.038 13.038 0 0 0 -10.06 11.99zm11.57 5.67h-9.93l.36-5.55a11.01 11.01 0 0 1 9.57-10.35zm12 0h-10v-13.11a6.991 6.991 0 0 0 10 .01zm-9.42-15.66a15.21 15.21 0 0 0 4.42.66 14.644 14.644 0 0 0 4.42-.67 5 5 0 0 1 -8.84.01zm4.42-1.34a13.008 13.008 0 0 1 -13-13v-7.62a71.852 71.852 0 0 1 13-1.38c.48 0 .96.01 1.43.02a5 5 0 0 0 4.57 2.98 4.713 4.713 0 0 0 .89-.09 5.01 5.01 0 0 0 3.11 1.09 4.929 4.929 0 0 0 3-1.01v6.01a13.012 13.012 0 0 1 -13 13zm7 17v-15.9a11.038 11.038 0 0 1 9.57 10.36l.36 5.54zm11.75-2.84-.18-2.81a13.059 13.059 0 0 0 -10.07-12.01 14.963 14.963 0 0 0 6.35-10.34h.65a4.233 4.233 0 0 0 .5-.05v.05a4.921 4.921 0 0 1 -1.07 3.07 1.01 1.01 0 0 0 .04 1.28 3.91 3.91 0 0 1 .44 4.71.97.97 0 0 0 -.1.78 1 1 0 0 0 .5.62 3.975 3.975 0 0 1 2.19 3.54 4.077 4.077 0 0 1 -.23 1.32.991.991 0 0 0 .49 1.22 4.986 4.986 0 0 1 .49 8.62z"/><path d="m26 29a1 1 0 0 0 1-1v-2a1 1 0 0 0 -2 0v2a1 1 0 0 0 1 1z"/><path d="m38 25a1 1 0 0 0 -1 1v2a1 1 0 0 0 2 0v-2a1 1 0 0 0 -1-1z"/><path d="m32 37c-2.71 0-5-1.374-5-3h-2c0 2.8 3.075 5 7 5s7-2.2 7-5h-2c0 1.626-2.29 3-5 3z"/></svg>