<svg id="Kid_avatar" height="512" viewBox="0 0 64 64" width="512" xmlns="http://www.w3.org/2000/svg" data-name="Kid avatar"><path d="m50 61h-36l.43-6.6a12 12 0 0 1 11.985-11.4h11.17a12 12 0 0 1 11.985 11.4z" fill="#3780ea"/><g fill="#ffcbbe"><path d="m14 61h7l1-7h-7.54z"/><path d="m49.54 54h-7.54l1 7h7z"/><circle cx="32" cy="42" r="6"/></g><path d="m27.62 46.1a5.8 5.8 0 0 1 -1.04-1.54l-.49-1.55a11.69 11.69 0 0 0 -3.93.77 10 10 0 0 0 6.61 7.68l1.82-3.64a6.029 6.029 0 0 1 -2.97-1.72z" fill="#5bcbfa"/><path d="m41.84 43.78a10 10 0 0 1 -6.61 7.68l-1.82-3.64a5.976 5.976 0 0 0 4.5-4.81 11.69 11.69 0 0 1 3.93.77z" fill="#5bcbfa"/><path d="m24 26-8.205 10.848-3.759-1.368 5.386-11.874z" fill="#3e3d42"/><path d="m10.232 36.043h6v4h-6z" fill="#ea348b" transform="matrix(.94 .342 -.342 .94 13.81 -2.231)"/><path d="m10.668 39.239 3.759 1.368-1.455 6.92-2.972-2.527-2.666.474z" fill="#3e3d42"/><path d="m40 26 8.205 10.848 3.759-1.368-5.386-11.874z" fill="#3e3d42"/><path d="m47.768 36.043h6v4h-6z" fill="#ea348b" transform="matrix(-.94 .342 -.342 -.94 111.487 56.428)"/><path d="m53.332 39.239-3.759 1.368 1.455 6.92 2.972-2.527 2.666.474z" fill="#3e3d42"/><path d="m32 3a18 18 0 0 1 18 18v8a0 0 0 0 1 0 0h-36a0 0 0 0 1 0 0v-8a18 18 0 0 1 18-18z" fill="#3e3d42"/><path d="m19 31h-2.5a3.5 3.5 0 0 1 -3.5-3.5 3.5 3.5 0 0 1 3.5-3.5h2.5z" fill="#ffcbbe"/><path d="m45 31h2.5a3.5 3.5 0 0 0 3.5-3.5 3.5 3.5 0 0 0 -3.5-3.5h-2.5z" fill="#ffcbbe"/><path d="m46 19v11a14 14 0 0 1 -14 14 14 14 0 0 1 -14-14v-11l5 1.014 6-1.391 3 1.812 9-1.435 2 1 2-1z" fill="#ffddce"/><path d="m57.55 45-2.81-5.24a1 1 0 0 0 .47-1.21l-1.37-3.75a1 1 0 0 0 -1.28-.6l-.07.02-1.68-3.7a4.41 4.41 0 0 0 .19-5.81v-3.71a19 19 0 0 0 -38 0v3.71a4.412 4.412 0 0 0 -1 2.79 4.462 4.462 0 0 0 1.19 3.02l-1.68 3.7-.07-.02a1 1 0 0 0 -1.28.6l-1.37 3.75a1 1 0 0 0 .47 1.21l-2.81 5.24a.993.993 0 0 0 .08 1.06.983.983 0 0 0 .98.4l2.2-.39 2.62 2.22a1.015 1.015 0 0 0 .64.24.96.96 0 0 0 .33-.06.98.98 0 0 0 .65-.74l1.22-5.82a.711.711 0 0 0 .2.04 1.007 1.007 0 0 0 .94-.66l1.36-3.76a.975.975 0 0 0 -.31-1.1l.7-.93a15.07 15.07 0 0 0 5.43 6.84 13.049 13.049 0 0 0 -10.06 11.99l-.43 6.61a1.008 1.008 0 0 0 1 1.06h36a1.008 1.008 0 0 0 1-1.06l-.43-6.59a13.059 13.059 0 0 0 -10.07-12.01 14.974 14.974 0 0 0 5.44-6.84l.7.93a.975.975 0 0 0 -.31 1.1l1.36 3.76a1.007 1.007 0 0 0 .94.66.711.711 0 0 0 .2-.04l1.22 5.82a.98.98 0 0 0 .65.74.96.96 0 0 0 .33.06 1.015 1.015 0 0 0 .64-.24l2.62-2.22 2.2.39a.983.983 0 0 0 .98-.4.993.993 0 0 0 .08-1.06zm-7.55-17.5a2.5 2.5 0 0 1 -2.5 2.5h-.5v-5h.5a2.509 2.509 0 0 1 2.5 2.5zm-35.26-1.77a2.465 2.465 0 0 1 1.76-.73h.5v5h-.5a2.5 2.5 0 0 1 -2.5-2.5 2.474 2.474 0 0 1 .74-1.77zm-2.4 19.95-1.69-1.44a.969.969 0 0 0 -.65-.24.554.554 0 0 0 -.18.02l-.63.11 1.95-3.65 2.13.77zm2.43-6.01-3.76-1.37.68-1.88.65.24 3.11 1.13zm.67-4.02-1.92-.69-.12-.05 1.46-3.23a4.477 4.477 0 0 0 1.64.32h.65c.05.38.11.77.19 1.14zm9.87 8.42a6.941 6.941 0 0 0 3.87 4.33l-.9 1.79a8.94 8.94 0 0 1 -4.93-5.74 11.515 11.515 0 0 1 1.96-.38zm2.27.26a14.914 14.914 0 0 0 8.84 0 4.994 4.994 0 0 1 -8.84 0zm-7.45 15.67h-5.06l.32-5h5.46zm28.8 0h-5.06l-.72-5h5.46zm-.54-7h-6.39a1.037 1.037 0 0 0 -.76.34 1.006 1.006 0 0 0 -.23.8l.84 5.86h-19.7l.84-5.86a1.006 1.006 0 0 0 -.23-.8 1.037 1.037 0 0 0 -.76-.34h-6.39a11.035 11.035 0 0 1 5.88-7.81 10.976 10.976 0 0 0 6.96 7.22 1.127 1.127 0 0 0 .32.05 1 1 0 0 0 .89-.55l1.49-2.97a6.051 6.051 0 0 0 1.7 0l1.49 2.97a1 1 0 0 0 .89.55 1.127 1.127 0 0 0 .32-.05 10.976 10.976 0 0 0 6.96-7.22 11.061 11.061 0 0 1 5.88 7.81zm-7.74-8.55a8.94 8.94 0 0 1 -4.93 5.74l-.9-1.79a6.941 6.941 0 0 0 3.87-4.33 11.515 11.515 0 0 1 1.96.38zm4.35-14.45a13 13 0 0 1 -26 0v-9.78l3.8.77a1.038 1.038 0 0 0 .43 0l5.6-1.3 2.65 1.6a1.012 1.012 0 0 0 .68.13l8.68-1.38 1.71.85a.956.956 0 0 0 .9 0l1.55-.77zm1-12h-1a1 1 0 0 0 -.45.11l-1.55.77-1.55-.77a.993.993 0 0 0 -.61-.1l-8.64 1.38-2.68-1.62a.989.989 0 0 0 -.75-.12l-5.78 1.34-4.79-.97a1 1 0 0 0 -.83.21.971.971 0 0 0 -.37.77v4h-.5a4.472 4.472 0 0 0 -1.5.27v-2.27a17 17 0 0 1 34 0v2.27a4.472 4.472 0 0 0 -1.5-.27h-.5v-4a1 1 0 0 0 -1-1zm.66 15.14c.08-.37.14-.76.19-1.14h.65a4.477 4.477 0 0 0 1.64-.32l1.46 3.23-.12.05-1.92.69zm2.57 6.53-.68-1.88 3.11-1.13.65-.24.68 1.88zm4.95 4.35a.963.963 0 0 0 -.83.22l-1.69 1.44-.93-4.43 2.13-.77 1.95 3.65z"/><path d="m26 29a1 1 0 0 0 1-1v-2a1 1 0 0 0 -2 0v2a1 1 0 0 0 1 1z"/><path d="m38 25a1 1 0 0 0 -1 1v2a1 1 0 0 0 2 0v-2a1 1 0 0 0 -1-1z"/><path d="m32 37c-2.71 0-5-1.374-5-3h-2c0 2.8 3.075 5 7 5s7-2.2 7-5h-2c0 1.626-2.29 3-5 3z"/></svg>