<svg id="Kid_avatar" height="512" viewBox="0 0 64 64" width="512" xmlns="http://www.w3.org/2000/svg" data-name="Kid avatar"><path d="m50 61h-36l.43-6.6a12 12 0 0 1 11.985-11.4h11.17a12 12 0 0 1 11.985 11.4z" fill="#3780ea"/><g fill="#ffcbbe"><path d="m14 61h7l1-7h-7.54z"/><path d="m49.54 54h-7.54l1 7h7z"/><circle cx="32" cy="42" r="6"/></g><path d="m27.62 46.1a5.8 5.8 0 0 1 -1.04-1.54l-.49-1.55a11.69 11.69 0 0 0 -3.93.77 10 10 0 0 0 6.61 7.68l1.82-3.64a6.029 6.029 0 0 1 -2.97-1.72z" fill="#5bcbfa"/><path d="m41.84 43.78a10 10 0 0 1 -6.61 7.68l-1.82-3.64a5.976 5.976 0 0 0 4.5-4.81 11.69 11.69 0 0 1 3.93.77z" fill="#5bcbfa"/><path d="m16.476 43.52-5.734-6.016 7.258-6.504 2 2z" fill="#ec455a"/><path d="m47.524 43.52 5.734-6.016-7.258-6.504-2 2z" fill="#ec455a"/><ellipse cx="32" cy="11" fill="#cc8355" rx="13" ry="8"/><ellipse cx="32" cy="19" fill="#7e543b" rx="22" ry="9"/><path d="m19 31h-2.5a3.5 3.5 0 0 1 -3.5-3.5 3.5 3.5 0 0 1 3.5-3.5h2.5z" fill="#ffcbbe"/><path d="m45 31h2.5a3.5 3.5 0 0 0 3.5-3.5 3.5 3.5 0 0 0 -3.5-3.5h-2.5z" fill="#ffcbbe"/><path d="m46 21.5c0-4.142-6.268-7.5-14-7.5s-14 3.358-14 7.5v8.5a14 14 0 0 0 28 0z" fill="#ffddce"/><path d="m22.43 16.03h.01a18.718 18.718 0 0 1 5.37-1.68 21.845 21.845 0 0 1 2.48-.29q.84-.06 1.71-.06c6.09 0 11.28 2.09 13.2 5z" fill="#ffddce"/><path d="m44.97 18.67a3.944 3.944 0 0 1 -2.97 1.33 4 4 0 0 1 -3.7-2.49 4.977 4.977 0 0 1 -8.87-.49 3.984 3.984 0 0 1 -7.26-.86 21.581 21.581 0 0 1 9.83-2.16c5.86 0 10.88 1.93 12.97 4.67z" fill="#ec455a"/><path d="m48.52 31.87a4.492 4.492 0 0 0 3.48-4.37 4.434 4.434 0 0 0 -.98-2.77c2.61-1.65 3.98-3.61 3.98-5.73 0-3.3-3.5-6.17-9-7.99v-.01c0-5.05-6.15-9-14-9s-14 3.95-14 9v.01c-5.5 1.82-9 4.69-9 7.99 0 2.12 1.37 4.08 3.98 5.73a4.455 4.455 0 0 0 -.98 2.77 4.5 4.5 0 0 0 3.51 4.38l-5.44 4.87a1.03 1.03 0 0 0 -.33.71 1 1 0 0 0 .28.73l5.74 6.02a.992.992 0 0 0 .72.31 1.8 1.8 0 0 0 .22-.02 1.014 1.014 0 0 0 .73-.66l1.93-5.78a14.309 14.309 0 0 0 4.13 4.28 13.047 13.047 0 0 0 -10.06 11.99l-.43 6.6a.985.985 0 0 0 .27.75.97.97 0 0 0 .73.32h36a.97.97 0 0 0 .73-.32.985.985 0 0 0 .27-.75l-.43-6.58a13.059 13.059 0 0 0 -10.07-12.01 14.8 14.8 0 0 0 4.16-4.33l1.95 5.83a1.014 1.014 0 0 0 .73.66 1.635 1.635 0 0 0 .22.02.992.992 0 0 0 .72-.31l5.74-6.02a1 1 0 0 0 .28-.73 1.03 1.03 0 0 0 -.33-.71zm-1.02-1.87h-.5v-5h.5a2.509 2.509 0 0 1 2.5 2.5 2.5 2.5 0 0 1 -2.5 2.5zm-15.5-26c6.17 0 11.41 2.88 11.95 6.41a48.135 48.135 0 0 0 -11.95-1.41 48.135 48.135 0 0 0 -11.95 1.41c.54-3.53 5.78-6.41 11.95-6.41zm-18 23.5a2.509 2.509 0 0 1 2.5-2.5h.5v5h-.5a2.5 2.5 0 0 1 -2.5-2.5zm2.06 14.13-3.88-4.07 5.12-4.59a14.644 14.644 0 0 0 .78 2.62zm9.25 2.44a6.968 6.968 0 0 0 3.87 4.33l-.9 1.8a8.981 8.981 0 0 1 -4.93-5.75 11.515 11.515 0 0 1 1.96-.38zm2.27.27a15.16 15.16 0 0 0 4.42.66 14.644 14.644 0 0 0 4.42-.67 5 5 0 0 1 -8.84.01zm-7.45 15.66h-5.06l.32-5h5.46zm28.8 0h-5.06l-.72-5h5.46zm-.54-7h-6.39a1.037 1.037 0 0 0 -.76.34 1.006 1.006 0 0 0 -.23.8l.84 5.86h-19.7l.84-5.86a1.006 1.006 0 0 0 -.23-.8 1.037 1.037 0 0 0 -.76-.34h-6.39a11.035 11.035 0 0 1 5.88-7.81 10.976 10.976 0 0 0 6.96 7.22 1.127 1.127 0 0 0 .32.05 1 1 0 0 0 .89-.55l1.49-2.97a6.051 6.051 0 0 0 1.7 0l1.49 2.97a1 1 0 0 0 .89.55 1.127 1.127 0 0 0 .32-.05 10.976 10.976 0 0 0 6.96-7.22 11.061 11.061 0 0 1 5.88 7.81zm-7.74-8.55a8.981 8.981 0 0 1 -4.93 5.75l-.9-1.8a6.968 6.968 0 0 0 3.87-4.33 11.515 11.515 0 0 1 1.96.38zm4.35-14.45a13 13 0 0 1 -26 0v-8.5c0-1.46 1.03-2.82 2.73-3.92a4.966 4.966 0 0 0 7.58 1.15 5.95 5.95 0 0 0 8.89.52 4.989 4.989 0 0 0 6.52.94 3.315 3.315 0 0 1 .28 1.31zm-21.51-13.36a21.614 21.614 0 0 1 8.51-1.64c4.95 0 9.34 1.47 11.53 3.56a2.9 2.9 0 0 1 -1.53.44 3 3 0 0 1 -2.78-1.87.994.994 0 0 0 -1.78-.13 3.977 3.977 0 0 1 -3.44 2 4.031 4.031 0 0 1 -3.66-2.39.994.994 0 0 0 -.86-.59 1.008 1.008 0 0 0 -.91.49 2.952 2.952 0 0 1 -2.57 1.49 3 3 0 0 1 -2.51-1.36zm8.51-3.64c-8.41 0-15 3.73-15 8.5v1.5h-.5a4.331 4.331 0 0 0 -1.83.4c-2.36-1.34-3.67-2.89-3.67-4.4 0-3.86 8.44-8 21-8s21 4.14 21 8c0 1.51-1.31 3.06-3.67 4.4a4.365 4.365 0 0 0 -1.83-.4h-.5v-1.5c0-4.77-6.59-8.5-15-8.5zm15.98 28.63-2.04-6.12a14.679 14.679 0 0 0 .77-2.57l5.15 4.62z"/><path d="m26 29a1 1 0 0 0 1-1v-2a1 1 0 0 0 -2 0v2a1 1 0 0 0 1 1z"/><path d="m38 25a1 1 0 0 0 -1 1v2a1 1 0 0 0 2 0v-2a1 1 0 0 0 -1-1z"/><path d="m32 37c-2.71 0-5-1.374-5-3h-2c0 2.8 3.075 5 7 5s7-2.2 7-5h-2c0 1.626-2.29 3-5 3z"/></svg>