<svg width="24" height="24" viewBox="0 0 24 24" fill="none" xmlns="http://www.w3.org/2000/svg">
<path fill-rule="evenodd" clip-rule="evenodd" d="M24 12C24 18.6274 18.6274 24 12 24C5.37258 24 0 18.6274 0 12C0 5.37258 5.37258 0 12 0C18.6274 0 24 5.37258 24 12ZM7.67082 15.6646C7.48558 15.2941 7.03507 15.1439 6.66459 15.3292C6.29411 15.5144 6.14394 15.9649 6.32918 16.3354C8.60557 20.8882 15.3944 20.8882 17.6708 16.3354C17.8561 15.9649 17.7059 15.5144 17.3354 15.3292C16.9649 15.1439 16.5144 15.2941 16.3292 15.6646C14.6056 19.1118 9.39443 19.1118 7.67082 15.6646ZM9.7749 6.2569C9.20113 6.2569 8.66398 6.53768 8.34251 7.00565L8.2774 7.09111L8.23263 7.03414C7.91523 6.54582 7.37808 6.2569 6.80024 6.2569C5.80732 6.2569 5.09113 6.97717 5.09113 7.96601C5.09113 9.43096 7.74025 11.5877 7.93557 11.7423C8.0251 11.8278 8.14718 11.8766 8.27333 11.8766C8.39948 11.8766 8.51749 11.8278 8.61108 11.7423C8.80641 11.5877 11.4922 9.39434 11.4922 7.96601C11.4881 6.97717 10.7678 6.2569 9.7749 6.2569ZM15.8544 7.00565C16.1759 6.53768 16.7131 6.2569 17.2868 6.2569C18.2797 6.2569 18.9959 6.97717 19 7.96601C19 9.39434 16.3183 11.5877 16.123 11.7423C16.0294 11.8278 15.9114 11.8766 15.7853 11.8766C15.6591 11.8766 15.537 11.8278 15.4475 11.7423C15.2522 11.5877 12.6031 9.43096 12.6031 7.96601C12.6031 6.97717 13.3193 6.2569 14.3122 6.2569C14.89 6.2569 15.4272 6.54582 15.7446 7.03414L15.7893 7.09111L15.8544 7.00565Z" fill="#A9A8A5"/>
</svg>
