<svg width="24" height="25" viewBox="0 0 24 25" fill="none" xmlns="http://www.w3.org/2000/svg">
<g clip-path="url(#clip0)">
<path d="M12 0.387207C5.37097 0.387207 0 5.75817 0 12.3872C0 19.0162 5.37097 24.3872 12 24.3872C18.629 24.3872 24 19.0162 24 12.3872C24 5.75817 18.629 0.387207 12 0.387207ZM15.871 8.51624C16.7274 8.51624 17.4194 9.20817 17.4194 10.0646C17.4194 10.9211 16.7274 11.613 15.871 11.613C15.0145 11.613 14.3226 10.9211 14.3226 10.0646C14.3226 9.20817 15.0145 8.51624 15.871 8.51624ZM8.12903 8.51624C8.98548 8.51624 9.67742 9.20817 9.67742 10.0646C9.67742 10.9211 8.98548 11.613 8.12903 11.613C7.27258 11.613 6.58065 10.9211 6.58065 10.0646C6.58065 9.20817 7.27258 8.51624 8.12903 8.51624ZM17.5548 16.7517C16.1758 18.4066 14.1532 19.3549 12 19.3549C9.84677 19.3549 7.82419 18.4066 6.44516 16.7517C5.7871 15.963 6.97742 14.9759 7.63548 15.7598C8.71935 17.0614 10.3065 17.8017 12 17.8017C13.6935 17.8017 15.2806 17.0566 16.3645 15.7598C17.0129 14.9759 18.2081 15.963 17.5548 16.7517Z" fill="#A9A8A5"/>
</g>
<defs>
<clipPath id="clip0">
<rect width="24" height="24.7742" fill="white"/>
</clipPath>
</defs>
</svg>
