<svg width="40" height="40" viewBox="0 0 40 40" fill="none" xmlns="http://www.w3.org/2000/svg">
<circle cx="20" cy="20" r="20" transform="rotate(-180 20 20)" fill="#F8DE71"/>
<path d="M21.6108 23.1311C21.4012 23.3405 21.117 23.4582 20.8207 23.4582C20.5244 23.4582 20.2402 23.3405 20.0307 23.1311L14.906 18.0075C14.6952 17.8039 14.413 17.6913 14.12 17.6938C13.827 17.6964 13.5467 17.8139 13.3395 18.0211C13.1323 18.2283 13.0148 18.5086 13.0122 18.8016C13.0097 19.0945 13.1223 19.3768 13.3259 19.5876L18.4506 24.7078C19.0792 25.3363 19.9318 25.6893 20.8207 25.6893C21.7097 25.6893 22.5622 25.3363 23.1909 24.7078L28.3155 19.5831C28.5191 19.3724 28.6317 19.0901 28.6292 18.7971C28.6266 18.5041 28.5091 18.2238 28.3019 18.0166C28.0947 17.8094 27.8145 17.6919 27.5215 17.6894C27.2285 17.6868 26.9462 17.7995 26.7355 18.003L21.6108 23.1311Z" fill="#FAF9F7"/>
</svg>
