<svg width="24" height="24" viewBox="0 0 24 24" fill="none" xmlns="http://www.w3.org/2000/svg">
<path d="M12 24C18.6274 24 24 18.6274 24 12C24 5.37258 18.6274 0 12 0C5.37258 0 0 5.37258 0 12C0 18.6274 5.37258 24 12 24Z" fill="#F2C611"/>
<path d="M14.8057 6.62535C15.5155 7.2676 15.8536 8.11267 15.8536 9.12676C15.8536 10.1408 15.4479 11.0535 14.7043 11.8648C14.2648 12.338 13.4536 12.9465 12.3043 13.7239C11.0536 14.5352 10.3099 15.2789 10.0733 15.9211H15.8874V17.4761H7.90991C7.90991 16.3268 8.28174 15.3127 9.05921 14.4338C9.46484 13.9268 10.3437 13.2169 11.662 12.338C12.4395 11.7972 12.9803 11.3577 13.3184 11.0197C13.8254 10.4451 14.1296 9.80281 14.1296 9.12676C14.1296 8.4845 13.9606 7.97746 13.5888 7.67324C13.217 7.33521 12.7099 7.2 12.0001 7.2C11.2564 7.2 10.7155 7.43662 10.3437 7.94366C9.93808 8.4169 9.76907 9.12676 9.73526 10.0732H7.97752C7.97752 8.78873 8.38315 7.74084 9.09301 6.96338C9.83667 6.11831 10.8508 5.71267 12.0677 5.71267C13.1832 5.67887 14.0958 5.98309 14.8057 6.62535Z" fill="white"/>
</svg>
