<svg width="24" height="24" viewBox="0 0 24 24" fill="none" xmlns="http://www.w3.org/2000/svg">
<path d="M12 24C18.6274 24 24 18.6274 24 12C24 5.37258 18.6274 0 12 0C5.37258 0 0 5.37258 0 12C0 18.6274 5.37258 24 12 24Z" fill="#F2C611"/>
<path d="M15.6845 6.35493V7.90986H10.1071L9.76905 11.2563H9.80285C10.1747 10.8845 10.5803 10.6141 11.0197 10.4451C11.4254 10.2761 11.9324 10.1746 12.4395 10.1746C13.5212 10.1746 14.4338 10.5465 15.1099 11.2563C15.7859 11.9662 16.1578 12.9465 16.1578 14.1972C16.1578 15.4141 15.7183 16.3606 14.8395 17.138C14.0282 17.8141 13.0141 18.1521 11.8648 18.1521C10.8169 18.1521 9.93806 17.8479 9.1944 17.307C8.38313 16.6986 7.90989 15.8197 7.84229 14.7718H9.56623C9.63383 15.4141 9.90426 15.9211 10.3437 16.2592C10.7493 16.5634 11.2564 16.6986 11.8986 16.6986C12.6085 16.6986 13.2169 16.462 13.6902 16.0225C14.1634 15.5831 14.4338 14.9746 14.4338 14.231C14.4338 13.4197 14.231 12.7775 13.7916 12.338C13.3859 11.8986 12.7775 11.662 12 11.662C11.493 11.662 11.0536 11.7296 10.6479 11.9324C10.2423 12.1352 9.90426 12.4394 9.70144 12.8451H8.0451L8.68736 6.35493H15.6845Z" fill="white"/>
</svg>
