<svg width="24" height="24" viewBox="0 0 24 24" fill="none" xmlns="http://www.w3.org/2000/svg">
<path d="M12 24C18.6274 24 24 18.6274 24 12C24 5.37258 18.6274 0 12 0C5.37258 0 0 5.37258 0 12C0 18.6274 5.37258 24 12 24Z" fill="#F2C611"/>
<path d="M16.0225 9.16056H14.2985C14.0619 8.01127 13.352 7.47042 12.2027 7.47042C11.3915 7.47042 10.7492 7.87605 10.276 8.65352C9.80274 9.39718 9.56612 10.3099 9.56612 11.4592C9.56612 11.493 9.56612 11.5606 9.56612 11.662H9.63372C9.97175 11.1549 10.3774 10.7831 10.8506 10.5127C11.2901 10.2761 11.8309 10.1408 12.4732 10.1408C13.6225 10.1408 14.5013 10.5127 15.2112 11.2225C15.8872 11.9662 16.2253 12.8789 16.2253 14.0282C16.2253 15.1775 15.8196 16.1239 15.076 16.8676C14.2985 17.6113 13.3182 18.0169 12.2027 18.0169C10.783 18.0169 9.70133 17.5099 8.95767 16.462C8.24781 15.4817 7.87598 14.0958 7.87598 12.338C7.87598 10.4451 8.24781 8.92394 9.02527 7.77465C9.80274 6.59155 10.8844 6.0169 12.2027 6.0169C14.4337 6.0169 15.7182 7.03098 16.0225 9.16056ZM10.4112 12.2704C10.0056 12.7099 9.76893 13.3183 9.76893 14.0958C9.76893 14.8394 9.97175 15.4479 10.4112 15.8873C10.8168 16.3268 11.3915 16.5634 12.1013 16.5634C12.8112 16.5634 13.3858 16.3268 13.7915 15.8535C14.2309 15.3803 14.4675 14.7718 14.4675 14.0282C14.4675 13.2845 14.2647 12.6761 13.8253 12.2704C13.4196 11.831 12.8112 11.5944 12.1013 11.5944C11.4253 11.5944 10.8506 11.831 10.4112 12.2704Z" fill="white"/>
</svg>
