<svg width="24" height="24" viewBox="0 0 24 24" fill="none" xmlns="http://www.w3.org/2000/svg">
<path d="M12 24C18.6274 24 24 18.6274 24 12C24 5.37258 18.6274 0 12 0C5.37258 0 0 5.37258 0 12C0 18.6274 5.37258 24 12 24Z" fill="#F2C611"/>
<path d="M14.9747 6.86196C15.617 7.43661 15.955 8.18028 15.955 9.02535C15.955 9.6338 15.8198 10.1408 15.5494 10.5465C15.2452 10.9859 14.8057 11.3239 14.2311 11.5268V11.5606C14.7719 11.6958 15.279 12 15.6508 12.5408C16.0902 13.0817 16.3269 13.7239 16.3269 14.4676C16.3269 15.4817 15.955 16.3268 15.2114 16.969C14.4339 17.6113 13.386 17.9155 12.0001 17.9155C10.6142 17.9155 9.5663 17.5775 8.78883 16.969C8.04517 16.3268 7.67334 15.4817 7.67334 14.4676C7.67334 13.7239 7.90996 13.1155 8.3494 12.5408C8.75503 12.0338 9.19447 11.6958 9.76911 11.5606V11.5268C9.19447 11.2901 8.75503 10.9859 8.45081 10.5465C8.18038 10.1408 8.04517 9.6338 8.04517 9.02535C8.04517 8.18028 8.3832 7.43661 9.02545 6.86196C9.73531 6.21971 10.7156 5.88168 11.9663 5.88168C13.217 5.88168 14.2311 6.21971 14.9747 6.86196ZM10.1071 12.9465C9.6677 13.3521 9.46489 13.8253 9.46489 14.5014C9.46489 15.1099 9.66771 15.5831 10.1409 15.9549C10.5804 16.3268 11.2226 16.5296 12.0339 16.5296C12.8452 16.5296 13.4874 16.3268 13.9607 15.9549C14.3663 15.5831 14.6029 15.1099 14.6029 14.5014C14.6029 13.8591 14.4001 13.3521 13.9607 12.9803C13.5212 12.5746 12.879 12.338 12.0339 12.338C11.1888 12.338 10.5466 12.507 10.1071 12.9465ZM10.31 7.87605C9.93813 8.21408 9.76911 8.61971 9.76911 9.09295C9.76911 9.6338 9.90433 10.0732 10.2086 10.4113C10.5804 10.8169 11.1888 10.9859 12.0001 10.9859C12.8114 10.9859 13.4198 10.7831 13.7916 10.4113C14.0959 10.0732 14.2311 9.6338 14.2311 9.09295C14.2311 8.61971 14.0283 8.18027 13.6902 7.87605C13.2846 7.47042 12.71 7.3014 12.0001 7.3014C11.2902 7.3014 10.7494 7.47042 10.31 7.87605Z" fill="white"/>
</svg>
