<svg id="Kid_avatar" height="512" viewBox="0 0 64 64" width="512" xmlns="http://www.w3.org/2000/svg" data-name="Kid avatar"><path d="m56 20-13-8-8 10 11 8z" fill="#fae058"/><path d="m19 30h-2.5a3.5 3.5 0 0 1 -3.5-3.5 3.5 3.5 0 0 1 3.5-3.5h2.5z" fill="#ffcbbe"/><path d="m45 30h2.5a3.5 3.5 0 0 0 3.5-3.5 3.5 3.5 0 0 0 -3.5-3.5h-2.5z" fill="#ffcbbe"/><path d="m50 61h-36l.43-8.6a12 12 0 0 1 11.985-11.4h11.17a12 12 0 0 1 11.985 11.4z" fill="#d8514b"/><g fill="#ffcbbe"><path d="m14 61h7l1-9h-7.54z"/><path d="m49.54 52h-7.54l1 9h7z"/><circle cx="32" cy="40" r="6"/><path d="m19 30h-2.5a3.5 3.5 0 0 1 -3.5-3.5 3.5 3.5 0 0 1 3.5-3.5h2.5z"/><path d="m45 30h2.5a3.5 3.5 0 0 0 3.5-3.5 3.5 3.5 0 0 0 -3.5-3.5h-2.5z"/></g><path d="m32 42a14 14 0 0 1 -14-14v-13l2-1 4-3h16l4 2 2 2v13a14 14 0 0 1 -14 14z" fill="#ffddce"/><path d="m40 18h-2-12-3l-.5-3h17z" fill="#821813"/><path d="m47 18h-8l-1-6h-12l-1 6h-8a15 15 0 0 1 30 0z" fill="#dd5528"/><path d="m41 18h-3l-1-6h-10l-1 6h-3c0-8.28 4.03-15 9-15s9 6.72 9 15z" fill="#fae058"/><path d="m21 21-3 2v-5h5z" fill="#3e3d42"/><path d="m43 21 3 2v-5h-5z" fill="#3e3d42"/><path d="m56.99 19.88a.984.984 0 0 0 -.47-.73l-9.17-5.64a16 16 0 0 0 -31.35 4.49 1 1 0 0 0 1 1v3h-.5a4.524 4.524 0 0 0 -4.5 4.5 4.507 4.507 0 0 0 4.5 4.5h.8a15.024 15.024 0 0 0 6.19 9.34 13.053 13.053 0 0 0 -10.06 12.01l-.43 8.6a1.025 1.025 0 0 0 .28.74.975.975 0 0 0 .72.31h36a.975.975 0 0 0 .72-.31 1.025 1.025 0 0 0 .28-.74l-.43-8.6a13.053 13.053 0 0 0 -10.06-12.01 15.024 15.024 0 0 0 6.19-9.34h.8a4.507 4.507 0 0 0 4.5-4.5 4.437 4.437 0 0 0 -.11-.97l4.82-4.82a1.013 1.013 0 0 0 .28-.83zm-40.49 9.12a2.5 2.5 0 0 1 -2.5-2.5 2.509 2.509 0 0 1 2.5-2.5h.5v4c0 .34.03.67.05 1zm15.5-25c4.14 0 7.67 5.86 7.98 13h-1.13l-.86-5.16a1 1 0 0 0 -.99-.84h-10a1 1 0 0 0 -.99.84l-.86 5.16h-1.13c.31-7.14 3.84-13 7.98-13zm4.65 12 .17 1h-9.64l.17-1zm-8.97-2 .17-1h8.3l.17 1zm-1.99-8.49a20.151 20.151 0 0 0 -3.66 11.49h-3.99a14 14 0 0 1 7.65-11.49zm-4.56 13.49-.85 1.28-1.28.85v-2.13zm-1.02 41h-5.06l.35-7h5.48zm28.84 0h-5.06l-.77-7h5.48zm-.56-9h-6.39a1.022 1.022 0 0 0 -.75.33.968.968 0 0 0 -.24.78l.87 7.89h-19.76l.87-7.89a.968.968 0 0 0 -.24-.78 1.022 1.022 0 0 0 -.75-.33h-6.39a11.011 11.011 0 0 1 9.72-8.93 6.984 6.984 0 0 0 13.35 0 11.021 11.021 0 0 1 9.71 8.93zm-20.79-8.66a15.03 15.03 0 0 0 8.81 0 4.977 4.977 0 0 1 -8.81 0zm17.4-14.34a13 13 0 0 1 -26 0v-4.46l2.55-1.71a.935.935 0 0 0 .28-.28l1.71-2.55h16.92l1.71 2.55a.935.935 0 0 0 .28.28l2.55 1.71zm0-6.87-1.28-.85-.85-1.28h2.13zm-3.03-4.13a20.151 20.151 0 0 0 -3.66-11.49 14 14 0 0 1 7.65 11.49zm5.53 12h-.55c.02-.33.05-.66.05-1v-4h.5a2.509 2.509 0 0 1 2.5 2.5 2.5 2.5 0 0 1 -2.5 2.5zm3.44-5.36a2.513 2.513 0 0 0 -.26-.31 4.406 4.406 0 0 0 -3.18-1.33h-.5v-3a1 1 0 0 0 1-1 15.432 15.432 0 0 0 -.11-1.81l6.51 4z"/><path d="m26 27a1 1 0 0 0 1-1v-2a1 1 0 0 0 -2 0v2a1 1 0 0 0 1 1z"/><path d="m38 23a1 1 0 0 0 -1 1v2a1 1 0 0 0 2 0v-2a1 1 0 0 0 -1-1z"/><path d="m32 35c-2.71 0-5-1.374-5-3h-2c0 2.8 3.075 5 7 5s7-2.2 7-5h-2c0 1.626-2.29 3-5 3z"/></svg>