<svg id="Kid_avatar" height="512" viewBox="0 0 64 64" width="512" xmlns="http://www.w3.org/2000/svg" data-name="Kid avatar"><path d="m19 30h-2.5a3.5 3.5 0 0 1 -3.5-3.5 3.5 3.5 0 0 1 3.5-3.5h2.5z" fill="#ffcbbe"/><path d="m45 30h2.5a3.5 3.5 0 0 0 3.5-3.5 3.5 3.5 0 0 0 -3.5-3.5h-2.5z" fill="#ffcbbe"/><path d="m50 61h-36l.43-8.6a12 12 0 0 1 11.985-11.4h11.17a12 12 0 0 1 11.985 11.4z" fill="#e1ecfd"/><circle cx="32" cy="41" fill="#ffcbbe" r="6"/><path d="m28 48-6-6 2-4 6 3z" fill="#84d4e2"/><path d="m36 48 6-6-2-4-6 3z" fill="#84d4e2"/><path d="m32 42a14 14 0 0 1 -14-14v-13l6-5h16l6 5v13a14 14 0 0 1 -14 14z" fill="#ffddce"/><path d="m32 3a16.023 16.023 0 0 0 -3.452.384l-14.548 1.616.39 1.039a9.98 9.98 0 0 0 3.85 4.827 15.894 15.894 0 0 0 -2.24 8.134v4h2l3-7 20 4 2-4 3 7h2v-4a16 16 0 0 0 -16-16z" fill="#3e3d42"/><path d="m42.64 41.04-.85-1.7a15.039 15.039 0 0 0 4.91-8.34h.8a4.507 4.507 0 0 0 4.5-4.5 4.4 4.4 0 0 0 -1.32-3.17 4.442 4.442 0 0 0 -1.68-1.06v-3.27a17.024 17.024 0 0 0 -17-17 16.57 16.57 0 0 0 -3.61.4l-14.5 1.61a.958.958 0 0 0 -.74.47 1.023 1.023 0 0 0 -.09.87l.39 1.04a11.042 11.042 0 0 0 3.48 4.77 17.02 17.02 0 0 0 -1.93 7.84v3.27a4.5 4.5 0 0 0 -3 4.23 4.507 4.507 0 0 0 4.5 4.5h.8a15.039 15.039 0 0 0 4.91 8.34l-.85 1.7a12.989 12.989 0 0 0 -7.93 11.31l-.43 8.6a1.025 1.025 0 0 0 .28.74.975.975 0 0 0 .72.31h36a.975.975 0 0 0 .72-.31 1.025 1.025 0 0 0 .28-.74l-.43-8.6a12.989 12.989 0 0 0 -7.93-11.31zm6.63-16.3a2.465 2.465 0 0 1 .73 1.76 2.5 2.5 0 0 1 -2.5 2.5h-.55c.02-.33.05-.66.05-1v-4h.5a2.474 2.474 0 0 1 1.77.74zm-32.77 4.26a2.5 2.5 0 0 1 -2.5-2.5 2.509 2.509 0 0 1 2.5-2.5h.5v4c0 .34.03.67.05 1zm.5-7v-3a14.968 14.968 0 0 1 2.1-7.62 1 1 0 0 0 -.31-1.35 8.876 8.876 0 0 1 -3.4-4.18l13.27-1.47c.03-.01.07-.01.1-.02a14.976 14.976 0 0 1 18.24 14.64v3h-.34l-2.74-6.39a.994.994 0 0 0 -.89-.61.98.98 0 0 0 -.92.55l-1.66 3.32-19.25-3.85a1 1 0 0 0 -1.12.59l-2.74 6.39zm2 6v-4.8l2.6-6.06 19.2 3.84a.993.993 0 0 0 1.09-.53l1.04-2.07 2.07 4.82v4.8a13 13 0 0 1 -26 0zm21.78 13.8-4.29 4.29-1-3.52a14.832 14.832 0 0 0 4.67-2zm-12.27.77-1 3.52-4.29-4.29.62-1.23a14.832 14.832 0 0 0 4.67 2zm2.49 17.43h-15.95l.38-7.55a11 11 0 0 1 6.24-9.37l5.62 5.63a1.007 1.007 0 0 0 .71.29 1.068 1.068 0 0 0 .25-.03 1.008 1.008 0 0 0 .71-.69l.25-.88a6.569 6.569 0 0 0 1.79.52zm-1.23-14.54.72-2.54a14.291 14.291 0 0 0 3.02 0l.72 2.54a5.063 5.063 0 0 1 -4.46 0zm3.23 14.54v-12.08a6.569 6.569 0 0 0 1.79-.52l.25.88a1.008 1.008 0 0 0 .71.69 1.068 1.068 0 0 0 .25.03 1.007 1.007 0 0 0 .71-.29l5.62-5.63a11 11 0 0 1 6.24 9.37l.38 7.55z"/><path d="m26 27a1 1 0 0 0 1-1v-2a1 1 0 0 0 -2 0v2a1 1 0 0 0 1 1z"/><path d="m38 27a1 1 0 0 0 1-1v-2a1 1 0 0 0 -2 0v2a1 1 0 0 0 1 1z"/><path d="m32 37c3.925 0 7-2.2 7-5h-2c0 1.626-2.29 3-5 3s-5-1.374-5-3h-2c0 2.8 3.075 5 7 5z"/></svg>