<svg id="Kid_avatar" height="512" viewBox="0 0 64 64" width="512" xmlns="http://www.w3.org/2000/svg" data-name="Kid avatar"><path d="m19 30h-2.5a3.5 3.5 0 0 1 -3.5-3.5 3.5 3.5 0 0 1 3.5-3.5h2.5z" fill="#ffcbbe"/><path d="m45 30h2.5a3.5 3.5 0 0 0 3.5-3.5 3.5 3.5 0 0 0 -3.5-3.5h-2.5z" fill="#ffcbbe"/><path d="m50 61h-36l.43-8.6a12 12 0 0 1 11.985-11.4h11.17a12 12 0 0 1 11.985 11.4z" fill="#00ccb3"/><g fill="#ffcbbe"><path d="m14 61h7l1-9h-7.54z"/><path d="m49.54 52h-7.54l1 9h7z"/><circle cx="32" cy="40" r="6"/></g><path d="m32 42a14 14 0 0 1 -14-14v-13l6-5h16l6 5v13a14 14 0 0 1 -14 14z" fill="#ffddce"/><path d="m19.69 23a4 4 0 0 0 3.929-3.252l1.381-5.248a3.5 3.5 0 0 1 3.5-3.5 3.517 3.517 0 0 1 3.5 3.5 3.5 3.5 0 0 1 3.5-3.5 3.517 3.517 0 0 1 3.5 3.5l1.381 5.248a4 4 0 0 0 3.929 3.252h3.69v-10a10 10 0 0 0 -10-10h-12a10 10 0 0 0 -10 10v10z" fill="#3e3d42"/><path d="m40.51 40.34a15.024 15.024 0 0 0 6.19-9.34h.8a4.507 4.507 0 0 0 4.5-4.5 4.4 4.4 0 0 0 -1.32-3.17 4.442 4.442 0 0 0 -1.68-1.06v-9.27a11.007 11.007 0 0 0 -11-11h-12a11.007 11.007 0 0 0 -11 11v9.27a4.5 4.5 0 0 0 -3 4.23 4.507 4.507 0 0 0 4.5 4.5h.8a15.024 15.024 0 0 0 6.19 9.34 13.053 13.053 0 0 0 -10.06 12.01l-.43 8.6a1.025 1.025 0 0 0 .28.74.975.975 0 0 0 .72.31h36a.975.975 0 0 0 .72-.31 1.025 1.025 0 0 0 .28-.74l-.43-8.6a13.053 13.053 0 0 0 -10.06-12.01zm8.76-15.6a2.465 2.465 0 0 1 .73 1.76 2.5 2.5 0 0 1 -2.5 2.5h-.55c.02-.33.05-.66.05-1v-4h.5a2.474 2.474 0 0 1 1.77.74zm-32.77 4.26a2.5 2.5 0 0 1 -2.5-2.5 2.509 2.509 0 0 1 2.5-2.5h.5v4c0 .34.03.67.05 1zm.5-7v-9a9.014 9.014 0 0 1 9-9h12a9.014 9.014 0 0 1 9 9v9h-2.69a3.015 3.015 0 0 1 -2.96-2.5l-1.35-5.14a4.529 4.529 0 0 0 -4.5-4.36 4.48 4.48 0 0 0 -3.5 1.68 3.594 3.594 0 0 0 -.32-.35 4.406 4.406 0 0 0 -3.18-1.33 4.5 4.5 0 0 0 -4.5 4.36l-1.36 5.2a3 3 0 0 1 -2.95 2.44zm2 6v-4h.69a4.991 4.991 0 0 0 4.9-4l1.38-5.25a1.007 1.007 0 0 0 .03-.25 2.5 2.5 0 0 1 2.5-2.5 2.509 2.509 0 0 1 2.5 2.5 1 1 0 0 0 2 0 2.5 2.5 0 0 1 2.5-2.5 2.509 2.509 0 0 1 2.5 2.5 1.007 1.007 0 0 0 .03.25l1.37 5.19a5 5 0 0 0 4.91 4.06h.69v4a13 13 0 0 1 -26 0zm17.41 14.34a4.969 4.969 0 0 1 -8.8 0 14.809 14.809 0 0 0 4.39.66 14.992 14.992 0 0 0 4.41-.66zm-16.31 17.66h-5.05l.35-7h5.48zm21.78 0h-19.76l.87-7.89a1 1 0 0 0 -.24-.78 1.022 1.022 0 0 0 -.75-.33h-6.39a11.011 11.011 0 0 1 9.72-8.93 6.984 6.984 0 0 0 13.35 0 11.021 11.021 0 0 1 9.71 8.93h-6.39a1.022 1.022 0 0 0 -.75.33 1 1 0 0 0 -.24.78zm2.02 0-.78-7h5.48l.35 7z"/><path d="m26 27a1 1 0 0 0 1-1v-2a1 1 0 0 0 -2 0v2a1 1 0 0 0 1 1z"/><path d="m38 27a1 1 0 0 0 1-1v-2a1 1 0 0 0 -2 0v2a1 1 0 0 0 1 1z"/><path d="m39 32h-2c0 1.626-2.29 3-5 3s-5-1.374-5-3h-2c0 2.8 3.075 5 7 5s7-2.2 7-5z"/></svg>