<svg id="Kid_avatar" height="512" viewBox="0 0 64 64" width="512" xmlns="http://www.w3.org/2000/svg" data-name="Kid avatar"><path d="m19 30h-2.5a3.5 3.5 0 0 1 -3.5-3.5 3.5 3.5 0 0 1 3.5-3.5h2.5z" fill="#ffcbbe"/><path d="m45 30h2.5a3.5 3.5 0 0 0 3.5-3.5 3.5 3.5 0 0 0 -3.5-3.5h-2.5z" fill="#ffcbbe"/><path d="m50 61h-36l.43-8.6a12 12 0 0 1 11.985-11.4h11.17a12 12 0 0 1 11.985 11.4z" fill="#b7c1cd"/><path d="m14 61h7l1-9h-7.54z" fill="#ffcbbe"/><path d="m49.54 52h-7.54l1 9h7z" fill="#ffcbbe"/><path d="m22 41.84v2.16a3 3 0 0 0 3 3h13a4 4 0 0 0 4-4v-1.16a12.012 12.012 0 0 0 -4.41-.84h-11.18a12.012 12.012 0 0 0 -4.41.84z" fill="#e9e9ea"/><circle cx="32" cy="41" fill="#ffcbbe" r="6"/><path d="m32 42a14 14 0 0 1 -14-14v-13l6-3h16l6 3v13a14 14 0 0 1 -14 14z" fill="#ffddce"/><path d="m40 5.452a1.29 1.29 0 0 0 -.518-.007l-.482-1.445-3 3-.75-.25-1.25-3.75-2.5 2.5-1.5-.5h-2a12 12 0 0 0 -12 12v6h2l2-6 3 4 1.243-4.97a4 4 0 0 1 3.88-3.03h9.319a8 8 0 0 1 7.844 6.431l.714 3.569h2v-8c0-5.225-3.339-8.427-8-9.548z" fill="#2d2d30"/><path d="m40.51 40.34a15.051 15.051 0 0 0 6.19-9.34h.8a4.507 4.507 0 0 0 4.5-4.5 4.4 4.4 0 0 0 -1.32-3.17 4.442 4.442 0 0 0 -1.68-1.06v-7.27c0-5.27-3.28-9.2-8.77-10.52-.01 0-.01-.01-.02-.01l-.26-.79a.987.987 0 0 0 -.72-.65 1.016 1.016 0 0 0 -.94.26l-2.35 2.36-.99-2.97a.987.987 0 0 0 -.72-.65 1.016 1.016 0 0 0 -.94.26l-2.06 2.07-.91-.31a1.185 1.185 0 0 0 -.32-.05h-2a13.012 13.012 0 0 0 -13 13v5.27a4.5 4.5 0 0 0 -3 4.23 4.507 4.507 0 0 0 4.5 4.5h.8a15.051 15.051 0 0 0 6.19 9.34 13.082 13.082 0 0 0 -10.06 12.01l-.43 8.6a1.025 1.025 0 0 0 .28.74.975.975 0 0 0 .72.31h36a.975.975 0 0 0 .72-.31 1.025 1.025 0 0 0 .28-.74l-.43-8.6a13.082 13.082 0 0 0 -10.06-12.01zm.49 2.21v.45a3.009 3.009 0 0 1 -3 3h-1.11a7.012 7.012 0 0 0 2.02-3.91 10.379 10.379 0 0 1 2.09.46zm8.27-17.81a2.465 2.465 0 0 1 .73 1.76 2.5 2.5 0 0 1 -2.5 2.5h-.55c.02-.33.05-.66.05-1v-4h.5a2.474 2.474 0 0 1 1.77.74zm-32.77 4.26a2.5 2.5 0 0 1 -2.5-2.5 2.509 2.509 0 0 1 2.5-2.5h.5v4c0 .34.03.67.05 1zm.78-7h-.28v-5a11.007 11.007 0 0 1 11-11h1.84l1.34.45a1.007 1.007 0 0 0 1.03-.24l1.35-1.36.74 2.22a1.011 1.011 0 0 0 .63.63l.75.25a1.007 1.007 0 0 0 1.03-.24l1.86-1.86a.981.981 0 0 0 1.02.58c.13-.01.17-.01.18-.01 4.59 1.11 7.23 4.23 7.23 8.58v7h-.18l-.55-2.77a9.025 9.025 0 0 0 -8.83-7.23h-9.32a5 5 0 0 0 -4.85 3.79l-.73 2.93-1.74-2.32a1 1 0 0 0 -1.75.28zm1.72 6v-4.84l1.35-4.03 1.85 2.47a1 1 0 0 0 1.77-.36l1.24-4.97a3.014 3.014 0 0 1 2.91-2.27h9.32a7.024 7.024 0 0 1 6.87 5.62l.69 3.48v4.9a13 13 0 0 1 -26 0zm17.84 14.18a4.976 4.976 0 0 1 -9.68 0 14.694 14.694 0 0 0 9.68 0zm-13.84.37a10.379 10.379 0 0 1 2.09-.46 7.012 7.012 0 0 0 2.02 3.91h-2.11a2.006 2.006 0 0 1 -2-2zm-2.89 17.45h-5.06l.35-7h5.48zm21.77 0h-19.76l.87-7.89a.968.968 0 0 0 -.24-.78 1.022 1.022 0 0 0 -.75-.33h-6.39a11.089 11.089 0 0 1 5.39-7.55v.55a4 4 0 0 0 4 4h13a5 5 0 0 0 4.96-4.58 11.124 11.124 0 0 1 5.43 7.58h-6.39a1.022 1.022 0 0 0 -.75.33 1 1 0 0 0 -.24.78zm2.02 0-.78-7h5.48l.35 7z"/><path d="m26 27a1 1 0 0 0 1-1v-2a1 1 0 0 0 -2 0v2a1 1 0 0 0 1 1z"/><path d="m38 27a1 1 0 0 0 1-1v-2a1 1 0 0 0 -2 0v2a1 1 0 0 0 1 1z"/><path d="m39 32h-2c0 1.626-2.29 3-5 3s-5-1.374-5-3h-2c0 2.8 3.075 5 7 5s7-2.2 7-5z"/></svg>