<svg id="Kid_avatar" height="512" viewBox="0 0 64 64" width="512" xmlns="http://www.w3.org/2000/svg" data-name="Kid avatar"><path d="m19 30h-2.5a3.5 3.5 0 0 1 -3.5-3.5 3.5 3.5 0 0 1 3.5-3.5h2.5z" fill="#ffcbbe"/><path d="m45 30h2.5a3.5 3.5 0 0 0 3.5-3.5 3.5 3.5 0 0 0 -3.5-3.5h-2.5z" fill="#ffcbbe"/><path d="m50 61h-36l.43-8.6a11.995 11.995 0 0 1 11.98-11.4h11.18a11.995 11.995 0 0 1 11.98 11.4z" fill="#ec455a"/><path d="m14 61h7l1-9h-7.54z" fill="#ffcbbe"/><path d="m49.54 52h-7.54l1 9h7z" fill="#ffcbbe"/><path d="m40.88 41.46a9 9 0 0 1 -17.76 0 11.939 11.939 0 0 1 3.29-.46h11.18a11.939 11.939 0 0 1 3.29.46z" fill="#ececec"/><circle cx="32" cy="40" fill="#ffcbbe" r="6"/><path d="m56 18-15-12-8 12z" fill="#9e2849"/><path d="m32 42a14 14 0 0 1 -14-14v-13l6-3h16l6 3v13a14 14 0 0 1 -14 14z" fill="#ffddce"/><path d="m28 3h8a11 11 0 0 1 11 11v4a0 0 0 0 1 0 0h-30a0 0 0 0 1 0 0v-4a11 11 0 0 1 11-11z" fill="#ec455a"/><circle cx="56" cy="18" fill="#e0e0e2" r="3"/><path d="m48 16.563v2.953a2 2 0 0 1 -2.384 1.963 73.068 73.068 0 0 0 -13.616-1.479 73.068 73.068 0 0 0 -13.616 1.479 2 2 0 0 1 -2.384-1.963v-2.995a2 2 0 0 1 1.528-1.944 61.594 61.594 0 0 1 14.472-1.577 67.111 67.111 0 0 1 14.455 1.615 1.993 1.993 0 0 1 1.545 1.948z" fill="#e9e9ea"/><g fill="#d8d7da"><path d="m24 13.448v7.111c1.262-.163 2.605-.307 4-.408v-7.041c-1.451.08-2.789.198-4 .338z"/><path d="m17.528 14.577a2 2 0 0 0 -1.528 1.944v2.995a2 2 0 0 0 2.384 1.963c.475-.095 1.029-.2 1.616-.3v-7.132c-1 .188-1.837.374-2.472.53z"/><path d="m40 13.5v7.058c1.486.192 2.838.408 4 .616v-7.062c-1.14-.212-2.491-.425-4-.612z"/><path d="m32 13v7c1.346 0 2.692.057 4 .151v-7.021c-1.275-.08-2.612-.13-4-.13z"/></g><path d="m26 27a1 1 0 0 0 1-1v-2a1 1 0 0 0 -2 0v2a1 1 0 0 0 1 1z"/><path d="m38 23a1 1 0 0 0 -1 1v2a1 1 0 0 0 2 0v-2a1 1 0 0 0 -1-1z"/><path d="m56 14a3.98 3.98 0 0 0 -2.39.81l-6.44-5.15a12 12 0 0 0 -11.17-7.66h-8a12.01 12.01 0 0 0 -12 12v.29a2.972 2.972 0 0 0 -1 2.23v3a2.985 2.985 0 0 0 1.1 2.32 1.452 1.452 0 0 0 .26.17 4.511 4.511 0 0 0 -4.36 4.49 4.507 4.507 0 0 0 4.5 4.5h.81a15.252 15.252 0 0 0 4.08 7.61 15.556 15.556 0 0 0 2.1 1.73 13.051 13.051 0 0 0 -10.06 12.01l-.43 8.6a1.025 1.025 0 0 0 .28.74.975.975 0 0 0 .72.31h36a.975.975 0 0 0 .72-.31 1.025 1.025 0 0 0 .28-.74l-.43-8.6a13.047 13.047 0 0 0 -10.09-12.01 15.078 15.078 0 0 0 6.21-9.34h.81a4.507 4.507 0 0 0 4.5-4.5 4.511 4.511 0 0 0 -4.37-4.49 2.463 2.463 0 0 0 .27-.17 2.985 2.985 0 0 0 1.1-2.32v-.52h3.14a3.994 3.994 0 1 0 3.86-5zm-28-10h8a10 10 0 0 1 9.97 9.49 67.722 67.722 0 0 0 -13.97-1.49 64.139 64.139 0 0 0 -13.97 1.43 10 10 0 0 1 9.97-9.43zm15 10.95v5.04c-.62-.1-1.29-.21-2-.31v-5.04c.71.1 1.38.2 2 .31zm-4-.56v5.04c-.65-.07-1.32-.14-2-.2v-5.03c.69.06 1.36.12 2 .19zm-4-.31v5.01c-.66-.04-1.33-.07-2-.08v-5c.68.01 1.35.03 2 .07zm-4-.07v5c-.67.01-1.34.04-2 .08v-5.03c.65-.02 1.31-.04 2-.05zm-4 .16v5.06c-.68.06-1.35.13-2 .2v-5.08c.64-.07 1.3-.13 2-.18zm-4 .41v5.1c-.71.1-1.38.21-2 .31v-5.11c.61-.1 1.28-.2 2-.3zm-6.5 14.42a2.5 2.5 0 0 1 -2.5-2.5 2.509 2.509 0 0 1 2.5-2.5h.5v4c0 .33.01.66.04 1zm.87-8.71a.971.971 0 0 1 -.37-.77v-3a1 1 0 0 1 .77-.97c.35-.09.76-.18 1.23-.28v5.07c-.29.06-.56.11-.81.16a.967.967 0 0 1 -.82-.21zm2.74 39.71h-5.06l.35-7h5.48zm28.84 0h-5.06l-.77-7h5.48zm-7.35-17.22a11.045 11.045 0 0 1 6.79 8.22h-6.39a1.022 1.022 0 0 0 -.75.33.968.968 0 0 0 -.24.78l.87 7.89h-19.76l.87-7.89a.968.968 0 0 0 -.24-.78 1.022 1.022 0 0 0 -.75-.33h-6.39a11.077 11.077 0 0 1 6.79-8.23 9.99 9.99 0 0 0 19.2.01zm-9.6 4.22a7 7 0 0 0 6.69-4.93 8.458 8.458 0 0 1 .99.15 7.99 7.99 0 0 1 -15.36-.01c.32-.06.66-.11.99-.14a7 7 0 0 0 6.69 4.93zm-4.42-4.66a15.16 15.16 0 0 0 4.42.66 14.883 14.883 0 0 0 4.44-.69 5.006 5.006 0 0 1 -8.86.03zm17.42-14.34a13 13 0 1 1 -26 0v-5.62a71.852 71.852 0 0 1 13-1.38 71.852 71.852 0 0 1 13 1.38zm1.63-7.71a1 1 0 0 1 -.82.21c-.25-.05-.52-.1-.81-.16v-5.02l1.23.27a.987.987 0 0 1 .77.97v2.96a.971.971 0 0 1 -.37.77zm2.64 4.45a2.465 2.465 0 0 1 .73 1.76 2.5 2.5 0 0 1 -2.5 2.5h-.53c.02-.34.03-.67.03-1v-4h.5a2.474 2.474 0 0 1 1.77.74zm2.87-7.74h-3.14v-.44a2.994 2.994 0 0 0 -1-2.24v-.32a11.46 11.46 0 0 0 -.06-1.17l4.42 3.54a4.257 4.257 0 0 0 -.22.63zm3.86 3a2 2 0 1 1 2-2 2.006 2.006 0 0 1 -2 2z"/><path d="m32 35c-2.71 0-5-1.374-5-3h-2c0 2.8 3.075 5 7 5s7-2.2 7-5h-2c0 1.626-2.29 3-5 3z"/></svg>