<svg id="Kid_avatar" height="512" viewBox="0 0 64 64" width="512" xmlns="http://www.w3.org/2000/svg" data-name="Kid avatar"><path d="m19 30h-2.5a3.5 3.5 0 0 1 -3.5-3.5 3.5 3.5 0 0 1 3.5-3.5h2.5z" fill="#ffcbbe"/><path d="m45 30h2.5a3.5 3.5 0 0 0 3.5-3.5 3.5 3.5 0 0 0 -3.5-3.5h-2.5z" fill="#ffcbbe"/><path d="m50 61h-36l.43-8.6a12 12 0 0 1 11.985-11.4h11.17a12 12 0 0 1 11.985 11.4z" fill="#f8d251"/><g fill="#ffcbbe"><path d="m14 61h7l1-9h-7.54z"/><path d="m49.54 52h-7.54l1 9h7z"/><circle cx="32" cy="40" r="6"/></g><path d="m32 42a14 14 0 0 1 -14-14v-13l6-5h16l6 5v13a14 14 0 0 1 -14 14z" fill="#ffddce"/><path d="m47 13a8.925 8.925 0 0 1 -.43 2.74 6.092 6.092 0 0 1 -3.72 1.26h-5.85a3.974 3.974 0 0 1 -3.72-2.56 8.587 8.587 0 0 1 -2.28 1.62 8.956 8.956 0 0 1 -4 .94h-12a14 14 0 0 1 14-14 13.863 13.863 0 0 1 6.19 1.46 8.713 8.713 0 0 1 2.81-.46 8.981 8.981 0 0 1 8.48 6 8.8 8.8 0 0 1 .52 3z" fill="#3e3d42"/><path d="m40.51 40.34a15.024 15.024 0 0 0 6.19-9.34h.8a4.507 4.507 0 0 0 4.5-4.5 4.524 4.524 0 0 0 -4.5-4.5h-.5v-5.35a1.876 1.876 0 0 0 .18-.12.968.968 0 0 0 .34-.48 9.919 9.919 0 0 0 .48-3.05 9.8 9.8 0 0 0 -.58-3.33 10 10 0 0 0 -9.42-6.67 9.584 9.584 0 0 0 -2.73.39 14.779 14.779 0 0 0 -6.27-1.39 15.018 15.018 0 0 0 -15 15 1 1 0 0 0 1 1h2v4h-.5a4.524 4.524 0 0 0 -4.5 4.5 4.507 4.507 0 0 0 4.5 4.5h.8a14.788 14.788 0 0 0 6.19 9.34 13.042 13.042 0 0 0 -10.06 12.01l-.43 8.6a1.025 1.025 0 0 0 .28.74.975.975 0 0 0 .72.31h36a.975.975 0 0 0 .72-.31 1.025 1.025 0 0 0 .28-.74l-.43-8.6a13.053 13.053 0 0 0 -10.06-12.01zm6.49-12.34v-4h.5a2.509 2.509 0 0 1 2.5 2.5 2.5 2.5 0 0 1 -2.5 2.5h-.55c.02-.33.05-.66.05-1zm-30.5 1a2.5 2.5 0 0 1 -2.5-2.5 2.509 2.509 0 0 1 2.5-2.5h.5v4c0 .34.03.67.05 1zm-.46-13a13.017 13.017 0 0 1 12.96-12 12.828 12.828 0 0 1 5.75 1.36 1.049 1.049 0 0 0 .76.05 7.693 7.693 0 0 1 2.49-.41 7.988 7.988 0 0 1 7.54 5.34 7.672 7.672 0 0 1 .46 2.66 8.1 8.1 0 0 1 -.29 2.13 5.072 5.072 0 0 1 -2.86.87h-5.85a3 3 0 0 1 -2.79-1.92 1 1 0 0 0 -.72-.62 1.492 1.492 0 0 0 -.21-.02 1.007 1.007 0 0 0 -.71.29 7.688 7.688 0 0 1 -2.02 1.44 8.049 8.049 0 0 1 -3.55.83zm6.77 21.19a12.922 12.922 0 0 1 -3.81-9.19v-10h8a9.99 9.99 0 0 0 4.44-1.04 10.283 10.283 0 0 0 1.57-.96 5.006 5.006 0 0 0 3.99 2h5.85a7.058 7.058 0 0 0 2.15-.34v10.34a13 13 0 0 1 -22.19 9.19zm13.6 5.15a4.973 4.973 0 0 1 -8.8.01 15.106 15.106 0 0 0 8.8-.01zm-16.31 17.66h-5.05l.35-7h5.48zm21.78 0h-19.76l.87-7.89a1 1 0 0 0 -.24-.78 1.022 1.022 0 0 0 -.75-.33h-6.39a11.011 11.011 0 0 1 9.72-8.93 6.984 6.984 0 0 0 13.35 0 11.021 11.021 0 0 1 9.71 8.93h-6.39a1.022 1.022 0 0 0 -.75.33 1 1 0 0 0 -.24.78zm2.02 0-.78-7h5.48l.35 7z"/><path d="m26 27a1 1 0 0 0 1-1v-2a1 1 0 0 0 -2 0v2a1 1 0 0 0 1 1z"/><path d="m38 27a1 1 0 0 0 1-1v-2a1 1 0 0 0 -2 0v2a1 1 0 0 0 1 1z"/><path d="m39 32h-2c0 1.626-2.29 3-5 3s-5-1.374-5-3h-2c0 2.8 3.075 5 7 5s7-2.2 7-5z"/></svg>