<svg width="25" height="38" viewBox="0 0 25 38" fill="none" xmlns="http://www.w3.org/2000/svg">
<g clip-path="url(#clip0)">
<path d="M24.5 12C24.5047 12.2341 24.4385 12.4642 24.31 12.66L24.12 12.96L23.73 13.13C22.02 13.74 20.59 14.29 19.46 14.76C18.77 15.06 18.17 15.33 17.73 15.55C17.3678 15.7227 17.0312 15.9448 16.73 16.21C16.4665 16.5104 16.2476 16.8472 16.08 17.21C15.85 17.67 15.57 18.26 15.28 18.95C14.8 20.09 14.28 21.53 13.65 23.22C13.6165 23.3336 13.573 23.444 13.52 23.55C13.4214 23.6473 13.3104 23.7314 13.19 23.8C12.9855 23.935 12.7449 24.0047 12.5 24C12.2659 24.0047 12.0358 23.9385 11.84 23.81C11.7309 23.7623 11.6297 23.6982 11.54 23.62C11.4683 23.4971 11.4112 23.3662 11.37 23.23C10.77 21.53 10.22 20.09 9.73999 18.96C9.44999 18.27 9.16999 17.68 8.93999 17.22C8.77236 16.8572 8.55346 16.5204 8.28999 16.22C7.98794 15.9559 7.65156 15.7339 7.28999 15.56C6.82999 15.34 6.28999 15.06 5.54999 14.77C4.41999 14.29 2.97999 13.77 1.27999 13.14L0.939994 13L0.689994 12.67C0.56237 12.4701 0.496299 12.2371 0.499994 12C0.495254 11.7658 0.561491 11.5358 0.689994 11.34L0.879994 11L1.27999 10.83C2.96999 10.27 4.39999 9.71998 5.49999 9.23998C6.18999 8.93998 6.77999 8.66998 7.23999 8.43998C7.60069 8.26864 7.93698 8.05005 8.23999 7.78998C8.50346 7.48951 8.72236 7.15273 8.88999 6.78998C9.11999 6.32998 9.39999 5.78998 9.68999 5.04998C10.17 3.90998 10.69 2.47998 11.32 0.779977L11.5 0.439977L11.83 0.189977C12.0338 0.0674309 12.2672 0.00268555 12.505 0.00268555C12.7428 0.00268555 12.9762 0.0674309 13.18 0.189977L13.5 0.389977L13.66 0.769977C14.25 2.43998 14.82 3.90998 15.29 5.03998C15.58 5.72998 15.86 6.31998 16.09 6.77998C16.266 7.13805 16.4842 7.47377 16.74 7.77998C17.043 8.04005 17.3793 8.25864 17.74 8.42998C18.2 8.65998 18.79 8.92998 19.48 9.22998C20.61 9.70998 22.05 10.23 23.75 10.86L24.08 10.99L24.33 11.32C24.4525 11.5249 24.5117 11.7615 24.5 12Z" fill="#D6D5D1"/>
</g>
<path d="M7.22762 33.263C7.22762 33.833 7.02062 34.28 6.60662 34.604C6.19262 34.928 5.62562 35.09 4.90562 35.09C4.55762 35.09 4.22762 35.06 3.91562 35C3.60962 34.946 3.34862 34.865 3.13262 34.757V33.839C3.37262 33.947 3.65462 34.046 3.97862 34.136C4.30262 34.22 4.63262 34.262 4.96862 34.262C5.40062 34.262 5.72462 34.178 5.94062 34.01C6.15662 33.842 6.26462 33.617 6.26462 33.335C6.26462 33.137 6.21362 32.972 6.11162 32.84C6.01562 32.702 5.86262 32.576 5.65262 32.462C5.44262 32.348 5.16662 32.222 4.82462 32.084C4.50662 31.964 4.22462 31.823 3.97862 31.661C3.73862 31.499 3.54962 31.298 3.41162 31.058C3.27362 30.818 3.20462 30.524 3.20462 30.176C3.20462 29.648 3.39662 29.234 3.78062 28.934C4.16462 28.634 4.66862 28.484 5.29262 28.484C5.64062 28.484 5.96162 28.52 6.25562 28.592C6.55562 28.658 6.84062 28.751 7.11062 28.871L6.80462 29.672C6.55862 29.57 6.30662 29.486 6.04862 29.42C5.79662 29.354 5.53562 29.321 5.26562 29.321C4.91162 29.321 4.64162 29.399 4.45562 29.555C4.26962 29.711 4.17662 29.915 4.17662 30.167C4.17662 30.365 4.22162 30.533 4.31162 30.671C4.40162 30.803 4.54562 30.923 4.74362 31.031C4.94162 31.139 5.20262 31.259 5.52662 31.391C5.88662 31.535 6.19262 31.688 6.44462 31.85C6.70262 32.006 6.89762 32.198 7.02962 32.426C7.16162 32.648 7.22762 32.927 7.22762 33.263ZM10.8739 34.316C10.9999 34.316 11.1289 34.307 11.2609 34.289C11.3929 34.265 11.5069 34.235 11.6029 34.199V34.919C11.4949 34.967 11.3539 35.006 11.1799 35.036C11.0119 35.072 10.8409 35.09 10.6669 35.09C10.4029 35.09 10.1599 35.045 9.93786 34.955C9.71586 34.865 9.53886 34.709 9.40686 34.487C9.28086 34.265 9.21786 33.956 9.21786 33.56V30.878H8.54286V30.446L9.25386 30.086L9.58686 29.06H10.1719V30.149H11.5579V30.878H10.1719V33.542C10.1719 33.806 10.2349 34.001 10.3609 34.127C10.4929 34.253 10.6639 34.316 10.8739 34.316ZM15.2042 30.059C15.8102 30.059 16.2632 30.194 16.5632 30.464C16.8692 30.728 17.0222 31.145 17.0222 31.715V35H16.3472L16.1582 34.325H16.1222C15.9122 34.589 15.6902 34.784 15.4562 34.91C15.2282 35.03 14.9102 35.09 14.5022 35.09C14.0642 35.09 13.7012 34.973 13.4132 34.739C13.1252 34.499 12.9812 34.127 12.9812 33.623C12.9812 33.131 13.1672 32.756 13.5392 32.498C13.9112 32.24 14.4842 32.099 15.2582 32.075L16.0862 32.048V31.778C16.0862 31.424 16.0052 31.175 15.8432 31.031C15.6812 30.881 15.4532 30.806 15.1592 30.806C14.9132 30.806 14.6762 30.842 14.4482 30.914C14.2202 30.986 14.0012 31.073 13.7912 31.175L13.4852 30.482C13.7132 30.362 13.9742 30.263 14.2682 30.185C14.5682 30.101 14.8802 30.059 15.2042 30.059ZM15.4292 32.687C14.8772 32.711 14.4932 32.804 14.2772 32.966C14.0672 33.122 13.9622 33.344 13.9622 33.632C13.9622 33.884 14.0372 34.067 14.1872 34.181C14.3372 34.295 14.5322 34.352 14.7722 34.352C15.1442 34.352 15.4532 34.247 15.6992 34.037C15.9512 33.827 16.0772 33.512 16.0772 33.092V32.669L15.4292 32.687ZM21.6351 30.059C21.7191 30.059 21.8091 30.065 21.9051 30.077C22.0071 30.083 22.0941 30.092 22.1661 30.104L22.0671 30.995C21.9111 30.953 21.7491 30.932 21.5811 30.932C21.3411 30.932 21.1131 30.992 20.8971 31.112C20.6871 31.232 20.5161 31.406 20.3841 31.634C20.2581 31.856 20.1951 32.126 20.1951 32.444V35H19.2411V30.149H19.9971L20.1231 31.013H20.1591C20.3151 30.755 20.5161 30.533 20.7621 30.347C21.0081 30.155 21.2991 30.059 21.6351 30.059Z" fill="#A9A8A5"/>
<defs>
<clipPath id="clip0">
<rect width="24" height="24" fill="white" transform="translate(0.5)"/>
</clipPath>
</defs>
</svg>
