<svg width="213" height="37" viewBox="0 0 213 37" fill="none" xmlns="http://www.w3.org/2000/svg">
<path d="M17.5401 8.60501C20.1803 8.57119 22.7327 9.54544 24.6702 11.3265C25.3407 11.8776 26.1866 12.1746 27.057 12.1645C27.9275 12.1544 28.7661 11.838 29.4236 11.2715C30.8417 10.013 31.1982 7.44876 29.8831 6.24532C26.5549 3.11322 22.1253 1.39698 17.5401 1.463C7.55791 1.463 0 9.36011 0 19.2315C0 29.1029 7.55791 36.9685 17.5401 36.9685C22.1266 37.0556 26.5664 35.3624 29.9148 32.2491C31.2299 31.0378 30.8734 28.4736 29.4553 27.2151C28.7971 26.6501 27.9587 26.3346 27.0887 26.3245C26.2187 26.3144 25.3731 26.6104 24.7019 27.1601C22.7644 28.9412 20.212 29.9154 17.5717 29.8816C11.7964 29.8816 7.43115 25.1622 7.43115 19.263C7.43115 13.3637 11.7647 8.60501 17.5401 8.60501Z" fill="#EFC71B"/>
<path d="M48.7224 12.585C46.4962 12.585 43.0975 13.7885 42.131 16.7145V3.14626C42.1067 2.70806 41.9956 2.27892 41.8039 1.88345C41.6123 1.48798 41.3439 1.13396 41.0142 0.841669C40.6845 0.54938 40.2999 0.324576 39.8825 0.180145C39.4651 0.0357134 39.0231 -0.0255053 38.5818 -1.82679e-06C37.6978 -0.0233307 36.8382 0.289313 36.1785 0.874065C35.5189 1.45882 35.109 2.27155 35.0326 3.14626V33.6728C35.109 34.5475 35.5189 35.3603 36.1785 35.945C36.8382 36.5298 37.6978 36.8424 38.5818 36.8191C39.0231 36.8446 39.4651 36.7834 39.8825 36.6389C40.2999 36.4945 40.6845 36.2697 41.0142 35.9774C41.3439 35.6851 41.6123 35.3311 41.8039 34.9356C41.9956 34.5402 42.1067 34.111 42.131 33.6728V24.1082C42.131 20.5372 44.5632 19.3888 46.7973 19.3888C47.3961 19.3885 47.9886 19.5105 48.5379 19.7472C49.0872 19.9839 49.5815 20.3303 49.9902 20.7649C50.3989 21.1994 50.7132 21.7128 50.9135 22.2731C51.1138 22.8334 51.1958 23.4286 51.1546 24.0217V33.6728C51.231 34.5475 51.6409 35.3603 52.3005 35.945C52.9601 36.5298 53.8198 36.8424 54.7038 36.8191C55.145 36.8446 55.587 36.7834 56.0044 36.6389C56.4218 36.4945 56.8064 36.2697 57.1362 35.9774C57.4659 35.6851 57.7343 35.3311 57.9259 34.9356C58.1175 34.5402 58.2287 34.111 58.253 33.6728V23.7621C58.253 16.6594 54.9573 12.585 48.7224 12.585Z" fill="#EFC71B"/>
<path d="M85.078 12.7817C84.1935 12.7564 83.3328 13.0684 82.6728 13.6535C82.0127 14.2387 81.6034 15.0525 81.5288 15.9279V16.3841C80.7424 15.2382 79.6914 14.2954 78.4635 13.6346C77.2356 12.9737 75.8664 12.6139 74.47 12.585C68.4332 12.585 62.9588 16.9662 62.9588 24.7689C62.9588 32.5716 68.3936 36.9685 74.47 36.9685C75.8821 36.9839 77.2754 36.6461 78.5215 35.9863C79.7675 35.3265 80.8263 34.3659 81.6001 33.193V33.6414C81.6747 34.5168 82.084 35.3306 82.7441 35.9158C83.4041 36.5009 84.2648 36.8129 85.1493 36.7876C85.5906 36.8131 86.0326 36.7519 86.45 36.6075C86.8674 36.463 87.252 36.2382 87.5817 35.946C87.9114 35.6537 88.1798 35.2996 88.3715 34.9042C88.5631 34.5087 88.6742 34.0796 88.6985 33.6414V15.9043C88.6715 15.4618 88.5559 15.029 88.3584 14.6314C88.161 14.2337 87.8856 13.8792 87.5485 13.5884C87.2114 13.2976 86.8193 13.0765 86.3951 12.938C85.9709 12.7995 85.5231 12.7464 85.078 12.7817Z" fill="#EFC71B"/>
<path d="M107.942 12.585C105.51 12.585 103.03 14.0952 101.707 18.4764V15.9043C101.683 15.4661 101.572 15.037 101.38 14.6415C101.188 14.2461 100.92 13.892 100.59 13.5997C100.26 13.3075 99.8759 13.0827 99.4585 12.9382C99.0411 12.7938 98.5991 12.7326 98.1578 12.7581C97.2743 12.7366 96.4157 13.0499 95.7565 13.6343C95.0973 14.2187 94.6868 15.0303 94.6086 15.9043V33.6728C94.685 34.5475 95.0949 35.3603 95.7545 35.945C96.4142 36.5298 97.2738 36.8424 98.1578 36.8191C98.5991 36.8446 99.0411 36.7834 99.4585 36.6389C99.8759 36.4945 100.26 36.2697 100.59 35.9774C100.92 35.6851 101.188 35.3311 101.38 34.9356C101.572 34.5402 101.683 34.111 101.707 33.6728V27.8837C101.81 22.0002 103.125 18.9798 107.086 18.9798C107.538 18.9798 108.298 19.027 108.805 19.027C110.39 19.027 112.054 18.2404 112.307 16.4628C112.759 13.1356 110.279 12.585 107.942 12.585Z" fill="#EFC71B"/>
<path d="M143.537 12.53C142.076 12.5438 140.65 12.9736 139.429 13.7684C138.207 14.5631 137.241 15.6894 136.644 17.0134C135.06 13.7885 132.588 12.585 128.833 12.585C127.536 12.5754 126.263 12.9357 125.167 13.6231C124.07 14.3105 123.195 15.2961 122.646 16.4628V15.9043C122.621 15.4661 122.51 15.037 122.319 14.6415C122.127 14.2461 121.859 13.892 121.529 13.5997C121.199 13.3075 120.815 13.0827 120.397 12.9382C119.98 12.7938 119.538 12.7326 119.097 12.7581C118.213 12.7366 117.354 13.0499 116.695 13.6343C116.036 14.2187 115.626 15.0303 115.547 15.9043V33.6728C115.624 34.5475 116.034 35.3603 116.693 35.945C117.353 36.5298 118.213 36.8424 119.097 36.8191C119.538 36.8446 119.98 36.7834 120.397 36.6389C120.815 36.4945 121.199 36.2697 121.529 35.9774C121.859 35.6851 122.127 35.3311 122.319 34.9356C122.51 34.5402 122.621 34.111 122.646 33.6728V24.1082C122.646 20.5372 124.626 19.3259 126.757 19.3259C128.889 19.3259 130.663 20.899 130.663 23.8565V33.6728C130.738 34.5483 131.147 35.3621 131.807 35.9472C132.467 36.5323 133.328 36.8443 134.212 36.8191C134.653 36.8435 135.094 36.7815 135.511 36.6366C135.927 36.4917 136.311 36.2667 136.64 35.9745C136.968 35.6823 137.236 35.3287 137.427 34.9337C137.618 34.5388 137.729 34.1103 137.754 33.6728V24.1082C137.754 20.6867 139.528 19.3259 141.762 19.3259C143.838 19.3259 145.723 20.9384 145.723 24.0453V33.6728C145.798 34.5483 146.207 35.3621 146.867 35.9472C147.528 36.5323 148.388 36.8443 149.273 36.8191C149.714 36.8446 150.156 36.7834 150.573 36.6389C150.991 36.4945 151.375 36.2697 151.705 35.9774C152.035 35.6851 152.303 35.3311 152.495 34.9356C152.686 34.5402 152.798 34.111 152.822 33.6728V23.2037C152.766 16.1088 149.162 12.53 143.537 12.53Z" fill="#EFC71B"/>
<path d="M172.897 12.585C171.491 12.6 170.109 12.9508 168.868 13.608C167.626 14.2651 166.563 15.2093 165.767 16.3605V3.14626C165.692 2.27084 165.283 1.45699 164.623 0.871865C163.963 0.286741 163.102 -0.0252401 162.218 -1.82679e-06C161.777 -0.0255053 161.335 0.0357134 160.917 0.180145C160.5 0.324576 160.115 0.54938 159.785 0.841669C159.456 1.13396 159.187 1.48798 158.996 1.88345C158.804 2.27892 158.693 2.70806 158.669 3.14626V33.6728C158.693 34.111 158.804 34.5402 158.996 34.9356C159.187 35.3311 159.456 35.6851 159.785 35.9774C160.115 36.2697 160.5 36.4945 160.917 36.6389C161.335 36.7834 161.777 36.8446 162.218 36.8191C163.102 36.8443 163.963 36.5323 164.623 35.9472C165.283 35.3621 165.692 34.5483 165.767 33.6728V33.2245C166.541 34.3973 167.6 35.3579 168.846 36.0178C170.092 36.6776 171.485 37.0154 172.897 37C178.926 37 184.4 32.5638 184.4 24.7689C184.4 16.9741 178.926 12.585 172.897 12.585ZM171.527 30.7547C169.94 30.7547 168.419 30.129 167.297 29.0153C166.175 27.9016 165.545 26.3911 165.545 24.8161C165.545 23.2411 166.175 21.7306 167.297 20.6169C168.419 19.5032 169.94 18.8776 171.527 18.8776C175.076 18.8776 177.072 21.6935 177.072 24.8161C177.072 27.9388 175.084 30.7547 171.527 30.7547Z" fill="#EFC71B"/>
<path d="M200.53 12.585C193.63 12.585 188.108 17.3044 188.108 24.7139C188.108 32.1233 193.63 36.9685 200.53 36.9685C207.431 36.9685 213 32.084 213 24.6824C213 17.2808 207.423 12.585 200.53 12.585ZM200.53 30.2041C199.813 30.2025 199.103 30.0573 198.443 29.7773C197.783 29.4972 197.187 29.088 196.69 28.5741C196.193 28.0601 195.806 27.452 195.551 26.7861C195.296 26.1201 195.179 25.41 195.206 24.6981C195.206 23.29 195.77 21.9396 196.773 20.9439C197.776 19.9482 199.136 19.3888 200.554 19.3888C201.972 19.3888 203.332 19.9482 204.335 20.9439C205.338 21.9396 205.902 23.29 205.902 24.6981C205.928 25.4137 205.809 26.1273 205.551 26.7959C205.292 27.4645 204.901 28.0743 204.399 28.5887C203.897 29.103 203.296 29.5113 202.631 29.7889C201.966 30.0665 201.251 30.2078 200.53 30.2041Z" fill="#EFC71B"/>
<path d="M81.5288 25.0993C81.528 25.1334 81.5171 25.1666 81.4973 25.1946C81.4776 25.2226 81.4499 25.2442 81.4179 25.2566C79.7898 25.6031 78.3008 26.4184 77.1369 27.6005C75.973 28.7827 75.1859 30.2792 74.874 31.9031C74.8718 31.934 74.8599 31.9635 74.8401 31.9875C74.8202 32.0115 74.7933 32.0287 74.7631 32.0368C74.7371 32.0291 74.713 32.0161 74.6925 31.9984C74.672 31.9808 74.6556 31.959 74.6443 31.9345C74.6475 31.919 74.6475 31.9029 74.6443 31.8873C74.3315 30.2651 73.5426 28.7708 72.3769 27.5924C71.2111 26.4141 69.7206 25.6041 68.0925 25.2645C68.0562 25.2571 68.0236 25.2373 68.0004 25.2086C67.9773 25.1798 67.965 25.1439 67.9657 25.1071C67.966 25.0697 67.9785 25.0334 68.0014 25.0036C68.0242 24.9738 68.0562 24.9522 68.0925 24.942C69.7144 24.6022 71.1997 23.796 72.3634 22.6239C73.527 21.4518 74.3175 19.9656 74.6363 18.3506C74.6326 18.3218 74.6326 18.2928 74.6363 18.264C74.6498 18.2358 74.6712 18.2119 74.6978 18.1952C74.7245 18.1785 74.7553 18.1696 74.7869 18.1696C74.8195 18.1691 74.8517 18.1776 74.8797 18.1943C74.9077 18.211 74.9305 18.2351 74.9453 18.264V18.3506C75.2623 19.9604 76.0484 21.4425 77.2061 22.6128C78.3637 23.7832 79.842 24.5903 81.4575 24.9341H81.5129C81.53 24.9578 81.5405 24.9856 81.5433 25.0146C81.546 25.0436 81.5411 25.0728 81.5288 25.0993Z" fill="white"/>
<path d="M179.259 18.1618H163.573V31.9345H179.259V18.1618Z" fill="#EFC71B"/>
<path d="M206.718 19.381H194.794V31.2187H206.718V19.381Z" fill="#EFC71B"/>
<path d="M177.761 25.0993C177.761 25.1347 177.75 25.1691 177.728 25.1974C177.707 25.2257 177.677 25.2465 177.643 25.2566C176.015 25.6031 174.526 26.4184 173.362 27.6005C172.198 28.7827 171.411 30.2792 171.099 31.9031C171.095 31.9334 171.082 31.9619 171.062 31.9855C171.043 32.0091 171.017 32.0269 170.988 32.0368H170.909C170.882 32.0302 170.858 32.0175 170.837 31.9997C170.816 31.9819 170.8 31.9596 170.79 31.9345C170.79 31.9345 170.79 31.9345 170.79 31.8873C170.477 30.2651 169.688 28.7708 168.522 27.5924C167.357 26.414 165.866 25.6041 164.238 25.2645C164.202 25.2571 164.169 25.2373 164.146 25.2086C164.123 25.1798 164.111 25.1439 164.111 25.1071C164.112 25.0697 164.124 25.0334 164.147 25.0036C164.17 24.9738 164.202 24.9522 164.238 24.942C165.859 24.6017 167.343 23.7952 168.505 22.6231C169.668 21.4509 170.457 19.965 170.774 18.3505C170.778 18.3218 170.778 18.2927 170.774 18.264C170.79 18.2362 170.813 18.2131 170.841 18.197C170.869 18.1809 170.9 18.1725 170.932 18.1725C170.965 18.1725 170.996 18.1809 171.024 18.197C171.052 18.2131 171.075 18.2362 171.091 18.264V18.3505C171.406 19.9613 172.191 21.4443 173.349 22.615C174.507 23.7857 175.987 24.5922 177.603 24.9341H177.658C177.691 24.9473 177.719 24.9704 177.737 25.0001C177.756 25.0297 177.764 25.0645 177.761 25.0993Z" fill="white"/>
<path d="M207.106 25.0993C207.106 25.1347 207.094 25.1691 207.072 25.1974C207.051 25.2257 207.021 25.2465 206.987 25.2566C205.357 25.6017 203.867 26.4164 202.701 27.5987C201.536 28.7809 200.748 30.2782 200.435 31.9031C200.431 31.9334 200.418 31.9619 200.399 31.9855C200.379 32.0091 200.353 32.0269 200.324 32.0368C200.298 32.0302 200.273 32.0175 200.253 31.9997C200.232 31.982 200.216 31.9596 200.205 31.9345C200.205 31.9345 200.205 31.9345 200.205 31.8873C199.893 30.2651 199.104 28.7708 197.938 27.5924C196.772 26.4141 195.282 25.6041 193.654 25.2645C193.617 25.2571 193.585 25.2373 193.562 25.2086C193.538 25.1798 193.526 25.1439 193.527 25.1071C193.527 25.0697 193.54 25.0334 193.563 25.0036C193.585 24.9738 193.617 24.9522 193.654 24.942C195.275 24.6017 196.759 23.7953 197.921 22.6231C199.083 21.4509 199.872 19.965 200.19 18.3506C200.193 18.3218 200.193 18.2928 200.19 18.264C200.206 18.2362 200.229 18.213 200.256 18.1964C200.284 18.1799 200.316 18.1707 200.348 18.1696C200.381 18.1691 200.413 18.1776 200.441 18.1943C200.469 18.211 200.492 18.2351 200.506 18.264V18.3506C200.822 19.9613 201.607 21.4443 202.765 22.615C203.923 23.7857 205.402 24.5922 207.019 24.9341H207.074C207.094 24.9563 207.107 24.9833 207.113 25.0124C207.118 25.0414 207.116 25.0715 207.106 25.0993Z" fill="white"/>
</svg>
