<svg width="18" height="16" viewBox="0 0 18 16" fill="none" xmlns="http://www.w3.org/2000/svg">
<path d="M16.9564 0.372219C16.7114 0.133887 16.3791 0 16.0326 0C15.6862 0 15.3539 0.133887 15.1089 0.372219L9.11676 6.20239L3.12464 0.372219C2.87961 0.133887 2.54733 0 2.20086 0C1.8544 0 1.52212 0.133887 1.27709 0.372219C1.03214 0.610622 0.894531 0.933923 0.894531 1.27103C0.894531 1.60813 1.03214 1.93143 1.27709 2.16983L7.26921 8L1.27709 13.8302C1.03214 14.0686 0.894531 14.3919 0.894531 14.729C0.894531 15.0661 1.03214 15.3894 1.27709 15.6278C1.52212 15.8661 1.8544 16 2.20086 16C2.54733 16 2.87961 15.8661 3.12464 15.6278L9.11676 9.79761L15.1089 15.6278C15.3539 15.8661 15.6862 16 16.0326 16C16.3791 16 16.7114 15.8661 16.9564 15.6278C17.2014 15.3894 17.339 15.0661 17.339 14.729C17.339 14.3919 17.2014 14.0686 16.9564 13.8302L10.9643 8L16.9564 2.16983C17.2014 1.93143 17.339 1.60813 17.339 1.27103C17.339 0.933923 17.2014 0.610622 16.9564 0.372219V0.372219Z" fill="#F2C611"/>
</svg>
