<svg width="33" height="42" viewBox="0 0 33 42" fill="none" xmlns="http://www.w3.org/2000/svg">
<g clip-path="url(#clip0)" filter="url(#filter0_d)">
<path d="M28.5 15.9996C28.5047 16.2337 28.4385 16.4638 28.31 16.6596L28.12 16.9596L27.73 17.1296C26.02 17.7396 24.59 18.2896 23.46 18.7596C22.77 19.0596 22.17 19.3296 21.73 19.5496C21.3677 19.7223 21.0312 19.9444 20.73 20.2096C20.4665 20.5101 20.2476 20.8469 20.08 21.2096C19.85 21.6696 19.57 22.2596 19.28 22.9496C18.8 24.0896 18.28 25.5296 17.65 27.2196C17.6165 27.3332 17.573 27.4437 17.52 27.5496C17.4214 27.647 17.3104 27.731 17.19 27.7996C16.9855 27.9346 16.7449 28.0043 16.5 27.9996C16.2659 28.0043 16.0358 27.9381 15.84 27.8096C15.7309 27.7619 15.6297 27.6978 15.54 27.6196C15.4683 27.4967 15.4112 27.3658 15.37 27.2296C14.77 25.5296 14.22 24.0896 13.74 22.9596C13.45 22.2696 13.17 21.6796 12.94 21.2196C12.7724 20.8569 12.5535 20.5201 12.29 20.2196C11.9879 19.9555 11.6516 19.7335 11.29 19.5596C10.83 19.3396 10.29 19.0596 9.54999 18.7696C8.41999 18.2896 6.97999 17.7696 5.27999 17.1396L4.93999 16.9996L4.68999 16.6696C4.56237 16.4697 4.4963 16.2367 4.49999 15.9996C4.49525 15.7655 4.56149 15.5354 4.68999 15.3396L4.87999 14.9996L5.27999 14.8296C6.96999 14.2696 8.39999 13.7196 9.49999 13.2396C10.19 12.9396 10.78 12.6696 11.24 12.4396C11.6007 12.2683 11.937 12.0497 12.24 11.7896C12.5035 11.4891 12.7224 11.1524 12.89 10.7896C13.12 10.3296 13.4 9.78961 13.69 9.04961C14.17 7.90961 14.69 6.47961 15.32 4.77961L15.5 4.43961L15.83 4.18961C16.0338 4.06706 16.2672 4.00232 16.505 4.00232C16.7428 4.00232 16.9762 4.06706 17.18 4.18961L17.5 4.38961L17.66 4.76961C18.25 6.43961 18.82 7.90961 19.29 9.03961C19.58 9.72961 19.86 10.3196 20.09 10.7796C20.266 11.1377 20.4842 11.4734 20.74 11.7796C21.043 12.0397 21.3793 12.2583 21.74 12.4296C22.2 12.6596 22.79 12.9296 23.48 13.2296C24.61 13.7096 26.05 14.2296 27.75 14.8596L28.08 14.9896L28.33 15.3196C28.4525 15.5245 28.5117 15.7611 28.5 15.9996V15.9996Z" fill="#F2C611"/>
</g>
<path d="M11.2276 37.263C11.2276 37.833 11.0206 38.28 10.6066 38.604C10.1926 38.928 9.62562 39.09 8.90562 39.09C8.55762 39.09 8.22762 39.06 7.91562 39C7.60962 38.946 7.34862 38.865 7.13262 38.757V37.839C7.37262 37.947 7.65462 38.046 7.97862 38.136C8.30262 38.22 8.63262 38.262 8.96862 38.262C9.40062 38.262 9.72462 38.178 9.94062 38.01C10.1566 37.842 10.2646 37.617 10.2646 37.335C10.2646 37.137 10.2136 36.972 10.1116 36.84C10.0156 36.702 9.86262 36.576 9.65262 36.462C9.44262 36.348 9.16662 36.222 8.82462 36.084C8.50662 35.964 8.22462 35.823 7.97862 35.661C7.73862 35.499 7.54962 35.298 7.41162 35.058C7.27362 34.818 7.20462 34.524 7.20462 34.176C7.20462 33.648 7.39662 33.234 7.78062 32.934C8.16462 32.634 8.66862 32.484 9.29262 32.484C9.64062 32.484 9.96162 32.52 10.2556 32.592C10.5556 32.658 10.8406 32.751 11.1106 32.871L10.8046 33.672C10.5586 33.57 10.3066 33.486 10.0486 33.42C9.79662 33.354 9.53562 33.321 9.26562 33.321C8.91162 33.321 8.64162 33.399 8.45562 33.555C8.26962 33.711 8.17662 33.915 8.17662 34.167C8.17662 34.365 8.22162 34.533 8.31162 34.671C8.40162 34.803 8.54562 34.923 8.74362 35.031C8.94162 35.139 9.20262 35.259 9.52662 35.391C9.88662 35.535 10.1926 35.688 10.4446 35.85C10.7026 36.006 10.8976 36.198 11.0296 36.426C11.1616 36.648 11.2276 36.927 11.2276 37.263ZM14.8739 38.316C14.9999 38.316 15.1289 38.307 15.2609 38.289C15.3929 38.265 15.5069 38.235 15.6029 38.199V38.919C15.4949 38.967 15.3539 39.006 15.1799 39.036C15.0119 39.072 14.8409 39.09 14.6669 39.09C14.4029 39.09 14.1599 39.045 13.9379 38.955C13.7159 38.865 13.5389 38.709 13.4069 38.487C13.2809 38.265 13.2179 37.956 13.2179 37.56V34.878H12.5429V34.446L13.2539 34.086L13.5869 33.06H14.1719V34.149H15.5579V34.878H14.1719V37.542C14.1719 37.806 14.2349 38.001 14.3609 38.127C14.4929 38.253 14.6639 38.316 14.8739 38.316ZM19.2042 34.059C19.8102 34.059 20.2632 34.194 20.5632 34.464C20.8692 34.728 21.0222 35.145 21.0222 35.715V39H20.3472L20.1582 38.325H20.1222C19.9122 38.589 19.6902 38.784 19.4562 38.91C19.2282 39.03 18.9102 39.09 18.5022 39.09C18.0642 39.09 17.7012 38.973 17.4132 38.739C17.1252 38.499 16.9812 38.127 16.9812 37.623C16.9812 37.131 17.1672 36.756 17.5392 36.498C17.9112 36.24 18.4842 36.099 19.2582 36.075L20.0862 36.048V35.778C20.0862 35.424 20.0052 35.175 19.8432 35.031C19.6812 34.881 19.4532 34.806 19.1592 34.806C18.9132 34.806 18.6762 34.842 18.4482 34.914C18.2202 34.986 18.0012 35.073 17.7912 35.175L17.4852 34.482C17.7132 34.362 17.9742 34.263 18.2682 34.185C18.5682 34.101 18.8802 34.059 19.2042 34.059ZM19.4292 36.687C18.8772 36.711 18.4932 36.804 18.2772 36.966C18.0672 37.122 17.9622 37.344 17.9622 37.632C17.9622 37.884 18.0372 38.067 18.1872 38.181C18.3372 38.295 18.5322 38.352 18.7722 38.352C19.1442 38.352 19.4532 38.247 19.6992 38.037C19.9512 37.827 20.0772 37.512 20.0772 37.092V36.669L19.4292 36.687ZM25.6351 34.059C25.7191 34.059 25.8091 34.065 25.9051 34.077C26.0071 34.083 26.0941 34.092 26.1661 34.104L26.0671 34.995C25.9111 34.953 25.7491 34.932 25.5811 34.932C25.3411 34.932 25.1131 34.992 24.8971 35.112C24.6871 35.232 24.5161 35.406 24.3841 35.634C24.2581 35.856 24.1951 36.126 24.1951 36.444V39H23.2411V34.149H23.9971L24.1231 35.013H24.1591C24.3151 34.755 24.5161 34.533 24.7621 34.347C25.0081 34.155 25.2991 34.059 25.6351 34.059Z" fill="#F2C611"/>
<defs>
<filter id="filter0_d" x="0.5" y="0" width="32" height="32" filterUnits="userSpaceOnUse" color-interpolation-filters="sRGB">
<feFlood flood-opacity="0" result="BackgroundImageFix"/>
<feColorMatrix in="SourceAlpha" type="matrix" values="0 0 0 0 0 0 0 0 0 0 0 0 0 0 0 0 0 0 127 0" result="hardAlpha"/>
<feOffset/>
<feGaussianBlur stdDeviation="2"/>
<feColorMatrix type="matrix" values="0 0 0 0 0.9625 0 0 0 0 0.815843 0 0 0 0 0.212552 0 0 0 1 0"/>
<feBlend mode="normal" in2="BackgroundImageFix" result="effect1_dropShadow"/>
<feBlend mode="normal" in="SourceGraphic" in2="effect1_dropShadow" result="shape"/>
</filter>
<clipPath id="clip0">
<rect width="24" height="24" fill="white" transform="translate(4.5 4)"/>
</clipPath>
</defs>
</svg>
