<svg width="25" height="38" viewBox="0 0 25 38" fill="none" xmlns="http://www.w3.org/2000/svg">
<g clip-path="url(#clip0)">
<path d="M12.7069 2.29487e-05H11.9686C8.83563 0.0994377 5.86985 1.45854 3.72372 3.77833C1.57759 6.09813 0.42691 9.1886 0.524816 12.3699C0.622722 15.5511 1.96119 18.5626 4.24578 20.7418C6.53037 22.921 9.57394 24.0894 12.7069 23.99H19.5978C20.2442 23.99 20.8842 23.8608 21.4814 23.6096C22.0786 23.3584 22.6212 22.9903 23.0783 22.5262C23.5353 22.0621 23.8979 21.5111 24.1452 20.9047C24.3926 20.2984 24.5199 19.6484 24.5199 18.9921V11.2453C24.3318 8.19576 23.0047 5.33402 20.8094 3.2442C18.6141 1.15439 15.7161 -0.0059504 12.7069 2.29487e-05ZM8.71021 6.99711H12.6479C12.909 6.99711 13.1593 7.10242 13.344 7.28988C13.5286 7.47734 13.6323 7.73158 13.6323 7.99669C13.6323 8.2618 13.5286 8.51604 13.344 8.7035C13.1593 8.89096 12.909 8.99627 12.6479 8.99627H8.71021C8.44913 8.99627 8.19874 8.89096 8.01413 8.7035C7.82951 8.51604 7.7258 8.2618 7.7258 7.99669C7.7258 7.73158 7.82951 7.47734 8.01413 7.28988C8.19874 7.10242 8.44913 6.99711 8.71021 6.99711ZM16.5855 16.9929H8.71021C8.44913 16.9929 8.19874 16.8876 8.01413 16.7002C7.82951 16.5127 7.7258 16.2585 7.7258 15.9934C7.7258 15.7283 7.82951 15.474 8.01413 15.2865C8.19874 15.0991 8.44913 14.9938 8.71021 14.9938H16.5855C16.8466 14.9938 17.097 15.0991 17.2816 15.2865C17.4662 15.474 17.5699 15.7283 17.5699 15.9934C17.5699 16.2585 17.4662 16.5127 17.2816 16.7002C17.097 16.8876 16.8466 16.9929 16.5855 16.9929ZM16.5855 12.9946H8.71021C8.44913 12.9946 8.19874 12.8893 8.01413 12.7018C7.82951 12.5144 7.7258 12.2601 7.7258 11.995C7.7258 11.7299 7.82951 11.4757 8.01413 11.2882C8.19874 11.1008 8.44913 10.9954 8.71021 10.9954H16.5855C16.8466 10.9954 17.097 11.1008 17.2816 11.2882C17.4662 11.4757 17.5699 11.7299 17.5699 11.995C17.5699 12.2601 17.4662 12.5144 17.2816 12.7018C17.097 12.8893 16.8466 12.9946 16.5855 12.9946Z" fill="#D6D5D1"/>
</g>
<path d="M7.455 27.683C7.293 28.106 6.978 28.736 6.753 29.123L7.212 29.33C7.464 28.97 7.77 28.403 8.049 27.917L7.455 27.683ZM4.638 29.069C4.548 28.709 4.269 28.151 3.99 27.728L3.504 27.944C3.774 28.367 4.044 28.943 4.134 29.312L4.638 29.069ZM6.654 31.319H4.701L5.178 31.148C5.115 30.824 4.917 30.32 4.683 29.951L4.161 30.131C4.368 30.509 4.566 30.995 4.62 31.319H3.747V31.886H5.394V32.804H3.972V33.362H5.394V34.424C4.656 34.523 3.981 34.604 3.441 34.667L3.54 35.297C4.683 35.144 6.366 34.91 7.932 34.685L7.914 34.091L6.015 34.343V33.362H7.491V32.804H6.015V31.886H7.68V31.319H6.726C6.897 31.004 7.113 30.536 7.302 30.113L6.699 29.933C6.582 30.302 6.366 30.842 6.186 31.184L6.654 31.319ZM11.613 29.87H10.659V27.53H10.011V29.87H8.004V29.375H6.6V27.512H6.042V29.375H5.358V27.512H4.809V29.375H3.414V29.933H7.905V30.5H10.011V34.865C10.011 35.018 9.957 35.072 9.804 35.072C9.66 35.081 9.165 35.081 8.625 35.063C8.724 35.234 8.832 35.522 8.868 35.693C9.597 35.693 10.029 35.675 10.299 35.576C10.551 35.459 10.659 35.27 10.659 34.865V30.5H11.613V29.87ZM9.579 33.245C9.48 32.696 9.129 31.859 8.751 31.211L8.193 31.409C8.562 32.066 8.895 32.921 8.985 33.461L9.579 33.245ZM16.143 27.782H13.605V28.322H16.143V27.782ZM15.603 33.218V34.721H14.118V33.218H15.603ZM16.188 32.669H13.533V35.675H14.118V35.27H16.188V32.669ZM13.551 31.976H16.161V31.445H13.551V31.976ZM16.161 30.221H13.551V30.752H16.161V30.221ZM13.128 29.528H16.458V28.979H13.128V29.528ZM20.319 34.631H17.673V32.831H20.319V34.631ZM21.399 30.716V30.077H19.293V28.547C19.95 28.439 20.571 28.313 21.075 28.16L20.589 27.62C19.689 27.899 18.087 28.124 16.737 28.259C16.809 28.412 16.908 28.655 16.926 28.817C17.466 28.772 18.042 28.718 18.618 28.646V30.077H16.521V30.716H18.618V32.219H17.043V35.684H17.673V35.234H20.319V35.63H20.985V32.219H19.293V30.716H21.399Z" fill="#A9A8A5"/>
<defs>
<clipPath id="clip0">
<rect width="24" height="24" fill="white" transform="translate(0.5)"/>
</clipPath>
</defs>
</svg>
