<svg width="33" height="42" viewBox="0 0 33 42" fill="none" xmlns="http://www.w3.org/2000/svg">
<g clip-path="url(#clip0)" filter="url(#filter0_d)">
<path d="M16.6872 4.00002H15.9488C12.8159 4.09944 9.85008 5.45854 7.70395 7.77833C5.55781 10.0981 4.40713 13.1886 4.50504 16.3699C4.60295 19.5511 5.94142 22.5626 8.22601 24.7418C10.5106 26.921 13.5542 28.0894 16.6872 27.99H23.5781C24.2244 27.99 24.8645 27.8608 25.4616 27.6096C26.0588 27.3584 26.6014 26.9903 27.0585 26.5262C27.5155 26.0621 27.8781 25.5111 28.1255 24.9047C28.3728 24.2984 28.5001 23.6484 28.5001 22.9921V15.2453C28.3121 12.1958 26.9849 9.33402 24.7896 7.2442C22.5943 5.15439 19.6963 3.99405 16.6872 4.00002V4.00002ZM12.7495 10.9971H16.6872C16.9482 10.9971 17.1986 11.1024 17.3832 11.2899C17.5679 11.4773 17.6716 11.7316 17.6716 11.9967C17.6716 12.2618 17.5679 12.516 17.3832 12.7035C17.1986 12.891 16.9482 12.9963 16.6872 12.9963H12.7495C12.4884 12.9963 12.238 12.891 12.0534 12.7035C11.8688 12.516 11.7651 12.2618 11.7651 11.9967C11.7651 11.7316 11.8688 11.4773 12.0534 11.2899C12.238 11.1024 12.4884 10.9971 12.7495 10.9971V10.9971ZM20.6248 20.9929H12.7495C12.4884 20.9929 12.238 20.8876 12.0534 20.7002C11.8688 20.5127 11.7651 20.2585 11.7651 19.9934C11.7651 19.7283 11.8688 19.474 12.0534 19.2865C12.238 19.0991 12.4884 18.9938 12.7495 18.9938H20.6248C20.8859 18.9938 21.1363 19.0991 21.3209 19.2865C21.5055 19.474 21.6092 19.7283 21.6092 19.9934C21.6092 20.2585 21.5055 20.5127 21.3209 20.7002C21.1363 20.8876 20.8859 20.9929 20.6248 20.9929ZM20.6248 16.9946H12.7495C12.4884 16.9946 12.238 16.8893 12.0534 16.7018C11.8688 16.5144 11.7651 16.2601 11.7651 15.995C11.7651 15.7299 11.8688 15.4757 12.0534 15.2882C12.238 15.1008 12.4884 14.9954 12.7495 14.9954H20.6248C20.8859 14.9954 21.1363 15.1008 21.3209 15.2882C21.5055 15.4757 21.6092 15.7299 21.6092 15.995C21.6092 16.2601 21.5055 16.5144 21.3209 16.7018C21.1363 16.8893 20.8859 16.9946 20.6248 16.9946Z" fill="#F2C611"/>
</g>
<path d="M11.455 31.683C11.293 32.106 10.978 32.736 10.753 33.123L11.212 33.33C11.464 32.97 11.77 32.403 12.049 31.917L11.455 31.683ZM8.638 33.069C8.548 32.709 8.269 32.151 7.99 31.728L7.504 31.944C7.774 32.367 8.044 32.943 8.134 33.312L8.638 33.069ZM10.654 35.319H8.701L9.178 35.148C9.115 34.824 8.917 34.32 8.683 33.951L8.161 34.131C8.368 34.509 8.566 34.995 8.62 35.319H7.747V35.886H9.394V36.804H7.972V37.362H9.394V38.424C8.656 38.523 7.981 38.604 7.441 38.667L7.54 39.297C8.683 39.144 10.366 38.91 11.932 38.685L11.914 38.091L10.015 38.343V37.362H11.491V36.804H10.015V35.886H11.68V35.319H10.726C10.897 35.004 11.113 34.536 11.302 34.113L10.699 33.933C10.582 34.302 10.366 34.842 10.186 35.184L10.654 35.319ZM15.613 33.87H14.659V31.53H14.011V33.87H12.004V33.375H10.6V31.512H10.042V33.375H9.358V31.512H8.809V33.375H7.414V33.933H11.905V34.5H14.011V38.865C14.011 39.018 13.957 39.072 13.804 39.072C13.66 39.081 13.165 39.081 12.625 39.063C12.724 39.234 12.832 39.522 12.868 39.693C13.597 39.693 14.029 39.675 14.299 39.576C14.551 39.459 14.659 39.27 14.659 38.865V34.5H15.613V33.87ZM13.579 37.245C13.48 36.696 13.129 35.859 12.751 35.211L12.193 35.409C12.562 36.066 12.895 36.921 12.985 37.461L13.579 37.245ZM20.143 31.782H17.605V32.322H20.143V31.782ZM19.603 37.218V38.721H18.118V37.218H19.603ZM20.188 36.669H17.533V39.675H18.118V39.27H20.188V36.669ZM17.551 35.976H20.161V35.445H17.551V35.976ZM20.161 34.221H17.551V34.752H20.161V34.221ZM17.128 33.528H20.458V32.979H17.128V33.528ZM24.319 38.631H21.673V36.831H24.319V38.631ZM25.399 34.716V34.077H23.293V32.547C23.95 32.439 24.571 32.313 25.075 32.16L24.589 31.62C23.689 31.899 22.087 32.124 20.737 32.259C20.809 32.412 20.908 32.655 20.926 32.817C21.466 32.772 22.042 32.718 22.618 32.646V34.077H20.521V34.716H22.618V36.219H21.043V39.684H21.673V39.234H24.319V39.63H24.985V36.219H23.293V34.716H25.399Z" fill="#F2C611"/>
<defs>
<filter id="filter0_d" x="0.5" y="0" width="32" height="32" filterUnits="userSpaceOnUse" color-interpolation-filters="sRGB">
<feFlood flood-opacity="0" result="BackgroundImageFix"/>
<feColorMatrix in="SourceAlpha" type="matrix" values="0 0 0 0 0 0 0 0 0 0 0 0 0 0 0 0 0 0 127 0" result="hardAlpha"/>
<feOffset/>
<feGaussianBlur stdDeviation="2"/>
<feColorMatrix type="matrix" values="0 0 0 0 0.9625 0 0 0 0 0.815843 0 0 0 0 0.212552 0 0 0 1 0"/>
<feBlend mode="normal" in2="BackgroundImageFix" result="effect1_dropShadow"/>
<feBlend mode="normal" in="SourceGraphic" in2="effect1_dropShadow" result="shape"/>
</filter>
<clipPath id="clip0">
<rect width="24" height="24" fill="white" transform="translate(4.5 4)"/>
</clipPath>
</defs>
</svg>
