<svg id="Kid_avatar" height="512" viewBox="0 0 64 64" width="512" xmlns="http://www.w3.org/2000/svg" data-name="Kid avatar"><path d="m50 61h-36l.43-6.6a12 12 0 0 1 11.985-11.4h11.17a12 12 0 0 1 11.985 11.4z" fill="#b7c1cd"/><path d="m22 43.84v2.16a3 3 0 0 0 3 3h13a4 4 0 0 0 4-4v-1.16a12.012 12.012 0 0 0 -4.41-.84h-11.18a12.012 12.012 0 0 0 -4.41.84z" fill="#e9e9ea"/><circle cx="32" cy="43" fill="#ffcbbe" r="6"/><path d="m54 41h-44l2.69-3.36a5.976 5.976 0 0 0 1.31-3.74v-12.9a18 18 0 0 1 36 0v12.9a5.976 5.976 0 0 0 1.31 3.74z" fill="#3e3d42"/><path d="m19 32h-2.5a3.5 3.5 0 0 1 -3.5-3.5 3.5 3.5 0 0 1 3.5-3.5h2.5z" fill="#ffcbbe"/><path d="m45 32h2.5a3.5 3.5 0 0 0 3.5-3.5 3.5 3.5 0 0 0 -3.5-3.5h-2.5z" fill="#ffcbbe"/><path d="m46 21h-5a12 12 0 0 1 -10.4-6h-6.6a6 6 0 0 0 -6 6v8.6a14.261 14.261 0 0 0 13.319 14.384 14 14 0 0 0 14.681-13.984z" fill="#ffddce"/><path d="m54.78 40.38-2.69-3.37a4.989 4.989 0 0 1 -1.09-3.11v-2.61a4.392 4.392 0 0 0 0-5.58v-4.71a19 19 0 0 0 -38 0v4.71a4.392 4.392 0 0 0 0 5.58v2.61a5.038 5.038 0 0 1 -1.09 3.12l-2.69 3.36a.981.981 0 0 0 -.12 1.05 1 1 0 0 0 .9.57h13.04c.15.11.3.23.45.34a13.078 13.078 0 0 0 -10.06 11.99l-.43 6.61a1.008 1.008 0 0 0 1 1.06h36a1.008 1.008 0 0 0 1-1.06l-.43-6.59a13.082 13.082 0 0 0 -10.06-12.01c.15-.11.3-.23.45-.34h13.04a.993.993 0 0 0 .9-.57.981.981 0 0 0 -.12-1.05zm-4.78-11.88a2.5 2.5 0 0 1 -2.5 2.5h-.55c.02-.33.05-.66.05-1v-4h.5a2.509 2.509 0 0 1 2.5 2.5zm-35-7.5a17 17 0 0 1 34 0v3.27a4.472 4.472 0 0 0 -1.5-.27h-.5v-3a1 1 0 0 0 -1-1h-5a11.04 11.04 0 0 1 -9.53-5.5 1 1 0 0 0 -.87-.5h-6.6a7.008 7.008 0 0 0 -7 7v3h-.5a4.472 4.472 0 0 0 -1.5.27zm-.26 5.73a2.465 2.465 0 0 1 1.76-.73h.5v4c0 .34.03.67.05 1h-.55a2.5 2.5 0 0 1 -2.5-2.5 2.474 2.474 0 0 1 .74-1.77zm-2.66 13.27 1.39-1.73a7 7 0 0 0 1.53-4.37v-1.18a4.39 4.39 0 0 0 1.5.28h.8a14.926 14.926 0 0 0 3.55 7zm10.92 4.55a10.379 10.379 0 0 1 2.09-.46 7.012 7.012 0 0 0 2.02 3.91h-2.11a2.006 2.006 0 0 1 -2-2zm19.96.87a11.06 11.06 0 0 1 5.61 9.04l.36 5.54h-33.86l.36-5.55a11.04 11.04 0 0 1 5.57-9v.55a4 4 0 0 0 4 4h13a5 5 0 0 0 4.96-4.58zm-15.8-1.24a14.694 14.694 0 0 0 9.68 0 4.976 4.976 0 0 1 -9.68 0zm13.84.37v.45a3.009 3.009 0 0 1 -3 3h-1.11a7.012 7.012 0 0 0 2.02-3.91 10.379 10.379 0 0 1 2.09.46zm-9-1.55a13.012 13.012 0 0 1 -13-13v-9a5 5 0 0 1 5-5h6.04a13.036 13.036 0 0 0 10.96 6h4v8a13.012 13.012 0 0 1 -13 13zm11.15-3a14.926 14.926 0 0 0 3.55-7h.8a4.39 4.39 0 0 0 1.5-.28v1.18a7 7 0 0 0 1.53 4.37l1.39 1.73z"/><path d="m26 29a1 1 0 0 0 1-1v-2a1 1 0 0 0 -2 0v2a1 1 0 0 0 1 1z"/><path d="m38 25a1 1 0 0 0 -1 1v2a1 1 0 0 0 2 0v-2a1 1 0 0 0 -1-1z"/><path d="m32 37c-2.71 0-5-1.374-5-3h-2c0 2.8 3.075 5 7 5s7-2.2 7-5h-2c0 1.626-2.29 3-5 3z"/><circle cx="32" cy="53" r="1"/><circle cx="32" cy="57" r="1"/></svg>