<svg id="Kid_avatar" height="512" viewBox="0 0 64 64" width="512" xmlns="http://www.w3.org/2000/svg" data-name="Kid avatar"><path d="m50 61h-36l.43-6.6a12 12 0 0 1 11.985-11.4h11.17a12 12 0 0 1 11.985 11.4z" fill="#48a3d2"/><path d="m14 61h7l1-7h-7.54z" fill="#ffcbbe"/><path d="m49.54 54h-7.54l1 7h7z" fill="#ffcbbe"/><path d="m28 43h4a0 0 0 0 1 0 0v2a4 4 0 0 1 -4 4h-4a0 0 0 0 1 0 0v-2a4 4 0 0 1 4-4z" fill="#bdfdff"/><path d="m32 43h4a4 4 0 0 1 4 4v2a0 0 0 0 1 0 0h-4a4 4 0 0 1 -4-4v-2a0 0 0 0 1 0 0z" fill="#bdfdff" transform="matrix(-1 0 0 -1 72 92)"/><path d="m52.391 32.345a4.946 4.946 0 0 0 .609-2.345 5 5 0 0 0 -3-4.578v-4.422a18 18 0 0 0 -36 0v4.422a5 5 0 0 0 -3 4.578 4.946 4.946 0 0 0 .609 2.345 4.989 4.989 0 0 0 6.248 7.75 3 3 0 1 0 2.143-5.095c-.034 0-.066.009-.1.01a4.925 4.925 0 0 0 -.509-1.355 4.964 4.964 0 0 0 1.509-4.655h22.2a4.964 4.964 0 0 0 1.508 4.655 4.925 4.925 0 0 0 -.508 1.355c-.034 0-.066-.01-.1-.01a3 3 0 1 0 2.143 5.1 4.988 4.988 0 0 0 6.248-7.75z" fill="#3e3d42"/><path d="m19 32h-2.5a3.5 3.5 0 0 1 -3.5-3.5 3.5 3.5 0 0 1 3.5-3.5h2.5z" fill="#ffcbbe"/><path d="m45 32h2.5a3.5 3.5 0 0 0 3.5-3.5 3.5 3.5 0 0 0 -3.5-3.5h-2.5z" fill="#ffcbbe"/><path d="m36.09 14.88a12.019 12.019 0 0 1 -8.09 3.12h-10v12a14 14 0 0 0 28 0v-11a13.916 13.916 0 0 1 -9.91-4.12z" fill="#ffddce"/><circle cx="32" cy="52" r="1"/><circle cx="32" cy="56" r="1"/><path d="m44 42a4.035 4.035 0 0 0 2.23-.68 5.941 5.941 0 0 0 2.77.68 6 6 0 0 0 6-6 5.907 5.907 0 0 0 -1.42-3.85 5.754 5.754 0 0 0 .42-2.15 6.027 6.027 0 0 0 -3-5.19v-3.81a19 19 0 0 0 -38 0v3.81a6.027 6.027 0 0 0 -3 5.19 5.678 5.678 0 0 0 .42 2.15 5.926 5.926 0 0 0 -1.42 3.85 6 6 0 0 0 6 6 5.941 5.941 0 0 0 2.77-.68 3.972 3.972 0 0 0 4.43.01 12.889 12.889 0 0 0 1.3 1.01 13.052 13.052 0 0 0 -10.07 11.99l-.43 6.61a1.008 1.008 0 0 0 1 1.06h36a1.008 1.008 0 0 0 1-1.06l-.43-6.59a13.065 13.065 0 0 0 -10.07-12.01 14.258 14.258 0 0 0 1.31-1.01 4.008 4.008 0 0 0 2.19.67zm7.92-12.74a3.646 3.646 0 0 1 .08.74 3.917 3.917 0 0 1 -.49 1.86.99.99 0 0 0 .2 1.21 4 4 0 0 1 -5 6.21.989.989 0 0 0 -1.28.12 2.09 2.09 0 0 1 -2.14.45 14.944 14.944 0 0 0 3.41-6.85h.8a4.491 4.491 0 0 0 4.42-3.74zm-1.92-.76a2.5 2.5 0 0 1 -2.5 2.5h-.55c.02-.33.05-.66.05-1v-4h.5a2.509 2.509 0 0 1 2.5 2.5zm-35-7.5a17 17 0 0 1 34 0v3.27a4.472 4.472 0 0 0 -1.5-.27h-.5v-5a1 1 0 0 0 -1-1 12.886 12.886 0 0 1 -9.2-3.82 1 1 0 0 0 -1.38-.04 11.058 11.058 0 0 1 -7.42 2.86h-10a1 1 0 0 0 -1 1v6h-.5a4.472 4.472 0 0 0 -1.5.27zm-.26 5.73a2.465 2.465 0 0 1 1.76-.73h.5v4c0 .34.03.67.05 1h-.55a2.5 2.5 0 0 1 -2.5-2.5 2.474 2.474 0 0 1 .74-1.77zm3.83 12.67a.989.989 0 0 0 -1.28-.12 4 4 0 0 1 -5-6.21.99.99 0 0 0 .2-1.21 3.778 3.778 0 0 1 -.49-1.86 3.646 3.646 0 0 1 .08-.74 4.491 4.491 0 0 0 4.42 3.74h.8a14.957 14.957 0 0 0 3.41 6.84 2.045 2.045 0 0 1 -2.14-.44zm1.56 20.6h-5.06l.32-5h5.46zm28.8 0h-5.06l-.72-5h5.46zm-7.93-12v-2a4.9 4.9 0 0 0 -.25-1.53 11.088 11.088 0 0 1 7.64 8.53h-6.39a1.037 1.037 0 0 0 -.76.34 1.006 1.006 0 0 0 -.23.8l.84 5.86h-19.7l.84-5.86a1.006 1.006 0 0 0 -.23-.8 1.037 1.037 0 0 0 -.76-.34h-6.39a11.086 11.086 0 0 1 7.64-8.53 4.9 4.9 0 0 0 -.25 1.53v2a1 1 0 0 0 1 1h4a4.994 4.994 0 0 0 4-2.03 4.994 4.994 0 0 0 4 2.03h4a1 1 0 0 0 1-1zm-16-1v-1a2.943 2.943 0 0 1 1.04-2.24 14.778 14.778 0 0 0 4.79 1.18 2.989 2.989 0 0 1 -2.83 2.06zm8.17-2.06a14.778 14.778 0 0 0 4.79-1.18 2.943 2.943 0 0 1 1.04 2.24v1h-3a2.989 2.989 0 0 1 -2.83-2.06zm-1.17-1.94a13.012 13.012 0 0 1 -13-13v-11h9a13.014 13.014 0 0 0 8.05-2.78 14.851 14.851 0 0 0 8.95 3.75v10.03a13.012 13.012 0 0 1 -13 13z"/><path d="m26 29a1 1 0 0 0 1-1v-2a1 1 0 0 0 -2 0v2a1 1 0 0 0 1 1z"/><path d="m38 25a1 1 0 0 0 -1 1v2a1 1 0 0 0 2 0v-2a1 1 0 0 0 -1-1z"/><path d="m32 38c-2.71 0-5-1.374-5-3h-2c0 2.8 3.075 5 7 5s7-2.2 7-5h-2c0 1.626-2.29 3-5 3z"/></svg>