<svg id="Kid_avatar" height="512" viewBox="0 0 64 64" width="512" xmlns="http://www.w3.org/2000/svg" data-name="Kid avatar"><path d="m14 61h7l1-7h-7.54z" fill="#ffcbbe"/><path d="m49.54 54h-7.54l1 7h7z" fill="#ffcbbe"/><path d="m50 61h-36l.43-6.6a12 12 0 0 1 11.985-11.4h11.17a12 12 0 0 1 11.985 11.4z" fill="#48a3d2"/><path d="m28 42h4a0 0 0 0 1 0 0v2a4 4 0 0 1 -4 4h-4a0 0 0 0 1 0 0v-2a4 4 0 0 1 4-4z" fill="#bdfdff"/><path d="m32 42h4a4 4 0 0 1 4 4v2a0 0 0 0 1 0 0h-4a4 4 0 0 1 -4-4v-2a0 0 0 0 1 0 0z" fill="#bdfdff" transform="matrix(-1 0 0 -1 72 90)"/><circle cx="51" cy="11" fill="#3e3d42" r="6"/><path d="m54 43h-1a15.987 15.987 0 0 1 -15.95-15h-13.05a10 10 0 0 1 -10-10v-1a14 14 0 0 1 14-14h9a14 14 0 0 1 14 14v18.58a6.108 6.108 0 0 0 .63 2.69z" fill="#3e3d42"/><path d="m19 32h-2.5a3.5 3.5 0 0 1 -3.5-3.5 3.5 3.5 0 0 1 3.5-3.5h2.5z" fill="#ffcbbe"/><path d="m46 20v10a14 14 0 0 1 -28 0v-10l2.7-2.25a4.979 4.979 0 0 0 6.61-.01 5 5 0 0 0 9.38 0 4.979 4.979 0 0 0 6.61.01z" fill="#ffddce"/><path d="m52 17.92a7 7 0 0 0 -1-13.92 6.885 6.885 0 0 0 -4.35 1.53 14.933 14.933 0 0 0 -9.65-3.53h-9a15.018 15.018 0 0 0 -15 15v1a10.915 10.915 0 0 0 1.98 6.28 4.284 4.284 0 0 0 -1.65 1.04 4.406 4.406 0 0 0 -1.33 3.18 4.507 4.507 0 0 0 4.5 4.5h.8a15 15 0 0 0 6.2 9.34 13.052 13.052 0 0 0 -10.07 11.99l-.43 6.61a1.008 1.008 0 0 0 1 1.06h36a1.008 1.008 0 0 0 1-1.06l-.43-6.59a13.065 13.065 0 0 0 -10.07-12.01 14.826 14.826 0 0 0 2.19-1.84 17 17 0 0 0 10.31 3.5h1a1 1 0 0 0 .89-1.45l-2.36-4.72a5.092 5.092 0 0 1 -.53-2.25zm-35.5 13.08a2.5 2.5 0 0 1 -2.5-2.5 2.51 2.51 0 0 1 2.47-2.5c.17.16.35.3.53.45v3.55c0 .34.03.67.05 1zm3.63 29h-5.06l.32-5h5.46zm28.8 0h-5.06l-.72-5h5.46zm-7.93-12v-2a4.9 4.9 0 0 0 -.25-1.53 11.088 11.088 0 0 1 7.64 8.53h-6.39a1.037 1.037 0 0 0 -.76.34 1.006 1.006 0 0 0 -.23.8l.84 5.86h-19.7l.84-5.86a1.006 1.006 0 0 0 -.23-.8 1.037 1.037 0 0 0 -.76-.34h-6.39a11.086 11.086 0 0 1 7.64-8.53 4.9 4.9 0 0 0 -.25 1.53v2a1 1 0 0 0 1 1h4a4.994 4.994 0 0 0 4-2.03 4.994 4.994 0 0 0 4 2.03h4a1 1 0 0 0 1-1zm-16-1v-1a2.943 2.943 0 0 1 1.04-2.24 14.778 14.778 0 0 0 4.79 1.18 2.989 2.989 0 0 1 -2.83 2.06zm8.17-2.06a14.778 14.778 0 0 0 4.79-1.18 2.943 2.943 0 0 1 1.04 2.24v1h-3a2.989 2.989 0 0 1 -2.83-2.06zm-1.17-1.94a13.012 13.012 0 0 1 -13-13v-9.53l1.73-1.44a6.114 6.114 0 0 0 6.21.2 6.007 6.007 0 0 0 10.12 0 6.115 6.115 0 0 0 6.21-.2l1.73 1.44v9.53a13.012 13.012 0 0 1 -13 13zm20.37-1.01a15.046 15.046 0 0 1 -8.38-3.01 14.925 14.925 0 0 0 3.01-8.98v-10a.992.992 0 0 0 -.36-.77l-2.7-2.25a1 1 0 0 0 -1.3.02 3.983 3.983 0 0 1 -5.29-.01.98.98 0 0 0 -.9-.22 1.013 1.013 0 0 0 -.7.62 4 4 0 0 1 -7.5 0 1.013 1.013 0 0 0 -.7-.62.98.98 0 0 0 -.9.22 3.983 3.983 0 0 1 -5.29.01 1 1 0 0 0 -1.3-.02l-2.7 2.25a.992.992 0 0 0 -.36.77v3.65a8.877 8.877 0 0 1 -2-5.65v-1a13.012 13.012 0 0 1 13-13h9a13.012 13.012 0 0 1 13 13v18.58a7.1 7.1 0 0 0 .74 3.14zm-.43-26.09a14.964 14.964 0 0 0 -3.84-8.96 4.9 4.9 0 0 1 2.9-.94 4.994 4.994 0 0 1 .94 9.9z"/><path d="m26 29a1 1 0 0 0 1-1v-2a1 1 0 0 0 -2 0v2a1 1 0 0 0 1 1z"/><path d="m38 25a1 1 0 0 0 -1 1v2a1 1 0 0 0 2 0v-2a1 1 0 0 0 -1-1z"/><path d="m32 37c-2.71 0-5-1.374-5-3h-2c0 2.8 3.075 5 7 5s7-2.2 7-5h-2c0 1.626-2.29 3-5 3z"/><circle cx="32" cy="52" r="1"/><circle cx="32" cy="56" r="1"/></svg>