<svg id="Kid_avatar" height="512" viewBox="0 0 64 64" width="512" xmlns="http://www.w3.org/2000/svg" data-name="Kid avatar"><path d="m49.74 57-.17-2.6a11.934 11.934 0 0 0 -.67-3.4h-33.8a11.934 11.934 0 0 0 -.67 3.4l-.17 2.6z" fill="#c1433f"/><path d="m47 13a6 6 0 0 1 6 6v3.25l3 3.75h-6a6 6 0 0 1 -6-6v-7z" fill="#2d2d30"/><circle cx="42" cy="8" fill="#2d2d30" r="5"/><path d="m19 32h-2.5a3.5 3.5 0 0 1 -3.5-3.5 3.5 3.5 0 0 1 3.5-3.5h2.5z" fill="#ffcbbe"/><path d="m45 32h2.5a3.5 3.5 0 0 0 3.5-3.5 3.5 3.5 0 0 0 -3.5-3.5h-2.5z" fill="#ffcbbe"/><path d="m50 61h-36l.43-6.6a12 12 0 0 1 11.985-11.4h11.17a12 12 0 0 1 11.985 11.4z" fill="#ed626f"/><circle cx="32" cy="42" fill="#ffcbbe" r="6"/><path d="m46 19v11a14 14 0 0 1 -28 0v-11l14-3z" fill="#ffddce"/><path d="m32 8a15 15 0 0 1 15 15v1.72a2.158 2.158 0 0 0 -.27-.05h-.01a15.966 15.966 0 0 1 -8.31-4.64c-.31-.33-.61-.67-.9-1.03a15.245 15.245 0 0 1 -1.76-2.72 10.7 10.7 0 0 1 -9.48 5.72h-4.062a6 6 0 0 0 -4.988 2.67l-.22.33v-2a15 15 0 0 1 15-15z" fill="#3e3d42"/><path d="m56.78 25.38-2.78-3.48v-2.9a7.008 7.008 0 0 0 -7-7h-.54a6 6 0 1 0 -10.42-4.69 15.216 15.216 0 0 0 -3.04-.31h-2a15.018 15.018 0 0 0 -15 15v2.05a4.334 4.334 0 0 0 -2.67 1.27 4.406 4.406 0 0 0 -1.33 3.18 4.507 4.507 0 0 0 4.5 4.5h.81a15.252 15.252 0 0 0 4.08 7.61 15.556 15.556 0 0 0 2.1 1.73 13.047 13.047 0 0 0 -10.06 11.99l-.43 6.61a1.008 1.008 0 0 0 1 1.06h36a1.008 1.008 0 0 0 1-1.06l-.43-6.59a13.07 13.07 0 0 0 -10.09-12.02 15.029 15.029 0 0 0 6.21-9.33h.81a4.47 4.47 0 0 0 4.23-6h4.27a1 1 0 0 0 .9-.57.981.981 0 0 0 -.12-1.05zm-40.28 5.62a2.5 2.5 0 0 1 -2.5-2.5 2.509 2.509 0 0 1 2.5-2.5h.5v4c0 .33.01.66.04 1zm25.5-27a4 4 0 0 1 1.77 7.59 14.936 14.936 0 0 0 -5.76-3.71 4.006 4.006 0 0 1 3.99-3.88zm6.93 56h-33.86l.13-2h33.6zm-.36-5.54.1 1.54h-33.34l.1-1.55a10.47 10.47 0 0 1 .42-2.45h32.3a10.554 10.554 0 0 1 .42 2.46zm-1.21-4.46h-30.72a11.035 11.035 0 0 1 8.67-5.93 7 7 0 0 0 13.38 0 11.013 11.013 0 0 1 8.67 5.93zm-19.75-5.65a14.856 14.856 0 0 0 8.79-.03 4.957 4.957 0 0 1 -8.79.03zm17.39-14.35a12.972 12.972 0 0 1 -13 13 12.863 12.863 0 0 1 -5-1h-.01a12.964 12.964 0 0 1 -7.99-12v-5.83a5.005 5.005 0 0 1 3.21-1.17h4.06a11.695 11.695 0 0 0 9.44-4.78 16.2 16.2 0 0 0 1.02 1.4 17.131 17.131 0 0 0 8.27 5.62zm1-6.54a15.059 15.059 0 0 1 -7.71-5.09 13.789 13.789 0 0 1 -1.41-2.13 11.638 11.638 0 0 0 .97-3.08l-1.98-.32a9.248 9.248 0 0 1 -1.01 2.97 9.64 9.64 0 0 1 -8.59 5.19h-4.06a6.937 6.937 0 0 0 -4.21 1.42v-.42a13.012 13.012 0 0 1 13-13h2a13.012 13.012 0 0 1 13 13zm1.5 7.54h-.54c.03-.34.04-.67.04-1v-4h.5a2.509 2.509 0 0 1 2.5 2.5 2.5 2.5 0 0 1 -2.5 2.5zm2.79-6a4.365 4.365 0 0 0 -2.29-.95v-2.05a14.9 14.9 0 0 0 -2.33-8h1.33a5 5 0 0 1 5 5v3.25a.977.977 0 0 0 .22.62l1.7 2.13z"/><path d="m26 29a1 1 0 0 0 1-1v-2a1 1 0 0 0 -2 0v2a1 1 0 0 0 1 1z"/><path d="m38 25a1 1 0 0 0 -1 1v2a1 1 0 0 0 2 0v-2a1 1 0 0 0 -1-1z"/><path d="m32 37c-2.71 0-5-1.374-5-3h-2c0 2.8 3.075 5 7 5s7-2.2 7-5h-2c0 1.626-2.29 3-5 3z"/></svg>