<svg id="Kid_avatar" height="512" viewBox="0 0 64 64" width="512" xmlns="http://www.w3.org/2000/svg" data-name="Kid avatar"><path d="m50 61h-36l.43-6.6a12 12 0 0 1 11.985-11.4h11.17a12 12 0 0 1 11.985 11.4z" fill="#3780ea"/><g fill="#ffcbbe"><path d="m14 61h7l1-7h-7.54z"/><path d="m49.54 54h-7.54l1 7h7z"/><circle cx="32" cy="42" r="6"/></g><path d="m27.62 46.1a5.8 5.8 0 0 1 -1.04-1.54l-.49-1.55a11.69 11.69 0 0 0 -3.93.77 10 10 0 0 0 6.61 7.68l1.82-3.64a6.029 6.029 0 0 1 -2.97-1.72z" fill="#5bcbfa"/><path d="m41.84 43.78a10 10 0 0 1 -6.61 7.68l-1.82-3.64a5.976 5.976 0 0 0 4.5-4.81 11.69 11.69 0 0 1 3.93.77z" fill="#5bcbfa"/><path d="m53 33c0 3.314-9.4 8-21 8s-21-4.686-21-8 9.4-6 21-6 21 2.686 21 6z" fill="#3e3d42"/><path d="m50 28h-36v-3a18 18 0 0 1 18-18 18 18 0 0 1 18 18z" fill="#3e3d42"/><path d="m46 25v-4a14 14 0 0 0 -28 0v4l-4 1v-5a18 18 0 0 1 36 0v5z" fill="#f490c0"/><path d="m19 31h-2.5a3.5 3.5 0 0 1 -3.5-3.5 3.5 3.5 0 0 1 3.5-3.5h2.5z" fill="#ffcbbe"/><path d="m45 31h2.5a3.5 3.5 0 0 0 3.5-3.5 3.5 3.5 0 0 0 -3.5-3.5h-2.5z" fill="#ffcbbe"/><path d="m46 20.99c-.16.01-.33.01-.5.01-4.81 0-8.92-2.31-10.65-5.59-3.1 3.33-9.26 5.59-16.35 5.59-.17 0-.34 0-.5-.01v9.01a14 14 0 0 0 28 0z" fill="#ffddce"/><path d="m54 33c0-1.28-.86-2.43-2.53-3.43a4.357 4.357 0 0 0 -.47-4.86v-3.71a19 19 0 0 0 -38 0v3.71a4.357 4.357 0 0 0 -.47 4.86c-1.67 1-2.53 2.15-2.53 3.43 0 3.33 5.74 6.26 11.52 7.72a15.836 15.836 0 0 0 1.97 1.62 13.047 13.047 0 0 0 -10.06 11.99l-.43 6.61a1.008 1.008 0 0 0 1 1.06h36a1.008 1.008 0 0 0 1-1.06l-.43-6.59a13.059 13.059 0 0 0 -10.07-12.01 14.472 14.472 0 0 0 1.96-1.61c5.79-1.46 11.54-4.39 11.54-7.73zm-2 0c0 1.18-2.54 3.35-7.33 4.99a14.8 14.8 0 0 0 2.18-5.99h.65a4.476 4.476 0 0 0 2.66-.89c1.16.64 1.84 1.33 1.84 1.89zm-2-5.5a2.5 2.5 0 0 1 -2.5 2.5h-.5v-5h.5a2.509 2.509 0 0 1 2.5 2.5zm-35-6.5a17 17 0 0 1 34 0v2.27a4.472 4.472 0 0 0 -1.5-.27h-.5v-2.01a15 15 0 0 0 -30 0v2.01h-.5a4.472 4.472 0 0 0 -1.5.27zm29.95-1.03c-4.08-.16-7.67-2.09-9.22-5.03a1 1 0 0 0 -1.61-.21c-2.94 3.16-8.68 5.15-15.07 5.26a12.989 12.989 0 0 1 25.9-.02zm-30.21 5.76a2.465 2.465 0 0 1 1.76-.73h.5v5h-.5a2.5 2.5 0 0 1 -2.5-2.5 2.474 2.474 0 0 1 .74-1.77zm-2.74 7.27c0-.56.68-1.25 1.84-1.89a4.476 4.476 0 0 0 2.66.89h.65a14.769 14.769 0 0 0 2.17 5.99c-4.79-1.64-7.32-3.82-7.32-4.99zm13.31 11.07a6.941 6.941 0 0 0 3.87 4.33l-.9 1.79a8.94 8.94 0 0 1 -4.93-5.74 11.515 11.515 0 0 1 1.96-.38zm2.27.27a15.16 15.16 0 0 0 4.42.66 14.644 14.644 0 0 0 4.42-.67 5 5 0 0 1 -8.84.01zm-7.45 15.66h-5.06l.32-5h5.46zm28.8 0h-5.06l-.72-5h5.46zm-.54-7h-6.39a1.037 1.037 0 0 0 -.76.34 1.006 1.006 0 0 0 -.23.8l.84 5.86h-19.7l.84-5.86a1.006 1.006 0 0 0 -.23-.8 1.037 1.037 0 0 0 -.76-.34h-6.39a11.049 11.049 0 0 1 5.87-7.81 11.012 11.012 0 0 0 6.97 7.22 1.127 1.127 0 0 0 .32.05 1 1 0 0 0 .89-.55l1.49-2.97a6.051 6.051 0 0 0 1.7 0l1.49 2.97a1 1 0 0 0 .89.55 1.127 1.127 0 0 0 .32-.05 11.012 11.012 0 0 0 6.97-7.22 11.075 11.075 0 0 1 5.87 7.81zm-7.74-8.55a8.94 8.94 0 0 1 -4.93 5.74l-.9-1.79a6.941 6.941 0 0 0 3.87-4.33 11.515 11.515 0 0 1 1.96.38zm-8.65-1.45a13.008 13.008 0 0 1 -13-13v-8c6.35-.1 12.17-1.98 15.65-5.01a13.225 13.225 0 0 0 10.35 5v8.01a13.012 13.012 0 0 1 -13 13z"/><path d="m26 29a1 1 0 0 0 1-1v-2a1 1 0 0 0 -2 0v2a1 1 0 0 0 1 1z"/><path d="m38 25a1 1 0 0 0 -1 1v2a1 1 0 0 0 2 0v-2a1 1 0 0 0 -1-1z"/><path d="m32 37c-2.71 0-5-1.374-5-3h-2c0 2.8 3.075 5 7 5s7-2.2 7-5h-2c0 1.626-2.29 3-5 3z"/></svg>