<svg id="Kid_avatar" height="512" viewBox="0 0 64 64" width="512" xmlns="http://www.w3.org/2000/svg" data-name="Kid avatar"><path d="m51 22c0 10.493-8.507 38-19 38s-19-27.507-19-38a19 19 0 0 1 38 0z" fill="#3e3d42"/><path d="m39 41.09a11.993 11.993 0 0 1 10.57 11.31l.43 8.6h-36l.43-8.6a11.986 11.986 0 0 1 11.07-11.36z" fill="#b4cdf8"/><path d="m14 61h7l1-9h-7.54z" fill="#ffcbbe"/><path d="m49.54 52h-7.54l1 9h7z" fill="#ffcbbe"/><path d="m39 38.5v4.25a3.74 3.74 0 0 1 -6.75 2.23 3.74 3.74 0 0 1 -6.75-2.23v-4.25z" fill="#edf9fa"/><path d="m45 30h2.5a3.5 3.5 0 0 0 3.5-3.5 3.5 3.5 0 0 0 -3.5-3.5h-2.5z" fill="#ffcbbe"/><path d="m19 30h-2.5a3.5 3.5 0 0 1 -3.5-3.5 3.5 3.5 0 0 1 3.5-3.5h2.5z" fill="#ffcbbe"/><path d="m36.09 12.88a12.019 12.019 0 0 1 -8.09 3.12h-10v12a14 14 0 0 0 28 0v-11a13.916 13.916 0 0 1 -9.91-4.12z" fill="#ffddce"/><path d="m26 27a1 1 0 0 0 1-1v-2a1 1 0 0 0 -2 0v2a1 1 0 0 0 1 1z"/><path d="m38 23a1 1 0 0 0 -1 1v2a1 1 0 0 0 2 0v-2a1 1 0 0 0 -1-1z"/><path d="m32 35c-2.71 0-5-1.374-5-3h-2c0 2.8 3.075 5 7 5s7-2.2 7-5h-2c0 1.626-2.29 3-5 3z"/><path d="m52 22a20 20 0 0 0 -40 0 26.959 26.959 0 0 0 .21 3.22 4.237 4.237 0 0 0 -.21 1.28 4.473 4.473 0 0 0 .78 2.52 82.417 82.417 0 0 0 4.31 14.93 12.968 12.968 0 0 0 -3.66 8.4l-.43 8.6a1.025 1.025 0 0 0 .28.74.975.975 0 0 0 .72.31h36a.975.975 0 0 0 .72-.31 1.025 1.025 0 0 0 .28-.74l-.43-8.6a13.021 13.021 0 0 0 -3.66-8.41 81.522 81.522 0 0 0 4.31-14.92 4.473 4.473 0 0 0 .78-2.52 4.237 4.237 0 0 0 -.21-1.28 27.09 27.09 0 0 0 .21-3.22zm-38 4.5a2.509 2.509 0 0 1 2.5-2.5h.5v4c0 .34.03.67.05 1h-.55a2.5 2.5 0 0 1 -2.5-2.5zm1.17 4.28a4.465 4.465 0 0 0 1.33.22h.8a15.086 15.086 0 0 0 6.2 9.35 12.744 12.744 0 0 0 -4.81 2.21 81.406 81.406 0 0 1 -3.52-11.78zm16.83 10.22a13.012 13.012 0 0 1 -13-13v-11h9a13.014 13.014 0 0 0 8.05-2.78 14.851 14.851 0 0 0 8.95 3.75v10.03a13.012 13.012 0 0 1 -13 13zm6 .74v1.01a2.745 2.745 0 0 1 -4.95 1.64 1.028 1.028 0 0 0 -1.6 0 2.745 2.745 0 0 1 -4.95-1.64v-.81a14.86 14.86 0 0 0 11.5-.2zm-17.89 18.26h-5.06l.35-7h5.48zm28.84 0h-5.06l-.77-7h5.48zm-.56-9h-6.39a1.022 1.022 0 0 0 -.75.33.968.968 0 0 0 -.24.78l.87 7.89h-19.76l.87-7.89a.968.968 0 0 0 -.24-.78 1.022 1.022 0 0 0 -.75-.33h-6.39a11.019 11.019 0 0 1 8.89-8.83v.58a4.739 4.739 0 0 0 7.75 3.67 4.739 4.739 0 0 0 7.75-3.67v-.47a10.917 10.917 0 0 1 8.39 8.72zm-3.08-8.46a12.893 12.893 0 0 0 -4.81-2.2 15 15 0 0 0 6.2-9.34h.8a4.465 4.465 0 0 0 1.33-.22 81.534 81.534 0 0 1 -3.52 11.76zm2.19-13.54h-.55c.02-.33.05-.66.05-1v-4h.5a2.509 2.509 0 0 1 2.5 2.5 2.5 2.5 0 0 1 -2.5 2.5zm2.47-6.25a4.359 4.359 0 0 0 -2.47-.75h-.5v-5a1 1 0 0 0 -1-1 12.886 12.886 0 0 1 -9.2-3.82 1 1 0 0 0 -1.38-.04 11.058 11.058 0 0 1 -7.42 2.86h-10a1 1 0 0 0 -1 1v6h-.5a4.428 4.428 0 0 0 -2.47.74c-.01-.24-.03-.51-.03-.74a18 18 0 0 1 36 0c0 .24-.02.5-.03.75z"/></svg>