<svg width="18" height="18" viewBox="0 0 18 18" fill="none" xmlns="http://www.w3.org/2000/svg">
<path fill-rule="evenodd" clip-rule="evenodd" d="M17.82 9.20456C17.82 8.56637 17.7627 7.95274 17.6564 7.36365H9.17999V10.845H14.0236C13.815 11.97 13.1809 12.9232 12.2277 13.5614V15.8196H15.1364C16.8382 14.2527 17.82 11.9455 17.82 9.20456Z" fill="#4285F4"/>
<path fill-rule="evenodd" clip-rule="evenodd" d="M9.18 18C11.61 18 13.6473 17.1941 15.1364 15.8195L12.2277 13.5614C11.4218 14.1014 10.3909 14.4204 9.18 14.4204C6.8359 14.4204 4.85181 12.8373 4.14409 10.71H1.13727V13.0418C2.61818 15.9832 5.66181 18 9.18 18Z" fill="#34A835"/>
<path fill-rule="evenodd" clip-rule="evenodd" d="M4.14408 10.71C3.96408 10.17 3.86181 9.59319 3.86181 9.00001C3.86181 8.40683 3.96408 7.83001 4.14408 7.29001V4.95819H1.13727C0.52772 6.17319 0.179993 7.54774 0.179993 9.00001C0.179993 10.4523 0.52772 11.8268 1.13727 13.0418L4.14408 10.71Z" fill="#FBBC05"/>
<path fill-rule="evenodd" clip-rule="evenodd" d="M9.18 3.57955C10.5014 3.57955 11.6877 4.03364 12.6205 4.92545L15.2018 2.34409C13.6432 0.891818 11.6059 0 9.18 0C5.66181 0 2.61818 2.01682 1.13727 4.95818L4.14409 7.29C4.85181 5.16273 6.8359 3.57955 9.18 3.57955Z" fill="#EA4335"/>
</svg>
