<svg width="23" height="23" viewBox="0 0 23 23" fill="none" xmlns="http://www.w3.org/2000/svg">
<path fill-rule="evenodd" clip-rule="evenodd" d="M20.0059 0.90918H3.03624C1.69737 0.90918 0.612 1.99455 0.612 3.33342V20.3031C0.612 21.642 1.69737 22.7274 3.03624 22.7274H3.73541L16.6529 9.30662C16.8414 9.11076 17.1015 9.00009 17.3734 9.00009C17.6452 9.00009 17.9053 9.11076 18.0938 9.30662L22.4302 13.8119V3.33342C22.4302 1.99455 21.3448 0.90918 20.0059 0.90918ZM22.4302 16.696L17.3734 11.4421L6.51131 22.7274H20.0059C21.3448 22.7274 22.4302 21.642 22.4302 20.3031V16.696ZM6.97564 5.54553C6.02169 5.54553 5.24836 6.31886 5.24836 7.2728C5.24836 8.22675 6.02169 9.00007 6.97564 9.00007C7.92958 9.00007 8.70291 8.22675 8.70291 7.2728C8.70291 6.31886 7.92958 5.54553 6.97564 5.54553ZM3.24836 7.2728C3.24836 5.21429 4.91712 3.54553 6.97564 3.54553C9.03415 3.54553 10.7029 5.21429 10.7029 7.2728C10.7029 9.33132 9.03415 11.0001 6.97564 11.0001C4.91712 11.0001 3.24836 9.33132 3.24836 7.2728Z" fill="#A9A8A5"/>
</svg>
