<svg width="12" height="16" viewBox="0 0 12 16" fill="none" xmlns="http://www.w3.org/2000/svg">
<path fill-rule="evenodd" clip-rule="evenodd" d="M9.21709 11.9422C10.2987 10.2192 11.2459 8.14172 11.2459 6.10932C11.2459 3.02796 8.74799 0.530029 5.66663 0.530029C2.58528 0.530029 0.0873413 3.02796 0.0873413 6.10932C0.0873413 8.14172 1.0346 10.2192 2.11618 11.9422C3.59883 14.3042 5.37336 15.9999 5.66663 15.9999C5.95991 15.9999 7.73443 14.3042 9.21709 11.9422ZM5.66661 9.15255C7.34735 9.15255 8.70986 7.79004 8.70986 6.1093C8.70986 4.42856 7.34735 3.06605 5.66661 3.06605C3.98587 3.06605 2.62336 4.42856 2.62336 6.1093C2.62336 7.79004 3.98587 9.15255 5.66661 9.15255Z" fill="url(#paint0_linear)"/>
<defs>
<linearGradient id="paint0_linear" x1="0.0873413" y1="0.530029" x2="14.8404" y2="11.5075" gradientUnits="userSpaceOnUse">
<stop stop-color="#F2DD22"/>
<stop offset="0.991956" stop-color="#FCF089"/>
</linearGradient>
</defs>
</svg>
