<svg width="24" height="24" viewBox="0 0 24 24" fill="none" xmlns="http://www.w3.org/2000/svg">
<g clip-path="url(#clip0)">
<path d="M21.9101 0H18.3901C18.2995 0.00130374 18.21 0.020445 18.1268 0.0563307C18.0436 0.0922164 17.9682 0.144144 17.9051 0.209146C17.842 0.274149 17.7922 0.350955 17.7588 0.435176C17.7253 0.519398 17.7088 0.609385 17.7101 0.7C17.7088 0.790137 17.7254 0.879638 17.759 0.963297C17.7925 1.04696 17.8424 1.1231 17.9057 1.18731C17.969 1.25152 18.0444 1.3025 18.1275 1.3373C18.2107 1.3721 18.3 1.39001 18.3901 1.39H21.6301L17.8901 5.17C17.7501 5.01 17.6101 4.85 17.4601 4.7C17.1902 4.41093 16.8921 4.14962 16.5701 3.92C15.5388 3.15035 14.3435 2.62948 13.0776 2.39807C11.8117 2.16666 10.5095 2.23097 9.27257 2.58597C8.03565 2.94098 6.89751 3.57707 5.94703 4.44459C4.99655 5.31211 4.25944 6.38758 3.79325 7.58703C3.32707 8.78648 3.14442 10.0774 3.25957 11.3591C3.37473 12.6408 3.78457 13.8786 4.45709 14.9757C5.12961 16.0729 6.04662 16.9997 7.13652 17.6839C8.22641 18.3681 9.4597 18.7912 10.7401 18.92H10.8301V20.92H8.1701C8.0808 20.9187 7.99211 20.935 7.9091 20.9679C7.82609 21.0009 7.75039 21.0499 7.68632 21.1121C7.62224 21.1743 7.57105 21.2485 7.53567 21.3305C7.50028 21.4125 7.4814 21.5007 7.4801 21.59C7.47742 21.6783 7.49251 21.7663 7.52448 21.8487C7.55645 21.9311 7.60464 22.0063 7.66619 22.0697C7.72775 22.1331 7.80141 22.1835 7.88282 22.2179C7.96423 22.2523 8.05172 22.27 8.1401 22.27H10.8001V23.37C10.8202 23.5349 10.9 23.6867 11.0243 23.7968C11.1487 23.9069 11.309 23.9677 11.4751 23.9677C11.6412 23.9677 11.8015 23.9069 11.9259 23.7968C12.0502 23.6867 12.13 23.5349 12.1501 23.37V22.27H14.8201C14.985 22.2499 15.1368 22.1701 15.2469 22.0458C15.357 21.9214 15.4178 21.7611 15.4178 21.595C15.4178 21.4289 15.357 21.2686 15.2469 21.1442C15.1368 21.0199 14.985 20.9401 14.8201 20.92H12.1801V18.92H12.2601C14.3352 18.7303 16.2645 17.7716 17.6689 16.2322C19.0732 14.6927 19.8513 12.6838 19.8501 10.6C19.8684 9.09463 19.4704 7.61346 18.7001 6.32L22.6101 2.41V5.65C22.6305 5.81997 22.7125 5.97656 22.8406 6.09015C22.9687 6.20375 23.1339 6.26648 23.3051 6.26648C23.4763 6.26648 23.6415 6.20375 23.7696 6.09015C23.8977 5.97656 23.9797 5.81997 24.0001 5.65V2.13C24.0041 1.85255 23.953 1.57706 23.8499 1.31946C23.7467 1.06186 23.5936 0.827252 23.3992 0.629194C23.2049 0.431136 22.9732 0.273556 22.7176 0.16556C22.462 0.0575634 22.1876 0.00129297 21.9101 0V0ZM12.2601 17.47C12.0037 17.4852 11.7465 17.4852 11.4901 17.47C11.2403 17.4849 10.9899 17.4849 10.7401 17.47C9.04461 17.1838 7.51379 16.2835 6.43956 14.9409C5.36533 13.5983 4.82284 11.9072 4.91555 10.1903C5.00826 8.47328 5.72968 6.85049 6.94224 5.63135C8.15479 4.41221 9.77365 3.68201 11.4901 3.58C12.9611 3.57132 14.3956 4.03779 15.5801 4.91C15.9045 5.13289 16.206 5.38747 16.4801 5.67C16.6314 5.8227 16.7749 5.9829 16.9101 6.15L17.4201 6.88C18.0922 7.98483 18.4388 9.25693 18.4201 10.55C18.4129 12.256 17.783 13.9006 16.6487 15.1749C15.5144 16.4491 13.9538 17.2653 12.2601 17.47Z" fill="#F2C611"/>
</g>
<defs>
<clipPath id="clip0">
<rect width="24" height="24" fill="white"/>
</clipPath>
</defs>
</svg>
