<svg width="33" height="41" viewBox="0 0 33 41" fill="none" xmlns="http://www.w3.org/2000/svg">
<g clip-path="url(#clip0)" filter="url(#filter0_d)">
<path d="M28.5 11.71V12C28.5 16.54 23.71 21.51 19.7 24.88C18.8016 25.6284 17.6693 26.0382 16.5 26.0382C15.3307 26.0382 14.1984 25.6284 13.3 24.88C9.29 21.48 4.5 16.51 4.5 12V11.71C4.50087 9.95909 5.17712 8.27596 6.38792 7.01114C7.59872 5.74631 9.25076 4.99729 11 4.92004C12.1265 4.93552 13.2288 5.24901 14.1948 5.82864C15.1609 6.40827 15.9562 7.23336 16.5 8.22004C17.0438 7.23336 17.8391 6.40827 18.8052 5.82864C19.7712 5.24901 20.8735 4.93552 22 4.92004C23.7492 4.99729 25.4013 5.74631 26.6121 7.01114C27.8229 8.27596 28.4991 9.95909 28.5 11.71V11.71Z" fill="#F2C611"/>
</g>
<path d="M9.844 32.465H9.313V31.421H9.844V32.465ZM10.789 34.841L10.753 34.814C10.744 34.841 10.717 34.841 10.627 34.841H10.303C10.186 34.841 10.177 34.832 10.177 34.715V33.032H10.789V34.841ZM8.305 37.496V36.569H10.789V37.496H8.305ZM8.926 33.032V33.743C8.926 34.22 8.836 34.805 8.314 35.264C8.395 35.309 8.548 35.444 8.611 35.525C9.169 35.012 9.295 34.301 9.295 33.752V33.032H9.799V34.715C9.799 35.147 9.907 35.237 10.258 35.237H10.69C10.726 35.237 10.762 35.237 10.789 35.228V36.065H8.305V33.032H8.926ZM7.54 31.421H8.836V32.465H7.765V38.657H8.305V38.036H10.789V38.531H11.338V32.465H10.33V31.421H11.545V30.818H7.54V31.421ZM13.165 37.964C12.751 37.964 12.67 37.901 12.67 37.568V34.328H14.695V34.931H15.352V30.872H11.977V31.52H14.695V33.689H12.013V37.568C12.013 38.387 12.265 38.594 13.093 38.594H14.587C15.406 38.594 15.595 38.189 15.685 36.731C15.496 36.686 15.217 36.56 15.064 36.443C15.019 37.739 14.947 37.964 14.551 37.964H13.165ZM21.205 30.683C21.043 31.106 20.728 31.736 20.503 32.123L20.962 32.33C21.214 31.97 21.52 31.403 21.799 30.917L21.205 30.683ZM18.388 32.069C18.298 31.709 18.019 31.151 17.74 30.728L17.254 30.944C17.524 31.367 17.794 31.943 17.884 32.312L18.388 32.069ZM20.404 34.319H18.451L18.928 34.148C18.865 33.824 18.667 33.32 18.433 32.951L17.911 33.131C18.118 33.509 18.316 33.995 18.37 34.319H17.497V34.886H19.144V35.804H17.722V36.362H19.144V37.424C18.406 37.523 17.731 37.604 17.191 37.667L17.29 38.297C18.433 38.144 20.116 37.91 21.682 37.685L21.664 37.091L19.765 37.343V36.362H21.241V35.804H19.765V34.886H21.43V34.319H20.476C20.647 34.004 20.863 33.536 21.052 33.113L20.449 32.933C20.332 33.302 20.116 33.842 19.936 34.184L20.404 34.319ZM25.363 32.87H24.409V30.53H23.761V32.87H21.754V32.375H20.35V30.512H19.792V32.375H19.108V30.512H18.559V32.375H17.164V32.933H21.655V33.5H23.761V37.865C23.761 38.018 23.707 38.072 23.554 38.072C23.41 38.081 22.915 38.081 22.375 38.063C22.474 38.234 22.582 38.522 22.618 38.693C23.347 38.693 23.779 38.675 24.049 38.576C24.301 38.459 24.409 38.27 24.409 37.865V33.5H25.363V32.87ZM23.329 36.245C23.23 35.696 22.879 34.859 22.501 34.211L21.943 34.409C22.312 35.066 22.645 35.921 22.735 36.461L23.329 36.245Z" fill="#F2C611"/>
<defs>
<filter id="filter0_d" x="0.5" y="-1" width="32" height="32" filterUnits="userSpaceOnUse" color-interpolation-filters="sRGB">
<feFlood flood-opacity="0" result="BackgroundImageFix"/>
<feColorMatrix in="SourceAlpha" type="matrix" values="0 0 0 0 0 0 0 0 0 0 0 0 0 0 0 0 0 0 127 0" result="hardAlpha"/>
<feOffset/>
<feGaussianBlur stdDeviation="2"/>
<feColorMatrix type="matrix" values="0 0 0 0 0.9625 0 0 0 0 0.815843 0 0 0 0 0.212552 0 0 0 1 0"/>
<feBlend mode="normal" in2="BackgroundImageFix" result="effect1_dropShadow"/>
<feBlend mode="normal" in="SourceGraphic" in2="effect1_dropShadow" result="shape"/>
</filter>
<clipPath id="clip0">
<rect width="24" height="24" fill="white" transform="translate(4.5 3)"/>
</clipPath>
</defs>
</svg>
