<svg width="14" height="14" viewBox="0 0 14 14" fill="none" xmlns="http://www.w3.org/2000/svg">
<g clip-path="url(#clip0)">
<path d="M0.855231 9.28651L0.0208794 12.8951C-0.0079029 13.027 -0.00691622 13.1637 0.0237673 13.2952C0.0544508 13.4267 0.114056 13.5496 0.198229 13.6551C0.282401 13.7605 0.389015 13.8458 0.510282 13.9046C0.631548 13.9635 0.764404 13.9945 0.899144 13.9953C0.961927 14.0016 1.02519 14.0016 1.08797 13.9953L4.71081 13.1591L11.6667 6.21481L7.78474 2.33337L0.855231 9.28651Z" fill="white"/>
<path d="M13.747 2.68542L11.3105 0.248854C11.1503 0.0894723 10.9335 0 10.7075 0C10.4815 0 10.2648 0.0894723 10.1046 0.248854L8.75 1.60342L12.3966 5.25L13.7511 3.89544C13.8304 3.81576 13.8932 3.72124 13.9359 3.61728C13.9786 3.51332 14.0004 3.40196 14 3.28957C13.9996 3.17718 13.9771 3.06597 13.9337 2.9623C13.8903 2.85863 13.8268 2.76454 13.747 2.68542Z" fill="white"/>
</g>
<defs>
<clipPath id="clip0">
<rect width="14" height="14" fill="white"/>
</clipPath>
</defs>
</svg>
