<svg width="14" height="14" viewBox="0 0 14 14" fill="none" xmlns="http://www.w3.org/2000/svg">
<path d="M1.64111 9.02237L0.902219 12.2113C0.876729 12.3278 0.877603 12.4486 0.904776 12.5648C0.931949 12.681 0.984734 12.7897 1.05928 12.8828C1.13382 12.976 1.22823 13.0514 1.33563 13.1034C1.44302 13.1554 1.56067 13.1828 1.68 13.1835C1.7356 13.1891 1.79162 13.1891 1.84722 13.1835L5.05555 12.4446L11.2156 6.30793L7.77777 2.87793L1.64111 9.02237Z" fill="#4C4C4B"/>
<path d="M13.1522 3.23582L10.8578 0.941371C10.7069 0.791285 10.5028 0.707031 10.29 0.707031C10.0772 0.707031 9.87307 0.791285 9.72223 0.941371L8.44667 2.21693L11.8806 5.65082L13.1561 4.37526C13.2308 4.30023 13.2899 4.21123 13.3301 4.11333C13.3703 4.01543 13.3908 3.91056 13.3905 3.80473C13.3901 3.6989 13.3689 3.59417 13.328 3.49655C13.2871 3.39893 13.2274 3.31033 13.1522 3.23582Z" fill="#4C4C4B"/>
</svg>
