<svg width="16" height="16" viewBox="0 0 16 16" fill="none" xmlns="http://www.w3.org/2000/svg">
<path d="M14.1016 11.0799C16.6329 8.54862 16.6329 4.42982 14.1016 1.8985C11.5703 -0.632832 7.45149 -0.632832 4.9202 1.8985C2.7727 4.04598 2.44746 7.23984 3.94361 9.7339C3.94361 9.7339 4.05107 9.9142 3.90593 10.0592C3.07788 10.8872 0.593599 13.3715 0.593599 13.3715C-0.065692 14.0308 -0.222641 14.9526 0.362015 15.5374L0.462679 15.6379C1.04733 16.2227 1.96924 16.0658 2.62848 15.4065C2.62848 15.4065 5.10751 12.9275 5.93385 12.1012C6.08595 11.9491 6.2662 12.0565 6.2662 12.0565C8.76023 13.5526 11.9541 13.2274 14.1016 11.0799ZM6.11879 9.88132C4.24838 8.01093 4.24843 4.96762 6.11884 3.09723C7.98924 1.22689 11.0326 1.22684 12.9029 3.09723C14.7733 4.96757 14.7733 8.01093 12.9029 9.88132C11.0325 11.7516 7.98924 11.7516 6.11879 9.88132Z" fill="#A9A8A5"/>
<path d="M6.53312 6.10385C6.44606 6.10385 6.35756 6.08674 6.27226 6.05071C5.93151 5.90649 5.77208 5.51332 5.9163 5.17252C6.82274 3.03045 9.30285 2.0252 11.4449 2.93164C11.7856 3.07586 11.9451 3.46903 11.8008 3.80983C11.6566 4.15063 11.2635 4.30995 10.9226 4.16578C9.46114 3.54737 7.76887 4.23325 7.15051 5.6947C7.04232 5.9503 6.79419 6.10385 6.53312 6.10385Z" fill="#A9A8A5"/>
</svg>
