<svg width="40" height="40" viewBox="0 0 40 40" fill="none" xmlns="http://www.w3.org/2000/svg">
<circle cx="20" cy="20" r="20" fill="#F2C611"/>
<path d="M12.7866 18.6127C12.904 18.7278 13.0434 18.8191 13.1968 18.8814C13.3502 18.9437 13.5147 18.9758 13.6808 18.9758C13.8469 18.9758 14.0113 18.9437 14.1648 18.8814C14.3182 18.8191 14.4576 18.7278 14.5749 18.6127L18.7368 14.5365L18.7456 27.4286C18.7456 27.757 18.8788 28.072 19.1158 28.3042C19.3528 28.5364 19.6743 28.6668 20.0094 28.6668C20.3446 28.6668 20.6661 28.5364 20.9031 28.3042C21.1401 28.072 21.2733 27.757 21.2733 27.4286L21.2644 14.5341L25.425 18.6127C25.662 18.845 25.9835 18.9756 26.3187 18.9757C26.654 18.9758 26.9755 18.8455 27.2127 18.6133C27.4498 18.3811 27.5831 18.0662 27.5833 17.7377C27.5834 17.4093 27.4503 17.0942 27.2133 16.8619L22.6812 12.4217C22.3291 12.0767 21.9111 11.803 21.4511 11.6163C20.991 11.4296 20.4979 11.3335 20 11.3335C19.502 11.3335 19.0089 11.4296 18.5489 11.6163C18.0888 11.803 17.6708 12.0767 17.3187 12.4217L12.7866 16.8619C12.5497 17.0941 12.4166 17.4089 12.4166 17.7373C12.4166 18.0656 12.5497 18.3805 12.7866 18.6127Z" fill="white"/>
</svg>
