<svg width="28" height="28" viewBox="0 0 28 28" fill="none" xmlns="http://www.w3.org/2000/svg">
<path d="M14 0C15.8385 0 17.659 0.362121 19.3576 1.06569C21.0561 1.76925 22.5995 2.80048 23.8995 4.1005C25.1995 5.40053 26.2307 6.94387 26.9343 8.64243C27.6379 10.341 28 12.1615 28 14C28 17.713 26.525 21.274 23.8995 23.8995C21.274 26.525 17.713 28 14 28C12.1615 28 10.341 27.6379 8.64243 26.9343C6.94387 26.2307 5.40053 25.1995 4.1005 23.8995C1.475 21.274 0 17.713 0 14C0 10.287 1.475 6.72601 4.1005 4.1005C6.72601 1.475 10.287 0 14 0ZM8.4 7.994V12.67L18.396 14L8.4 15.33V20.006L22.4 14L8.4 7.994Z" fill="#F2C611"/>
</svg>
