<svg width="24" height="24" viewBox="0 0 24 24" fill="none" xmlns="http://www.w3.org/2000/svg">
<g clip-path="url(#clip0)">
<path d="M21.45 9.45C21.4565 8.22483 21.2214 7.0104 20.7581 5.87618C20.2948 4.74197 19.6124 3.71023 18.75 2.84C18.4458 2.51519 18.1109 2.22049 17.75 1.96C16.1064 0.682132 14.0819 -0.00795671 12 -3.17174e-07C9.54934 -0.0272146 7.18395 0.898726 5.40302 2.58242C3.62209 4.2661 2.56494 6.57584 2.45465 9.02417C2.34436 11.4725 3.18958 13.8679 4.81192 15.7049C6.43426 17.5419 8.70682 18.6768 11.15 18.87V20H7.76001C7.53097 19.9973 7.31011 20.085 7.14536 20.2442C6.98061 20.4033 6.88526 20.621 6.88001 20.85C6.87735 20.9633 6.89736 21.076 6.93888 21.1814C6.9804 21.2869 7.04259 21.383 7.12179 21.464C7.20098 21.5451 7.29559 21.6095 7.40004 21.6534C7.5045 21.6974 7.61668 21.72 7.73001 21.72H11.12V23.12C11.12 23.3481 11.2106 23.5668 11.3719 23.7281C11.5332 23.8894 11.7519 23.98 11.98 23.98C12.2081 23.98 12.4268 23.8894 12.5881 23.7281C12.7494 23.5668 12.84 23.3481 12.84 23.12V21.72H16.24C16.4673 21.7174 16.6845 21.626 16.8453 21.4652C17.006 21.3045 17.0974 21.0873 17.1 20.86C17.1 20.6319 17.0094 20.4132 16.8481 20.2519C16.6868 20.0906 16.4681 20 16.24 20H12.84V18.87C15.1928 18.66 17.3817 17.5765 18.9753 15.8329C20.569 14.0894 21.4519 11.8122 21.45 9.45ZM12 17.33C9.91011 17.33 7.9058 16.4998 6.42801 15.022C4.95022 13.5442 4.12001 11.5399 4.12001 9.45C4.12001 7.36009 4.95022 5.35578 6.42801 3.878C7.9058 2.40021 9.91011 1.57 12 1.57C13.6624 1.56277 15.2828 2.09236 16.62 3.08C16.9822 3.33129 17.3173 3.6195 17.62 3.94C19.0669 5.40831 19.8756 7.38856 19.87 9.45C19.8611 11.3849 19.1442 13.2497 17.8546 14.6922C16.565 16.1347 14.7919 17.0553 12.87 17.28C12.5811 17.3116 12.2907 17.3283 12 17.33Z" fill="#F2C611"/>
</g>
<defs>
<clipPath id="clip0">
<rect width="24" height="24" fill="white"/>
</clipPath>
</defs>
</svg>
